<svg xmlns="http://www.w3.org/2000/svg" width="28.449" height="56.023" viewBox="0 0 28.449 56.023">
  <g id="Grupo_1102497" data-name="Grupo 1102497" transform="translate(-126)">
    <g id="Grupo_1102496" data-name="Grupo 1102496" transform="translate(126 0)">
      <path id="Trazado_915281" data-name="Trazado 915281" d="M151.319,0H129.13A3.076,3.076,0,0,0,126,3.011V24.539a2.927,2.927,0,0,0,.392,1.452l5.468,9.514a3.156,3.156,0,0,0,2.817,1.7h.076V53.835a2.191,2.191,0,0,0,2.188,2.188h6.565a2.191,2.191,0,0,0,2.188-2.188V37.2h.076a3.156,3.156,0,0,0,2.817-1.7l5.47-9.517a2.926,2.926,0,0,0,.39-1.449V3.011A3.076,3.076,0,0,0,151.319,0Zm-7.812,37.2V53.835h-6.565V37.2Zm8.754-12.662a.733.733,0,0,1-.1.36l-5.485,9.543c-.013.022-.024.044-.035.067a.954.954,0,0,1-.868.5H134.677a.954.954,0,0,1-.868-.5c-.011-.023-.023-.045-.035-.067L128.291,24.9a.726.726,0,0,1-.1-.363V3.011a.889.889,0,0,1,.941-.823h22.189a.889.889,0,0,1,.941.823V24.541Z" transform="translate(-126 0)" fill="#f56364"/>
      <path id="Trazado_915282" data-name="Trazado 915282" d="M182.413,40h-13.13A3.286,3.286,0,0,0,166,43.283v13.13a3.286,3.286,0,0,0,3.283,3.283h1.641a1.094,1.094,0,1,0,0-2.188h-1.641a1.1,1.1,0,0,1-1.094-1.094V43.283a1.1,1.1,0,0,1,1.094-1.094h13.13a1.1,1.1,0,0,1,1.094,1.094v13.13a1.1,1.1,0,0,1-1.094,1.094h-1.642a1.094,1.094,0,1,0,0,2.188h1.642a3.286,3.286,0,0,0,3.283-3.283V43.283A3.286,3.286,0,0,0,182.413,40Z" transform="translate(-161.623 -35.623)" fill="#f56364"/>
      <path id="Trazado_915283" data-name="Trazado 915283" d="M227.056,237.5a3.556,3.556,0,1,0,3.556,3.556A3.56,3.56,0,0,0,227.056,237.5Zm0,4.924a1.368,1.368,0,1,1,1.368-1.368A1.369,1.369,0,0,1,227.056,242.424Z" transform="translate(-212.831 -211.513)" fill="#f56364"/>
      <path id="Trazado_915284" data-name="Trazado 915284" d="M207.6,87.794a1.094,1.094,0,1,0,1.547,1.547l.5-.5a3.813,3.813,0,0,0,.727.3v.707a1.094,1.094,0,1,0,2.188,0v-.707a3.812,3.812,0,0,0,.727-.3l.5.5a1.094,1.094,0,0,0,1.547-1.547l-.5-.5a3.806,3.806,0,0,0,.3-.727h.707a1.094,1.094,0,1,0,0-2.188h-.707a3.8,3.8,0,0,0-.3-.727l.5-.5a1.094,1.094,0,1,0-1.548-1.547l-.5.5a3.805,3.805,0,0,0-.727-.3V81.1a1.094,1.094,0,1,0-2.188,0V81.8a3.8,3.8,0,0,0-.727.3l-.5-.5a1.094,1.094,0,0,0-1.548,1.547l.5.5a3.806,3.806,0,0,0-.3.727H207.1a1.094,1.094,0,1,0,0,2.188h.707a3.8,3.8,0,0,0,.3.727Zm2.227-2.321a1.641,1.641,0,1,1,1.641,1.641A1.643,1.643,0,0,1,209.831,85.473Z" transform="translate(-197.247 -71.248)" fill="#f56364"/>
      <path id="Trazado_915285" data-name="Trazado 915285" d="M247.092,200h0a1.094,1.094,0,1,0,1.095,1.094A1.094,1.094,0,0,0,247.091,200Z" transform="translate(-232.867 -178.116)" fill="#f56364"/>
    </g>
  </g>
</svg>
