<svg xmlns="http://www.w3.org/2000/svg" width="41.547" height="51.256" viewBox="0 0 41.547 51.256">
  <g id="Grupo_1102512" data-name="Grupo 1102512" transform="translate(-48.491)">
    <g id="Grupo_1102501" data-name="Grupo 1102501" transform="translate(72.268 23.226)">
      <g id="Grupo_1102500" data-name="Grupo 1102500">
        <path id="Trazado_915286" data-name="Trazado 915286" d="M287,232a1,1,0,1,0,1,1A1,1,0,0,0,287,232Z" transform="translate(-286 -232)" fill="#f56364"/>
      </g>
    </g>
    <g id="Grupo_1102503" data-name="Grupo 1102503" transform="translate(68.263 17.219)">
      <g id="Grupo_1102502" data-name="Grupo 1102502">
        <path id="Trazado_915287" data-name="Trazado 915287" d="M247,172a1,1,0,1,0,1,1A1,1,0,0,0,247,172Z" transform="translate(-246 -172)" fill="#f56364"/>
      </g>
    </g>
    <g id="Grupo_1102505" data-name="Grupo 1102505" transform="translate(56.25 43.248)">
      <g id="Grupo_1102504" data-name="Grupo 1102504">
        <path id="Trazado_915288" data-name="Trazado 915288" d="M127,432a1,1,0,1,0,1,1A1,1,0,0,0,127,432Z" transform="translate(-126 -432)" fill="#f56364"/>
      </g>
    </g>
    <g id="Grupo_1102507" data-name="Grupo 1102507" transform="translate(48.491)">
      <g id="Grupo_1102506" data-name="Grupo 1102506">
        <path id="Trazado_915289" data-name="Trazado 915289" d="M89.128,40.813,76.272,17.958V5.835a3,3,0,0,0-1-5.835H63.258a3,3,0,0,0-1,5.835V17.958L49.4,40.813a7.008,7.008,0,0,0,6.107,10.444H83.021a7.008,7.008,0,0,0,6.107-10.444Zm-25-22.1a1,1,0,0,0,.129-.491V6.007h1a1,1,0,0,0,0-2h-2a1,1,0,1,1,0-2H75.271a1,1,0,1,1,0,2h-2a1,1,0,0,0,0,2h1V18.22a1,1,0,0,0,.129.491L80.3,29.2a19.3,19.3,0,0,0-10.494,2.145A17.2,17.2,0,0,1,56.391,32.47ZM87.341,46.776a4.958,4.958,0,0,1-4.32,2.478H55.508a5.006,5.006,0,0,1-4.362-7.46l4.245-7.547a19.185,19.185,0,0,0,6.351,1.082q.48,0,.962-.024a19.437,19.437,0,0,0,8.021-2.181,17.283,17.283,0,0,1,10.79-1.76l5.867,10.43A4.959,4.959,0,0,1,87.341,46.776Z" transform="translate(-48.491)" fill="#f56364"/>
      </g>
    </g>
    <g id="Grupo_1102509" data-name="Grupo 1102509" transform="translate(62.257 23.226)">
      <g id="Grupo_1102508" data-name="Grupo 1102508">
        <path id="Trazado_915290" data-name="Trazado 915290" d="M189,232a3,3,0,1,0,3,3A3.007,3.007,0,0,0,189,232Zm0,4a1,1,0,1,1,1-1A1,1,0,0,1,189,236Z" transform="translate(-186 -232)" fill="#f56364"/>
      </g>
    </g>
    <g id="Grupo_1102511" data-name="Grupo 1102511" transform="translate(60.255 43.248)">
      <g id="Grupo_1102510" data-name="Grupo 1102510">
        <path id="Trazado_915291" data-name="Trazado 915291" d="M187.023,432H167a1,1,0,0,0,0,2h20.022a1,1,0,1,0,0-2Z" transform="translate(-166 -432)" fill="#f56364"/>
      </g>
    </g>
  </g>
</svg>
