<svg xmlns="http://www.w3.org/2000/svg" width="51.055" height="45.049" viewBox="0 0 51.055 45.049">
  <g id="Layer_35" transform="translate(-4.9 -10.3)">
    <g id="Grupo_1102516" data-name="Grupo 1102516" transform="translate(4.9 10.3)">
      <g id="Grupo_1102515" data-name="Grupo 1102515">
        <path id="Trazado_915292" data-name="Trazado 915292" d="M42.15,50.8a.85.85,0,1,0,.85.85A.871.871,0,0,0,42.15,50.8Z" transform="translate(-20.674 -27.851)" fill="#f56364"/>
        <path id="Trazado_915293" data-name="Trazado 915293" d="M85.25,80.6a.85.85,0,1,0-.85-.85A.834.834,0,0,0,85.25,80.6Z" transform="translate(-39.351 -40.028)" fill="#f56364"/>
        <path id="Trazado_915294" data-name="Trazado 915294" d="M33.05,79a.85.85,0,1,0,.85.85A.871.871,0,0,0,33.05,79Z" transform="translate(-16.73 -40.071)" fill="#f56364"/>
        <path id="Trazado_915295" data-name="Trazado 915295" d="M44.05,67.4a.85.85,0,1,0,.85.85A.871.871,0,0,0,44.05,67.4Z" transform="translate(-21.497 -35.044)" fill="#f56364"/>
        <path id="Trazado_915296" data-name="Trazado 915296" d="M55.105,35.176a.871.871,0,0,0,.85-.85v-9.69l-1.473-5.95c-.567-2.38-2.04-3.8-3.967-3.8H38.672a.871.871,0,0,0-.85.85V29.113H33.629l-2.04-4.42,3.287-1.417a.878.878,0,0,0,.453-.453,1.159,1.159,0,0,0,0-.623L30.8,11.717a2.346,2.346,0,0,0-1.3-1.247,2.5,2.5,0,0,0-1.813,0L13.06,16.7a2.4,2.4,0,0,0-1.247,3.117l.17.453a3.351,3.351,0,0,0-2.267.68A3.721,3.721,0,0,0,8.13,23.73a2.79,2.79,0,0,0-1.643.34,3.023,3.023,0,0,0-1.53,2.663,3.416,3.416,0,0,0,.793,2.1,3.838,3.838,0,0,0-.793,2.323,3.74,3.74,0,0,0,7.48,0,3.231,3.231,0,0,0-.057-.737,4.55,4.55,0,0,0,2.153-.793,4.357,4.357,0,0,0,1.02-1.02l.68,1.587v4.137a.871.871,0,0,0,.85.85H21.56a4.636,4.636,0,0,0,1.077,2.1H21.05c-2.72,0-5.157,0-6.573,2.947a4.436,4.436,0,0,0-3.683.227,4.41,4.41,0,0,0-2.437,3.57A3.662,3.662,0,0,0,6.2,45.036,5.476,5.476,0,0,0,4.9,49v5.5a.871.871,0,0,0,.85.85h49.3a.871.871,0,0,0,.85-.85V38.179a.871.871,0,0,0-.85-.85H50.572a4.943,4.943,0,0,0,1.077-2.1h3.457ZM52.839,19.14l1.19,4.873h-8.5V16.646h4.987C51.989,16.646,52.612,18.176,52.839,19.14ZM39.522,16.646h4.307v8.216a.871.871,0,0,0,.85.85h9.576v2.493H52.669a.85.85,0,0,0,0,1.7h1.587v3.57H51.762a4.91,4.91,0,0,0-9.746,0H39.522Zm-8.33,18.529H42.129a4.636,4.636,0,0,0,1.077,2.1H30.116a5.271,5.271,0,0,0,1.077-2.1Zm6.63-1.7H31.249a4.633,4.633,0,0,0-1.19-2.607h7.763Zm-6.063-4.307H21.22l8.84-3.8ZM13.74,18.29,28.359,12a.737.737,0,0,1,.567,0,.762.762,0,0,1,.4.34l4.08,9.69L17.536,28.886,13.343,19.2a.69.69,0,0,1,.4-.907Zm-.17,9.916a2.69,2.69,0,0,1-2.267.4.806.806,0,0,0-.907.34.854.854,0,0,0,0,.963,2.137,2.137,0,0,1,.4,1.19,2.069,2.069,0,0,1-4.137.057,1.853,1.853,0,0,1,.85-1.643.777.777,0,0,0,.34-.737.987.987,0,0,0-.453-.68,1.738,1.738,0,0,1-.737-1.36,1.19,1.19,0,0,1,.68-1.133,1.311,1.311,0,0,1,1.36.057.854.854,0,0,0,.963,0,.807.807,0,0,0,.283-.907,2.049,2.049,0,0,1,.793-2.323,1.872,1.872,0,0,1,2.153,0L14.7,26.563a3,3,0,0,1-1.133,1.643Zm4.42,2.663h4.7a5.009,5.009,0,0,0-1.19,2.607H17.99Zm5.157,3.23a3.23,3.23,0,1,1,6.46,0,3.228,3.228,0,0,1-3.23,3.23A3.265,3.265,0,0,1,23.146,34.1ZM9.207,45.716a.812.812,0,0,0,.623-.283.852.852,0,0,0,.227-.623,2.83,2.83,0,0,1,1.473-2.833,2.781,2.781,0,0,1,2.833.17.983.983,0,0,0,.793.17.728.728,0,0,0,.567-.567c.85-2.437,2.1-2.72,4.477-2.72-.283,7.65-4.817,9.18-12.41,9.18H6.713a3.535,3.535,0,0,1,.737-1.927,2.139,2.139,0,0,1,1.757-.567Zm45.049,7.99H6.657v-3.8H7.79c7.14,0,13.77-1.36,14.11-10.88H54.255ZM43.659,34.1a3.23,3.23,0,1,1,3.23,3.23A3.265,3.265,0,0,1,43.659,34.1Z" transform="translate(-4.9 -10.3)" fill="#f56364"/>
        <path id="Trazado_915297" data-name="Trazado 915297" d="M27.844,25.064a.719.719,0,0,0,.34-.057l8.216-3.57a.863.863,0,0,0-.68-1.587L27.5,23.42a.854.854,0,0,0-.453,1.133A.96.96,0,0,0,27.844,25.064Z" transform="translate(-14.471 -14.411)" fill="#f56364"/>
        <path id="Trazado_915298" data-name="Trazado 915298" d="M30.132,31.554a.8.8,0,0,0,.793.51.719.719,0,0,0,.34-.057l8.216-3.57a.863.863,0,0,0-.68-1.587l-8.216,3.57a.812.812,0,0,0-.453,1.133Z" transform="translate(-15.796 -17.444)" fill="#f56364"/>
        <path id="Trazado_915299" data-name="Trazado 915299" d="M75.75,68.5a.85.85,0,1,0,.85.85A.871.871,0,0,0,75.75,68.5Z" transform="translate(-35.234 -35.521)" fill="#f56364"/>
        <path id="Trazado_915300" data-name="Trazado 915300" d="M54.75,75.7a.85.85,0,1,0,.85.85A.871.871,0,0,0,54.75,75.7Z" transform="translate(-26.134 -38.641)" fill="#f56364"/>
        <path id="Trazado_915301" data-name="Trazado 915301" d="M71.65,77.2a.85.85,0,1,0,.85.85A.871.871,0,0,0,71.65,77.2Z" transform="translate(-33.458 -39.291)" fill="#f56364"/>
        <path id="Trazado_915302" data-name="Trazado 915302" d="M78.35,50.8a.85.85,0,1,0,.85.85A.871.871,0,0,0,78.35,50.8Z" transform="translate(-36.361 -27.851)" fill="#f56364"/>
      </g>
    </g>
  </g>
</svg>
