<svg xmlns="http://www.w3.org/2000/svg" xmlns:xlink="http://www.w3.org/1999/xlink" width="631" height="306.878" viewBox="0 0 631 306.878">
  <defs>
    <clipPath id="clip-path">
      <rect id="Rectángulo_404093" data-name="Rectángulo 404093" width="478.484" height="306.688" fill="none"/>
    </clipPath>
  </defs>
  <g id="Grupo_1102650" data-name="Grupo 1102650" transform="translate(-169 -9799)">
    <g id="Grupo_1102648" data-name="Grupo 1102648" transform="translate(-0.001 0.189)">
      <g id="Grupo_1102649" data-name="Grupo 1102649">
        <rect id="_8274378_3870352" data-name="8274378_3870352" width="620" height="306.688" transform="translate(180.001 9799)" fill="#f7ead7"/>
      </g>
    </g>
    <g id="Grupo_1102436" data-name="Grupo 1102436" transform="translate(179 9798.996)">
      <g id="Enmascarar_grupo_1102435" data-name="Enmascarar grupo 1102435" transform="translate(-10 0.004)" clip-path="url(#clip-path)">
        <path id="Trazado_915035" data-name="Trazado 915035" d="M1046.061,916.725h-10.09v-61.03a9.884,9.884,0,0,0-10.045-9.69H924.865v-9.733h101.061c11.1,0,20.135,8.713,20.135,19.424Z" transform="translate(-691.577 -632.778)" fill="#a0a0a0"/>
        <path id="Trazado_915036" data-name="Trazado 915036" d="M952.539,838.152h-10.09V750.4a8.8,8.8,0,0,0-8.947-8.631H864.631v-9.733H933.5c10.5,0,19.037,8.238,19.037,18.364Z" transform="translate(-646.536 -553.909)" fill="#a0a0a0"/>
        <path id="Trazado_915037" data-name="Trazado 915037" d="M1310.457,795.819l-14.715,67.371h2.158l13.666-64.158,4.615,2.3s.9.962,1.8-1.12-5.322-5.262-5.322-5.262Z" transform="translate(-968.904 -601.514)" fill="#f90"/>
        <rect id="Rectángulo_404081" data-name="Rectángulo 404081" width="39.996" height="3.919" transform="translate(281.293 210.478)" fill="#8f00e0"/>
        <rect id="Rectángulo_404082" data-name="Rectángulo 404082" width="37.184" height="46.415" transform="translate(282.699 214.397)" fill="#a744e0"/>
        <rect id="Rectángulo_404083" data-name="Rectángulo 404083" width="39.996" height="3.919" transform="translate(281.293 239.442)" fill="#8f00e0"/>
        <rect id="Rectángulo_404084" data-name="Rectángulo 404084" width="39.996" height="3.919" transform="translate(281.293 258.01)" fill="#8f00e0"/>
        <path id="Trazado_915038" data-name="Trazado 915038" d="M1190.721,927.187a2.027,2.027,0,1,0-2.077,1.9,1.987,1.987,0,0,0,2.077-1.9" transform="translate(-887.343 -700.054)" fill="#8f00e0"/>
        <path id="Trazado_915039" data-name="Trazado 915039" d="M1158.571,896.386l3.395,6.062a3.653,3.653,0,0,0-1.7,2.82l-7.28-.178s.331-6.046,5.59-8.7" transform="translate(-862.153 -678.265)" fill="#8f00e0"/>
        <path id="Trazado_915040" data-name="Trazado 915040" d="M1209.626,905.749l-7.142-.075a3.625,3.625,0,0,0-1.73-2.806l3.692-6.055s5.321,3.211,5.18,8.936" transform="translate(-897.875 -678.588)" fill="#8f00e0"/>
        <path id="Trazado_915041" data-name="Trazado 915041" d="M1173.1,949.75l3.681-5.9a3.916,3.916,0,0,0,3.384-.02l3.546,6.136s-5.563,2.8-10.611-.211" transform="translate(-877.195 -714.161)" fill="#8f00e0"/>
        <rect id="Rectángulo_404085" data-name="Rectángulo 404085" width="42.63" height="4.177" transform="translate(231.789 220.601)" fill="#a300ff"/>
        <rect id="Rectángulo_404086" data-name="Rectángulo 404086" width="39.632" height="49.471" transform="translate(233.288 224.778)" fill="#be4dff"/>
        <rect id="Rectángulo_404087" data-name="Rectángulo 404087" width="42.63" height="4.177" transform="translate(231.789 251.471)" fill="#a300ff"/>
        <rect id="Rectángulo_404088" data-name="Rectángulo 404088" width="42.63" height="4.177" transform="translate(231.789 271.262)" fill="#a300ff"/>
        <path id="Trazado_915042" data-name="Trazado 915042" d="M999.439,972.883a2.161,2.161,0,1,0-2.214,2.03,2.118,2.118,0,0,0,2.214-2.03" transform="translate(-744.112 -734.532)" fill="#a300ff"/>
        <path id="Trazado_915043" data-name="Trazado 915043" d="M965.174,940.055l3.618,6.461a3.894,3.894,0,0,0-1.817,3.006l-7.759-.19s.352-6.444,5.958-9.277" transform="translate(-717.263 -711.308)" fill="#a300ff"/>
        <path id="Trazado_915044" data-name="Trazado 915044" d="M1019.59,950.034l-7.612-.08a3.863,3.863,0,0,0-1.844-2.99l3.934-6.454s5.672,3.422,5.522,9.525" transform="translate(-755.337 -711.651)" fill="#a300ff"/>
        <path id="Trazado_915045" data-name="Trazado 915045" d="M980.656,996.934l3.924-6.293a4.174,4.174,0,0,0,3.607-.021l3.78,6.54s-5.929,2.988-11.31-.225" transform="translate(-733.295 -749.568)" fill="#a300ff"/>
        <path id="Trazado_915046" data-name="Trazado 915046" d="M125.19,339.33,47.742,380.221V541.04H125.19Z" transform="translate(-35.7 -256.76)" fill="#c1c1c1"/>
        <rect id="Rectángulo_404089" data-name="Rectángulo 404089" width="31.68" height="30.562" transform="translate(34.926 140.578)" fill="#4d73ff"/>
        <path id="Trazado_915047" data-name="Trazado 915047" d="M167.662,577.72l-29.2,28.162v-12.35l16.4-15.812Z" transform="translate(-103.538 -437.142)" fill="#718fff"/>
        <path id="Trazado_915048" data-name="Trazado 915048" d="M188.033,601.643v5.476l-19.97,19.265h-5.677Z" transform="translate(-121.426 -455.243)" fill="#718fff"/>
        <path id="Trazado_915049" data-name="Trazado 915049" d="M432.231,339.33l-77.448,40.891V541.04h77.448Z" transform="translate(-265.293 -256.76)" fill="#c1c1c1"/>
        <rect id="Rectángulo_404090" data-name="Rectángulo 404090" width="31.68" height="30.562" transform="translate(112.375 140.578)" fill="#4d73ff"/>
        <path id="Trazado_915050" data-name="Trazado 915050" d="M474.7,577.72l-29.2,28.162v-12.35l16.4-15.812Z" transform="translate(-333.131 -437.142)" fill="#718fff"/>
        <path id="Trazado_915051" data-name="Trazado 915051" d="M495.074,601.643v5.476L475.1,626.383h-5.677Z" transform="translate(-351.019 -455.243)" fill="#718fff"/>
        <path id="Trazado_915052" data-name="Trazado 915052" d="M739.272,339.33l-77.448,40.891V541.04h77.448Z" transform="translate(-494.885 -256.76)" fill="#c1c1c1"/>
        <rect id="Rectángulo_404091" data-name="Rectángulo 404091" width="31.68" height="30.562" transform="translate(189.822 140.578)" fill="#4d73ff"/>
        <path id="Trazado_915053" data-name="Trazado 915053" d="M781.744,577.72l-29.2,28.162v-12.35l16.4-15.812Z" transform="translate(-562.724 -437.142)" fill="#718fff"/>
        <path id="Trazado_915054" data-name="Trazado 915054" d="M802.115,601.643v5.476l-19.97,19.265h-5.677Z" transform="translate(-580.612 -455.243)" fill="#718fff"/>
        <path id="Trazado_915055" data-name="Trazado 915055" d="M359.368,497.426l18.3,162.907H354.783V499.847Z" transform="translate(-265.292 -376.386)" fill="#a0a0a0"/>
        <path id="Trazado_915056" data-name="Trazado 915056" d="M666.451,497.337l18.257,162.928H661.825V499.779Z" transform="translate(-494.886 -376.318)" fill="#a0a0a0"/>
        <path id="Trazado_915057" data-name="Trazado 915057" d="M139.726,1014.647l22.651,39,28.771-2.949-22.837-41.979Z" transform="translate(-104.482 -763.262)" fill="#a0a0a0"/>
        <path id="Trazado_915058" data-name="Trazado 915058" d="M502.268,1014.647l22.651,39,28.771-2.949-22.837-41.979Z" transform="translate(-375.575 -763.262)" fill="#a0a0a0"/>
        <path id="Trazado_915059" data-name="Trazado 915059" d="M510.336,965.384h56.129v-32.5H510.336c-9.3,0-16.847,7.276-16.847,16.252s7.543,16.252,16.847,16.252" transform="translate(-369.011 -705.879)" fill="#62635e"/>
        <path id="Trazado_915060" data-name="Trazado 915060" d="M711.547,950.218c0,9.575,8.047,17.338,17.972,17.338s17.973-7.762,17.973-17.338-8.047-17.338-17.973-17.338-17.972,7.762-17.972,17.338" transform="translate(-532.066 -705.879)" fill="#858585"/>
        <path id="Trazado_915061" data-name="Trazado 915061" d="M739.688,974.537a14.038,14.038,0,1,1,14.542-14.029,14.309,14.309,0,0,1-14.542,14.029" transform="translate(-542.235 -716.169)"/>
        <path id="Trazado_915062" data-name="Trazado 915062" d="M762.063,1081.873h-21.11v-46.634a4.077,4.077,0,0,1,4.857-3.905,22.82,22.82,0,0,0,11.4,0,4.077,4.077,0,0,1,4.857,3.905Z" transform="translate(-554.055 -780.326)" fill="#dba9ff"/>
        <path id="Trazado_915063" data-name="Trazado 915063" d="M762.06,1035.239v1.516a4.023,4.023,0,0,0-4.857-3.693,24.174,24.174,0,0,1-11.4,0,4.023,4.023,0,0,0-4.857,3.693v-1.516a4.076,4.076,0,0,1,4.857-3.9,22.879,22.879,0,0,0,11.4,0,4.076,4.076,0,0,1,4.857,3.9" transform="translate(-554.051 -780.327)" fill="#efdcff"/>
        <path id="Trazado_915064" data-name="Trazado 915064" d="M762.063,1099.848h-21.11V1058.27c0-2.027,2.328-3.553,4.857-3.193a27.771,27.771,0,0,0,11.4,0c2.529-.361,4.857,1.166,4.857,3.193Z" transform="translate(-554.055 -798.301)" fill="#be4dff"/>
        <path id="Trazado_915065" data-name="Trazado 915065" d="M757.085,1085.436a.877.877,0,1,1-.876-.845.861.861,0,0,1,.876.845" transform="translate(-564.808 -820.673)" fill="#dba9ff"/>
        <path id="Trazado_915066" data-name="Trazado 915066" d="M772.918,1146.347a.877.877,0,1,1-.876-.845.861.861,0,0,1,.876.845" transform="translate(-576.647 -866.763)" fill="#dba9ff"/>
        <path id="Trazado_915067" data-name="Trazado 915067" d="M801.687,1113.131a1.448,1.448,0,1,1-1.447-1.4,1.422,1.422,0,0,1,1.447,1.4" transform="translate(-597.306 -841.212)" fill="#dba9ff"/>
        <path id="Trazado_915068" data-name="Trazado 915068" d="M147.622,965.384h56.128v-32.5H147.622c-9.3,0-16.847,7.276-16.847,16.252s7.543,16.252,16.847,16.252" transform="translate(-97.788 -705.879)" fill="#62635e"/>
        <path id="Trazado_915069" data-name="Trazado 915069" d="M348.834,950.218c0,9.575,8.046,17.338,17.972,17.338s17.973-7.762,17.973-17.338-8.047-17.338-17.973-17.338-17.972,7.762-17.972,17.338" transform="translate(-260.844 -705.879)" fill="#858585"/>
        <path id="Trazado_915070" data-name="Trazado 915070" d="M376.974,974.537a14.038,14.038,0,1,1,14.542-14.029,14.309,14.309,0,0,1-14.542,14.029" transform="translate(-271.012 -716.169)"/>
        <path id="Trazado_915071" data-name="Trazado 915071" d="M399.349,1081.873h-21.11v-46.634a4.077,4.077,0,0,1,4.857-3.905,42.277,42.277,0,0,0,5.7.723,42.283,42.283,0,0,0,5.7-.723,4.077,4.077,0,0,1,4.857,3.905Z" transform="translate(-282.832 -780.326)" fill="#dba9ff"/>
        <path id="Trazado_915072" data-name="Trazado 915072" d="M399.347,1035.239v1.516a4.023,4.023,0,0,0-4.857-3.693,44.834,44.834,0,0,1-5.7.681,44.81,44.81,0,0,1-5.7-.681,4.023,4.023,0,0,0-4.857,3.693v-1.516a4.076,4.076,0,0,1,4.857-3.9,42.614,42.614,0,0,0,5.7.721,42.637,42.637,0,0,0,5.7-.721,4.076,4.076,0,0,1,4.857,3.9" transform="translate(-282.828 -780.327)" fill="#efdcff"/>
        <path id="Trazado_915073" data-name="Trazado 915073" d="M399.349,1099.848h-21.11V1058.27c0-2.027,2.328-3.553,4.857-3.193a51.331,51.331,0,0,0,5.7.591,51.339,51.339,0,0,0,5.7-.591c2.529-.361,4.857,1.166,4.857,3.193Z" transform="translate(-282.832 -798.301)" fill="#be4dff"/>
        <path id="Trazado_915074" data-name="Trazado 915074" d="M394.371,1085.436a.877.877,0,1,1-.876-.845.861.861,0,0,1,.876.845" transform="translate(-293.585 -820.673)" fill="#dba9ff"/>
        <path id="Trazado_915075" data-name="Trazado 915075" d="M410.205,1146.347a.877.877,0,1,1-.876-.845.861.861,0,0,1,.876.845" transform="translate(-305.425 -866.763)" fill="#dba9ff"/>
        <path id="Trazado_915076" data-name="Trazado 915076" d="M438.974,1113.131a1.448,1.448,0,1,1-1.447-1.4,1.422,1.422,0,0,1,1.447,1.4" transform="translate(-326.084 -841.212)" fill="#dba9ff"/>
        <path id="Trazado_915077" data-name="Trazado 915077" d="M803.557,287.263c-1.59,0-3.41,1.417-5,1.417-2.177-5-.437-11.147,2.232-15.809s6.248-8.662,8.23-13.768c7.023-18.091-8.7-40.2-1.679-58.291,3.253-8.388,10.672-13.489,18.051-16.794s15.259-5.424,21.913-10.394,12-13.881,10.542-22.926c-1.7-10.545-11.267-16.364-16.874-24.88-9.34-14.184-5.421-37.5,7.821-46.545,4.568-3.119,10.15-4.914,13.181-9.969,3.821-6.372,1.786-15.612-2.747-21.316s-10.945-8.754-17.085-11.8S829.664,29.694,825.6,23.53,818.829,5.455,823.586,0h203.8c.117,6.651-5.254,11.891-10.5,14.521s-11.138,2.746-16.852,2.822l-59.537.791c-5.984.08-12.111.189-17.711,2.647s-10.659,7.781-11.628,14.655c-2.268,16.088,17.444,27.323,16.311,43.573-.758,10.874-10.873,17.77-20.206,18.77s-18.7-1.912-28.058-1.321-19.738,6.406-21.542,17.112c-1.188,7.048,1.7,14.177,5.322,20s8.07,11.018,10.752,17.486c5.79,13.964,1.2,32.588-10.068,40.857-8.62,6.325-19.425,6.583-29.153,10.112s-19.633,13.352-17.8,25.019c1.346,8.57,8.582,14.554,10.194,23.061,1.441,7.605-2.108,15.548-7.218,20.574s-9.445,16.586-16.135,16.586" transform="translate(-596.393 -0.003)" fill="#a46ab9" opacity="0.45"/>
        <path id="Trazado_915078" data-name="Trazado 915078" d="M91.65,287.224c-7.13-3.073-8.439-13.206-6.551-21s5.855-15.32,5.225-23.332c-.732-9.306-7.4-16.7-12.188-24.591-12.119-19.958-12.437-47.042-.79-67.3,3.927-6.832,9.045-12.854,13.005-19.665s6.77-14.848,5.368-22.676C93.738,97.6,84.24,90.081,76.1,82.7S59.946,64.945,62.428,54c1.857-8.191,9.306-13.9,17.064-16.241s15.986-2.036,24.052-2.488,16.491-1.853,22.906-6.967c8.278-6.6,13.679-18.257,9.716-28.3H.016C-.352,7.454,5.648,13.137,12.34,15.794s14.034,2.765,21.044,4.284S47.7,25.133,50.66,31.929C56.08,44.387,44.018,59.32,48.7,72.1c4.906,13.379,24.842,15.564,29.02,29.208,2.569,8.389-2.393,17.506-9.029,22.96s-14.808,8.413-22.1,12.873-14.145,11.311-15,20.072c-.931,9.5,5.438,18.111,12.487,24.215s15.284,11.039,20.57,18.84c5.484,8.1,7.117,18.31,7.936,28.182a221.327,221.327,0,0,1,.57,27.37c-.5,12.209-1.328,26.341,7.36,34.551a42.5,42.5,0,0,0,11.133-3.142" transform="translate(11 -0.003)" fill="#a46ab9" opacity="0.49"/>
        <path id="Trazado_915079" data-name="Trazado 915079" d="M107.65,1090.33a10.944,10.944,0,0,1,4.884-4.578,12.988,12.988,0,0,0-6.813.979l1.678-4.131a6.964,6.964,0,0,0-4.339,2.979,21.582,21.582,0,0,0-5.092-8.831,16.986,16.986,0,0,1,1.526,10.137,4.449,4.449,0,0,0-4.3-.945,11.7,11.7,0,0,1,3.08,1.465,3.727,3.727,0,0,1,1.637,2.8c2.377-.032,5.361.159,7.738.127" transform="translate(-71.184 -814.738)" fill="#137368"/>
        <path id="Trazado_915080" data-name="Trazado 915080" d="M406.992,1157.043c-9.246,0-9.246-2.254-18.492-2.254s-9.246,2.254-18.492,2.254-9.246-2.254-18.491-2.254-9.245,2.254-18.491,2.254-9.245-2.254-18.49-2.254-9.245,2.254-18.491,2.254-9.245-2.254-18.491-2.254-9.245,2.254-18.49,2.254-9.245-2.254-18.49-2.254v20.548H406.992Z" transform="translate(-179.892 -873.79)" fill="#dba9ff"/>
        <path id="Trazado_915081" data-name="Trazado 915081" d="M397.487,1167.608c-9.246,0-9.246-2.254-18.492-2.254s-9.246,2.254-18.492,2.254-9.246-2.254-18.491-2.254-9.245,2.254-18.491,2.254-9.245-2.254-18.49-2.254-9.245,2.254-18.491,2.254-9.245-2.254-18.491-2.254-9.245,2.254-18.49,2.254-9.245-2.254-18.49-2.254V1185.9H397.487Z" transform="translate(-172.784 -881.784)" fill="#be4dff"/>
        <path id="Trazado_915082" data-name="Trazado 915082" d="M87.481,1129.192H47.742v26.776h53.945V1142.9a13.961,13.961,0,0,0-14.205-13.7" transform="translate(-35.7 -854.421)" fill="#137368"/>
        <path id="Trazado_915083" data-name="Trazado 915083" d="M888.7,1129.192h186.153v26.776H874.495V1142.9a13.961,13.961,0,0,1,14.205-13.7" transform="translate(-653.912 -854.421)" fill="#137368"/>
        <path id="Trazado_915084" data-name="Trazado 915084" d="M954.49,1086.105a4.618,4.618,0,0,1,.959-4.1,5.156,5.156,0,0,0-4.637,1.189l.94-3.264a5.335,5.335,0,0,0-3.044,2.137,21.737,21.737,0,0,1,.964-10.059,18.844,18.844,0,0,0-3.2,4.042c-.8,1.517-1.4,3.415-.794,5.014a4.962,4.962,0,0,0-3.886-1.883,16.641,16.641,0,0,1,3.126,3.166,5.366,5.366,0,0,1,.986,4.16,40.98,40.98,0,0,0,8.587-.4" transform="translate(-704.233 -811.151)" fill="#137368"/>
        <path id="Trazado_915085" data-name="Trazado 915085" d="M351.952,1194.853a1.559,1.559,0,1,1-1.558-1.5,1.532,1.532,0,0,1,1.558,1.5" transform="translate(-260.845 -902.967)" fill="#dba9ff"/>
        <path id="Trazado_915086" data-name="Trazado 915086" d="M628.9,1216.222a1.559,1.559,0,1,1-1.558-1.5,1.532,1.532,0,0,1,1.558,1.5" transform="translate(-467.939 -919.137)" fill="#dba9ff"/>
        <path id="Trazado_915087" data-name="Trazado 915087" d="M821.584,1216.222a1.559,1.559,0,1,1-1.558-1.5,1.532,1.532,0,0,1,1.558,1.5" transform="translate(-612.017 -919.137)" fill="#dba9ff"/>
        <path id="Trazado_915088" data-name="Trazado 915088" d="M320.691,1217.844a1.018,1.018,0,1,1-1.018-.982,1,1,0,0,1,1.018.982" transform="translate(-238.278 -920.759)" fill="#dba9ff"/>
        <path id="Trazado_915089" data-name="Trazado 915089" d="M675.452,1193.958a1.018,1.018,0,1,1-1.018-.982,1,1,0,0,1,1.018.982" transform="translate(-503.554 -902.685)" fill="#dba9ff"/>
        <path id="Trazado_915090" data-name="Trazado 915090" d="M437.009,1244.372H27.572a2.572,2.572,0,1,1,0-5.142H437.009a2.572,2.572,0,1,1,0,5.142" transform="translate(-14.138 -937.683)"/>
        <path id="Trazado_915091" data-name="Trazado 915091" d="M1109.082,55.618a2.969,2.969,0,1,1-2.967-2.862,2.916,2.916,0,0,1,2.967,2.862" transform="translate(-824.89 -39.92)" fill="#b884bf"/>
        <path id="Trazado_915092" data-name="Trazado 915092" d="M421.518,95.183a2.969,2.969,0,1,1-2.967-2.862,2.916,2.916,0,0,1,2.967,2.862" transform="translate(-310.757 -69.857)" fill="#b884bf"/>
        <path id="Trazado_915093" data-name="Trazado 915093" d="M272.411,584.272a2.969,2.969,0,1,1-2.967-2.862,2.916,2.916,0,0,1,2.967,2.862" transform="translate(-199.261 -439.934)" fill="#b884bf"/>
        <path id="Trazado_915094" data-name="Trazado 915094" d="M1033.161,408.49a2.969,2.969,0,1,1-2.967-2.862,2.916,2.916,0,0,1,2.967,2.862" transform="translate(-768.119 -306.926)" fill="#b884bf"/>
        <path id="Trazado_915095" data-name="Trazado 915095" d="M894.508,1046.732a2.969,2.969,0,1,1-2.967-2.862,2.916,2.916,0,0,1,2.967,2.862" transform="translate(-664.44 -789.861)" fill="#b884bf"/>
        <path id="Trazado_915096" data-name="Trazado 915096" d="M343.006,990.769a2.969,2.969,0,1,1-2.967-2.862,2.916,2.916,0,0,1,2.967,2.862" transform="translate(-252.049 -747.516)" fill="#b884bf"/>
        <path id="Trazado_915097" data-name="Trazado 915097" d="M1140.872,175.279a1.754,1.754,0,1,1-1.753-1.691,1.723,1.723,0,0,1,1.753,1.691" transform="translate(-850.477 -131.349)" fill="#b884bf"/>
        <path id="Trazado_915098" data-name="Trazado 915098" d="M1780.318,11.141a1.754,1.754,0,1,1-1.753-1.691,1.723,1.723,0,0,1,1.753,1.691" transform="translate(-1328.629 -7.151)" fill="#b884bf"/>
        <path id="Trazado_915099" data-name="Trazado 915099" d="M1047.308,459.179a1.754,1.754,0,1,1-1.753-1.691,1.723,1.723,0,0,1,1.753,1.691" transform="translate(-780.513 -346.166)" fill="#b884bf"/>
        <path id="Trazado_915100" data-name="Trazado 915100" d="M192.9,654.17a1.754,1.754,0,1,1-1.753-1.691,1.723,1.723,0,0,1,1.753,1.691" transform="translate(-141.618 -493.709)" fill="#b884bf"/>
        <path id="Trazado_915101" data-name="Trazado 915101" d="M84.8,18.09A1.754,1.754,0,1,1,83.048,16.4,1.723,1.723,0,0,1,84.8,18.09" transform="translate(-60.789 -12.41)" fill="#b884bf"/>
        <path id="Trazado_915102" data-name="Trazado 915102" d="M887.387,826.859a1.754,1.754,0,1,1-1.753-1.691,1.723,1.723,0,0,1,1.753,1.691" transform="translate(-660.93 -624.377)" fill="#b884bf"/>
        <path id="Trazado_915103" data-name="Trazado 915103" d="M1281.533,154.983a4.363,4.363,0,1,1-4.361-4.207,4.286,4.286,0,0,1,4.361,4.207" transform="translate(-951.758 -114.088)" fill="#b884bf"/>
        <path id="Trazado_915104" data-name="Trazado 915104" d="M499.738,39.676a4.363,4.363,0,1,1-4.36-4.207,4.286,4.286,0,0,1,4.36,4.207" transform="translate(-367.163 -26.839)" fill="#b884bf"/>
        <path id="Trazado_915105" data-name="Trazado 915105" d="M1393.2,699.488l-2.178,5.226-15.349,17.011a18.8,18.8,0,0,0,2.815.564c.478-.051,18.324-7.685,18.43-7.89s1.593-8.772,1.7-9.177-5.417-5.733-5.417-5.733" transform="translate(-1028.674 -529.279)" fill="#f90"/>
        <path id="Trazado_915106" data-name="Trazado 915106" d="M1353.273,781.883s-7.508-1.86-8.933.481-.067,4.148.732,4.423.413-1.474,1.259-1.388a20.212,20.212,0,0,0,4.316.434c1.348-.173,2.467.26,2.627-.867a18.361,18.361,0,0,0,0-3.083" transform="translate(-1004.778 -591.094)" fill="#1d1a1e"/>
        <path id="Trazado_915107" data-name="Trazado 915107" d="M1451.381,849.4l-2.967,9.888s-21.63-6.121-23.8-10.221c-1.647-3.117-4.9-13.169-4.9-13.169l-7.355,11.624.479,19.717-10.639,3.238s-5.208-20.842-4.645-26.078c.916-8.527,12.613-30.789,12.613-30.789l25.176.409,4.228,29.267Z" transform="translate(-1045.005 -615.634)" fill="#ffce00"/>
        <path id="Trazado_915108" data-name="Trazado 915108" d="M1456.141,679.1s-12.806,6.558-25.176-.409c0,0-5.815-22.267-5.636-29.37.083-3.433.58-5.976,1.927-6.916,0,0,9.222-8.358,11.76-6.942,0,0,2.374.241,5.61,5.706q.163.274.325.562c2.532,4.478,11.457,31.863,11.493,32.289.134,1.479,1.356,4.163-.3,5.08" transform="translate(-1065.8 -480.71)" fill="#ffce00"/>
        <path id="Trazado_915109" data-name="Trazado 915109" d="M1444,674.15l.637-6.387s3.575,23.556-16.394,27.4c-6.726,1.294,15.757-21.01,15.757-21.01" transform="translate(-1067.043 -505.274)" fill="#f90"/>
        <path id="Trazado_915110" data-name="Trazado 915110" d="M1399.21,713.524l14.883-13.157.425-6.353h8.71s-1.133,9.154-4.037,12.98c-1.984,2.614-11.24,7.89-17.24,11.041Z" transform="translate(-1046.273 -525.136)" fill="#ffce00"/>
        <path id="Trazado_915111" data-name="Trazado 915111" d="M1362.875,774.651a35.737,35.737,0,0,0,6.943-2.439l-4.406-6.75-4.1,5.227s-8.817-.529-7.079,5.336c0,0,.06,2.28,1.139,1.47s.959-2.89,1.918-2.63,1.259,1.3,2.937,1.243a3.631,3.631,0,0,0,2.643-1.456" transform="translate(-1012.475 -579.2)" fill="#1d1a1e"/>
        <path id="Trazado_915112" data-name="Trazado 915112" d="M1463.783,862.668l-2.646-11.836-4.693-1.844,2.588,3.382,1.673,15.159Z" transform="translate(-1089.07 -642.4)" fill="#f90"/>
        <path id="Trazado_915113" data-name="Trazado 915113" d="M1444.637,641.168c-9.434-.17-16.378,5.341-19.3,8.152.083-3.433.58-5.976,1.927-6.916,0,0,9.222-8.359,11.759-6.942,0,0,2.374.241,5.61,5.706" transform="translate(-1065.812 -480.71)" fill="#f90"/>
        <path id="Trazado_915114" data-name="Trazado 915114" d="M1420.327,580.783s.425-1.047-.731-2.621-1.6-6.03-4.354-4.724-8.774.938-8.842,3.92,2.516,5.654,4.557,5.122,7.108.2,7.448.068a16.876,16.876,0,0,0,1.921-1.765" transform="translate(-1051.648 -433.723)" fill="#1d1a1e"/>
        <path id="Trazado_915115" data-name="Trazado 915115" d="M1438.168,620.805l1.233,2.38.506.977c5.552.288,6.87-3.643,6.87-3.643l-2.515-5.47-.8.61Z" transform="translate(-1075.404 -465.386)" fill="#ff6e6e"/>
        <path id="Trazado_915116" data-name="Trazado 915116" d="M1438.168,622.7l1.233,2.38c1.313-.513,4.854-2.394,4.061-7.527Z" transform="translate(-1075.404 -467.283)" fill="#1d1a1e"/>
        <path id="Trazado_915117" data-name="Trazado 915117" d="M1414.969,597.023s3.168,9.169,6.746,9.276,5.2-6.788,5.2-6.788l-.279-.655a2.173,2.173,0,0,0-.521-2.769c-1.454-1.043-1.529,1.115-1.529,1.115l-.895.4a4.873,4.873,0,0,1-2.87-3.056s-1.864-.467-5.851,2.481" transform="translate(-1058.057 -449.85)" fill="#ff6e6e"/>
        <path id="Trazado_915118" data-name="Trazado 915118" d="M1438.167,609.628a.541.541,0,1,0,.541-.521.531.531,0,0,0-.541.521" transform="translate(-1075.403 -460.891)" fill="#1d1a1e"/>
        <path id="Trazado_915119" data-name="Trazado 915119" d="M1423.79,614.968a.541.541,0,1,0,.54-.521.531.531,0,0,0-.54.521" transform="translate(-1064.653 -464.932)" fill="#1d1a1e"/>
        <path id="Trazado_915120" data-name="Trazado 915120" d="M1431.507,616.656a9.581,9.581,0,0,0,.282-2.467c-.005-.323.515-.323.521,0a10.121,10.121,0,0,1-.3,2.6c-.078.314-.58.181-.5-.134" transform="translate(-1070.417 -464.553)" fill="#1d1a1e"/>
        <path id="Trazado_915121" data-name="Trazado 915121" d="M1421.429,608.089c-.185-.122-.26-.862.151-1.442s1.154-.779,1.339-.657-.258.52-.67,1.1-.636,1.122-.821,1" transform="translate(-1062.776 -458.507)" fill="#1d1a1e"/>
        <path id="Trazado_915122" data-name="Trazado 915122" d="M1435.6,602.84c.031-.214-.486-.766-1.207-.863s-1.374.3-1.405.513.572.166,1.294.262,1.288.3,1.318.088" transform="translate(-1071.529 -455.485)" fill="#1d1a1e"/>
        <path id="Trazado_915123" data-name="Trazado 915123" d="M1416.39,579.718a33.122,33.122,0,0,0-2.813-5.2c-2.854-4.255-6.078-6.411-9.579-6.411a8.325,8.325,0,0,0-4.407,1.276,8.609,8.609,0,0,0-3.979,5.526c-.6,2.637-.119,5.783,1.435,9.351a29.684,29.684,0,0,0,2.274,4.247l4.272,4.875s.883-2,6.442-3.509c8.266-2.25,11.815-.157,11.815-.157Zm-14.663,6.935s-6.546-9.843-1.081-13.2,10.293,8.308,10.293,8.308-1.381,2.152-9.211,4.891" transform="translate(-1043.395 -429.871)" fill="#ffce00"/>
        <path id="Trazado_915124" data-name="Trazado 915124" d="M1374.527,1031.085l13.067-.174s-1.414,13.2-1.009,16.161a53.082,53.082,0,0,1,.057,8.129l-23.614-.374.373-2.786s6.583-.147,10.835-3.658.29-17.3.29-17.3" transform="translate(-1019.218 -780.056)"/>
        <path id="Trazado_915125" data-name="Trazado 915125" d="M1596.134,967.773l3.284-11.253s10.807,5.758,13.857,6.248a58.575,58.575,0,0,1,8.075,2.322l-7.269,21.677-2.653-1.158s1.778-6.117-.46-11.065-14.833-6.77-14.833-6.77" transform="translate(-1193.525 -723.766)"/>
        <path id="Trazado_915126" data-name="Trazado 915126" d="M1445.922,811.722s19.843,2.963,25.462.46l.195,3.452s-16.9,2.642-26.078-2.415a1.951,1.951,0,0,1,.421-1.5" transform="translate(-1080.877 -614.203)" fill="#1d1a1e"/>
        <rect id="Rectángulo_404092" data-name="Rectángulo 404092" width="55.383" height="3.932" transform="translate(275.291 261.677)"/>
        <path id="Trazado_915127" data-name="Trazado 915127" d="M1251.069,1096.219a4.854,4.854,0,1,0,4.851-4.68,4.767,4.767,0,0,0-4.851,4.68" transform="translate(-935.499 -825.931)"/>
        <path id="Trazado_915128" data-name="Trazado 915128" d="M1262.649,1105.518a2.491,2.491,0,1,1,2.58-2.489,2.539,2.539,0,0,1-2.58,2.489" transform="translate(-942.229 -832.741)" fill="#fff"/>
        <path id="Trazado_915129" data-name="Trazado 915129" d="M1109.225,1096.219a4.854,4.854,0,1,0,4.851-4.68,4.768,4.768,0,0,0-4.851,4.68" transform="translate(-829.434 -825.931)"/>
        <path id="Trazado_915130" data-name="Trazado 915130" d="M1120.805,1105.518a2.491,2.491,0,1,1,2.58-2.489,2.539,2.539,0,0,1-2.58,2.489" transform="translate(-836.164 -832.741)" fill="#fff"/>
      </g>
    </g>
  </g>
</svg>
