<svg id="Grupo_1100900" data-name="Grupo 1100900" xmlns="http://www.w3.org/2000/svg" width="98.784" height="98.784" viewBox="0 0 98.784 98.784">
  <path id="Trazado_911276" data-name="Trazado 911276" d="M98.784,49.392A49.392,49.392,0,1,1,49.392,0,49.392,49.392,0,0,1,98.784,49.392" transform="translate(0 0)" fill="#ffc621"/>
  <path id="Trazado_911277" data-name="Trazado 911277" d="M68.434,22.406a46.028,46.028,0,1,0,46.028,46.028A46.029,46.029,0,0,0,68.434,22.406m0,89.465a43.436,43.436,0,1,1,43.436-43.436,43.437,43.437,0,0,1-43.436,43.436" transform="translate(-19.042 -19.042)"/>
  <path id="Trazado_915364" data-name="Trazado 915364" d="M93.251,20.312h-7V16.86h7.025A3.438,3.438,0,0,1,96.7,20.291v26.95L95.162,46.6l-.231-1.172a2.61,2.61,0,0,0-1.68-1.956Zm-38.514,0h7V16.86H54.717a3.439,3.439,0,0,0-3.432,3.432V67.6a3.439,3.439,0,0,0,3.432,3.432H76.006a2.614,2.614,0,0,1,.229-2.5l.642-.957H54.738V20.312Zm19.257.892H63.614V16.86a2,2,0,0,1,2.341-1.968l4,.7v-.555a4.037,4.037,0,0,1,8.074,0v.555l4-.7a2,2,0,0,1,2.341,1.968V21.2Zm0-5.084a1.25,1.25,0,1,0-1.25-1.25A1.252,1.252,0,0,0,73.994,16.121ZM87.741,27.4H72.616a.936.936,0,0,0,0,1.872H87.741a.936.936,0,0,0,0-1.872Zm0,5.035H72.616a.936.936,0,0,0,0,1.872H87.741a.936.936,0,0,0,0-1.872Zm18.29,26.426v3.994a.738.738,0,0,1-.6.729l-2.155.425-1.553,3.748,1.224,1.825a.738.738,0,0,1-.092.94l-2.824,2.824a.738.738,0,0,1-.94.092l-1.825-1.224-3.748,1.553-.425,2.155a.738.738,0,0,1-.729.6H88.371a.738.738,0,0,1-.729-.6l-.425-2.155-3.748-1.553-1.825,1.224a.737.737,0,0,1-.939-.092L77.881,70.52a.738.738,0,0,1-.092-.94l1.224-1.825L77.46,64.007,75.3,63.582a.738.738,0,0,1-.6-.729V58.859a.737.737,0,0,1,.6-.729l2.155-.425,1.553-3.748-1.224-1.825a.738.738,0,0,1,.092-.94L80.7,48.369a.738.738,0,0,1,.939-.092L83.469,49.5l3.748-1.553.425-2.155a.737.737,0,0,1,.729-.6h3.994a.738.738,0,0,1,.729.6l.425,2.155L97.267,49.5l1.825-1.224a.738.738,0,0,1,.94.092l2.824,2.824a.738.738,0,0,1,.092.94l-1.224,1.825,1.553,3.748,2.155.425a.738.738,0,0,1,.6.729Zm-8.193,2a7.47,7.47,0,1,0-7.47,7.47A7.47,7.47,0,0,0,97.838,60.856ZM69.032,47.714a.921.921,0,0,1-.919.919H60.579a.921.921,0,0,1-.919-.919V40.179a.921.921,0,0,1,.919-.919h7.535a.921.921,0,0,1,.919.919Zm-1.886-6.028a.936.936,0,0,0-1.323,0l-2.336,2.336-.472-.817a.934.934,0,1,0-1.616.936l1.081,1.872a.937.937,0,0,0,1.47.194l3.2-3.2a.936.936,0,0,0,0-1.323Zm1.886,11.587v7.535a.921.921,0,0,1-.919.919H60.579a.921.921,0,0,1-.919-.919V53.273a.921.921,0,0,1,.919-.919h7.535A.921.921,0,0,1,69.032,53.273Zm-1.886,1.507a.936.936,0,0,0-1.323,0l-2.336,2.336-.472-.817a.934.934,0,0,0-1.616.936l1.081,1.872a.937.937,0,0,0,1.47.194l3.2-3.2a.936.936,0,0,0,0-1.323ZM69.032,34.62a.921.921,0,0,1-.919.919H60.579a.921.921,0,0,1-.919-.919V27.085a.921.921,0,0,1,.919-.919h7.535a.921.921,0,0,1,.919.919Zm-1.886-6.028a.936.936,0,0,0-1.323,0l-2.336,2.336-.472-.817a.934.934,0,1,0-1.616.936l1.081,1.872a.937.937,0,0,0,1.47.194l3.2-3.2a.936.936,0,0,0,0-1.323Z" transform="translate(-26.61 3.377)"/>
</svg>
