<svg xmlns="http://www.w3.org/2000/svg" xmlns:xlink="http://www.w3.org/1999/xlink" width="113.114" height="75.627" viewBox="0 0 113.114 75.627">
  <defs>
    <clipPath id="clip-path">
      <rect id="Rect치ngulo_402872" data-name="Rect치ngulo 402872" width="73.624" height="73.625" transform="translate(0 0)" fill="#f56364" stroke="#707070" stroke-width="1"/>
    </clipPath>
  </defs>
  <g id="Grupo_1102648" data-name="Grupo 1102648" transform="translate(-238.178 -869.374)">
    <g id="Grupo_1101229" data-name="Grupo 1101229" transform="translate(-46.59 -4986.609)">
      <path id="Uni칩n_3" data-name="Uni칩n 3" d="M32,58.135a4.988,4.988,0,0,1-1.862-.358H17.708c-4.464,0-8.116-4.381-8.116-9.735,0-2.934-2-5.335-4.448-5.335C2.314,42.706,0,39.93,0,36.536s2.314-6.169,5.144-6.169h5.517a2.363,2.363,0,0,0,2.116-2.538,2.363,2.363,0,0,0-2.116-2.538C4.861,25.292.117,19.6.117,12.646S4.861,0,10.661,0h61.3a5,5,0,0,1,5,5V53.135a5,5,0,0,1-5,5Z" transform="translate(285.268 5872.66)" fill="#a46ab9" stroke="rgba(0,0,0,0)" stroke-miterlimit="10" stroke-width="1"/>
      <g id="Grupo_1102522" data-name="Grupo 1102522" transform="translate(308.256 5841.982)">
        <path id="Trazado_915331" data-name="Trazado 915331" d="M89.875,325.31a9.4,9.4,0,1,1,5.348-17.138,1.129,1.129,0,1,1-1.286,1.855,7.149,7.149,0,1,0,2.024,2.133,1.129,1.129,0,0,1,1.92-1.187,9.4,9.4,0,0,1-8.006,14.336Zm0-4.514a4.891,4.891,0,1,1,4.891-4.89A4.89,4.89,0,0,1,89.875,320.8Zm0-7.524a2.633,2.633,0,1,0,2.633,2.633A2.633,2.633,0,0,0,89.875,313.271Z" transform="translate(-53.065 -245.087)" fill="#f56364"/>
        <path id="Trazado_915332" data-name="Trazado 915332" d="M84.736,262.96a1.129,1.129,0,0,0-1.129,1.129v5.668a1.883,1.883,0,0,1-1.881,1.881H52.244a2.663,2.663,0,0,0-.4-.65l-1.666-2q.25-.538.455-1.095l2.59-.235a2.621,2.621,0,0,0,2.395-2.623v-4.452a2.621,2.621,0,0,0-2.395-2.623l-2.59-.236q-.2-.555-.455-1.095l1.666-2a2.621,2.621,0,0,0-.161-3.548l-3.148-3.148a2.621,2.621,0,0,0-3.548-.161l-2,1.667q-.539-.25-1.095-.456l-.236-2.59A2.621,2.621,0,0,0,39.036,244H34.583a2.62,2.62,0,0,0-2.622,2.395l-.236,2.59q-.555.2-1.095.456l-2-1.667a2.621,2.621,0,0,0-3.548.161l-3.148,3.148a2.621,2.621,0,0,0-.161,3.548l1.666,2q-.25.539-.455,1.095l-2.59.236A2.621,2.621,0,0,0,18,260.583v4.452a2.621,2.621,0,0,0,2.395,2.623l2.59.235q.2.555.455,1.095l-1.666,2a2.621,2.621,0,0,0,.161,3.548l3.148,3.148a2.621,2.621,0,0,0,3.548.161l2-1.667q.539.25,1.095.455l.236,2.59a2.621,2.621,0,0,0,2.623,2.395h4.452a2.62,2.62,0,0,0,2.622-2.395l.236-2.59q.555-.2,1.095-.455l2,1.667a2.62,2.62,0,0,0,3.548-.161l3.148-3.148a2.657,2.657,0,0,0,.472-.641H81.727a4.143,4.143,0,0,0,4.138-4.138v-5.668a1.129,1.129,0,0,0-1.129-1.129Zm-34.649,9.98-3.148,3.148a.374.374,0,0,1-.507.023l-2.565-2.137a1.129,1.129,0,0,0-1.251-.13,12.371,12.371,0,0,1-2.116.88,1.129,1.129,0,0,0-.79.976l-.3,3.321a.374.374,0,0,1-.374.342H34.583a.374.374,0,0,1-.375-.342l-.3-3.32a1.129,1.129,0,0,0-.79-.976,12.371,12.371,0,0,1-2.116-.88,1.129,1.129,0,0,0-1.251.13l-2.564,2.137a.374.374,0,0,1-.507-.023l-3.148-3.148a.374.374,0,0,1-.023-.507l2.137-2.565a1.129,1.129,0,0,0,.13-1.251,12.35,12.35,0,0,1-.88-2.116,1.129,1.129,0,0,0-.976-.79l-3.321-.3a.374.374,0,0,1-.341-.375v-4.452a.374.374,0,0,1,.342-.375l3.321-.3a1.129,1.129,0,0,0,.976-.79,12.355,12.355,0,0,1,.88-2.116,1.129,1.129,0,0,0-.13-1.251l-2.137-2.565a.374.374,0,0,1,.023-.507l3.148-3.148a.374.374,0,0,1,.507-.023l2.565,2.137a1.129,1.129,0,0,0,1.251.13,12.348,12.348,0,0,1,2.116-.88,1.129,1.129,0,0,0,.79-.976l.3-3.321a.374.374,0,0,1,.374-.342h4.452a.374.374,0,0,1,.375.342l.3,3.321a1.129,1.129,0,0,0,.79.976,12.351,12.351,0,0,1,2.116.88,1.129,1.129,0,0,0,1.251-.13l2.565-2.137a.374.374,0,0,1,.507.023l3.148,3.148a.374.374,0,0,1,.023.507l-2.137,2.565a1.129,1.129,0,0,0-.13,1.251,12.354,12.354,0,0,1,.88,2.116,1.129,1.129,0,0,0,.976.79l3.321.3a.374.374,0,0,1,.342.374v4.452a.374.374,0,0,1-.342.375l-3.321.3a1.129,1.129,0,0,0-.976.79,12.35,12.35,0,0,1-.88,2.116,1.129,1.129,0,0,0,.13,1.251l2.137,2.564a.375.375,0,0,1-.022.507Z" transform="translate(0 -191.992)" fill="#f56364"/>
        <path id="Trazado_915333" data-name="Trazado 915333" d="M264.677,131.236v2.031h-3.386a1.883,1.883,0,0,0-1.881,1.881v6.32a1.883,1.883,0,0,0,1.881,1.881h19.562a1.883,1.883,0,0,0,1.881-1.881V123.261a1.883,1.883,0,0,0-1.881-1.881h-3.762a1.883,1.883,0,0,0-1.881,1.881v2.031h-3.386a1.883,1.883,0,0,0-1.881,1.881v2.182h-3.386A1.883,1.883,0,0,0,264.677,131.236Zm0,9.856h-3.01v-5.568h3.01Zm12.791-14.672v-2.784h3.01v17.455h-3.01Zm-5.267,4.063V127.55h3.01v13.543H272.2Zm-5.267,3.912v-2.784h3.01v9.48h-3.01Z" transform="translate(-205.083 -87.824)" fill="#f56364"/>
        <circle id="Elipse_11521" data-name="Elipse 11521" cx="1.129" cy="1.129" r="1.129" transform="translate(76.048 25.324)" fill="#f56364"/>
        <circle id="Elipse_11522" data-name="Elipse 11522" cx="1.129" cy="1.129" r="1.129" transform="translate(64.161 25.324)" fill="#f56364"/>
        <circle id="Elipse_11523" data-name="Elipse 11523" cx="1.129" cy="1.129" r="1.129" transform="translate(52.273 25.324)" fill="#f56364"/>
        <circle id="Elipse_11524" data-name="Elipse 11524" cx="1.129" cy="1.129" r="1.129" transform="translate(40.385 25.324)" fill="#f56364"/>
        <path id="Trazado_915334" data-name="Trazado 915334" d="M115.534,181.3a1.129,1.129,0,0,0,1.129,1.129h16.552a1.129,1.129,0,1,0,0-2.257H116.663A1.129,1.129,0,0,0,115.534,181.3Z" transform="translate(-82.857 -137.765)" fill="#f56364"/>
        <path id="Trazado_915335" data-name="Trazado 915335" d="M157.384,214.169a1.129,1.129,0,0,0,0,2.257h5.889a1.129,1.129,0,0,0,0-2.257Z" transform="translate(-117.451 -166.65)" fill="#f56364"/>
        <path id="Trazado_915336" data-name="Trazado 915336" d="M116.663,216.426H119.3a1.129,1.129,0,0,0,0-2.257h-2.633a1.129,1.129,0,0,0,0,2.257Z" transform="translate(-82.857 -166.65)" fill="#f56364"/>
        <path id="Trazado_915337" data-name="Trazado 915337" d="M143.534,147.293a1.129,1.129,0,0,0,1.129,1.129H157a1.129,1.129,0,1,0,0-2.257H144.663a1.129,1.129,0,0,0-1.129,1.129Z" transform="translate(-106.644 -108.878)" fill="#f56364"/>
        <circle id="Elipse_11525" data-name="Elipse 11525" cx="1.129" cy="1.129" r="1.129" transform="translate(33.805 37.286)" fill="#f56364"/>
        <circle id="Elipse_11526" data-name="Elipse 11526" cx="1.129" cy="1.129" r="1.129" transform="translate(48.1 47.519)" fill="#f56364"/>
        <path id="Trazado_915338" data-name="Trazado 915338" d="M298.22,341.129A1.129,1.129,0,0,0,297.091,340H280.539a1.129,1.129,0,0,0,0,2.257h16.552a1.129,1.129,0,0,0,1.129-1.129Z" transform="translate(-222.074 -273.546)" fill="#f56364"/>
        <path id="Trazado_915339" data-name="Trazado 915339" d="M321.261,374a1.129,1.129,0,1,0,0,2.257h5.889a1.129,1.129,0,1,0,0-2.257Z" transform="translate(-256.668 -302.43)" fill="#f56364"/>
        <path id="Trazado_915340" data-name="Trazado 915340" d="M280.539,374a1.129,1.129,0,0,0,0,2.257h2.633a1.129,1.129,0,1,0,0-2.257Z" transform="translate(-222.074 -302.43)" fill="#f56364"/>
        <path id="Trazado_915341" data-name="Trazado 915341" d="M320.878,306H308.539a1.129,1.129,0,0,0,0,2.257h12.339a1.129,1.129,0,1,0,0-2.257Z" transform="translate(-245.861 -244.663)" fill="#f56364"/>
        <path id="Trazado_915342" data-name="Trazado 915342" d="M288.039,308.257a1.129,1.129,0,1,0-1.129-1.129A1.129,1.129,0,0,0,288.039,308.257Z" transform="translate(-228.445 -244.663)" fill="#f56364"/>
        <path id="Trazado_915343" data-name="Trazado 915343" d="M381.91,375.129A1.129,1.129,0,1,0,383.039,374,1.129,1.129,0,0,0,381.91,375.129Z" transform="translate(-309.15 -302.43)" fill="#f56364"/>
        <path id="Trazado_915344" data-name="Trazado 915344" d="M128.345,18a4.9,4.9,0,0,0-4.61,3.261H80.995a1.129,1.129,0,0,0-.8.331L69.664,32.125a1.129,1.129,0,0,0-.331.8V52.993a1.129,1.129,0,1,0,2.257,0V34.051h6.4a4.143,4.143,0,0,0,4.138-4.138v-6.4h41.331V61.456a1.13,1.13,0,0,0,.105.476l3.08,6.617a1.881,1.881,0,0,0,3.411,0l3.08-6.617a1.13,1.13,0,0,0,.105-.476V22.891A4.9,4.9,0,0,0,128.345,18ZM77.985,31.794h-4.8l6.68-6.68v4.8a1.883,1.883,0,0,1-1.881,1.881Zm52.993,29.412-2.633,5.658-2.633-5.658V31.543h5.267Zm0-31.92h-5.267V27.029h5.267Zm0-4.514h-5.267V22.89a2.633,2.633,0,1,1,5.267,0Z" transform="translate(-43.609)" fill="#f56364"/>
      </g>
    </g>
  </g>
</svg>
