<svg xmlns="http://www.w3.org/2000/svg" width="134.114" height="83.372" viewBox="0 0 134.114 83.372">
  <g id="Grupo_1102649" data-name="Grupo 1102649" transform="translate(-852.178 -861.314)">
    <g id="Grupo_1101230" data-name="Grupo 1101230" transform="translate(567.41 -4986.609)">
      <path id="Unión_3" data-name="Unión 3" d="M32,58.135a4.988,4.988,0,0,1-1.862-.358H17.708c-4.464,0-8.116-4.381-8.116-9.735,0-2.934-2-5.335-4.448-5.335C2.314,42.706,0,39.93,0,36.536s2.314-6.169,5.144-6.169h5.517a2.363,2.363,0,0,0,2.116-2.538,2.363,2.363,0,0,0-2.116-2.538C4.861,25.292.117,19.6.117,12.646S4.861,0,10.661,0h61.3a5,5,0,0,1,5,5V53.135a5,5,0,0,1-5,5Z" transform="translate(285.268 5872.66)" fill="#a46ab9" stroke="rgba(0,0,0,0)" stroke-miterlimit="10" stroke-width="1"/>
      <g id="Artboard441" transform="translate(330.59 5840.895)">
        <path id="Trazado_915345" data-name="Trazado 915345" d="M50.9,80.027H8.311A1.311,1.311,0,0,1,7,78.716V8.339A1.311,1.311,0,0,1,8.311,7.028h45.5a1.312,1.312,0,0,1,.927.384l8.8,8.8a1.311,1.311,0,0,1,.384.927v6.243a17.135,17.135,0,0,1,8.461,24.852l3.392,3.294a2.765,2.765,0,0,1,3,.548h0L87.461,60.5a2.753,2.753,0,0,1,.057,3.887h0L84.383,67.62h0a2.759,2.759,0,0,1-3.882.064l-.005,0-8.678-8.426a2.753,2.753,0,0,1-.646-2.983l-3.245-3.149a17.088,17.088,0,0,1-4,2.207v6.808a13.152,13.152,0,0,1,1.563-.093,12.767,12.767,0,0,1,2.127.182,1.311,1.311,0,0,1,1.087,1.4,12.963,12.963,0,0,1-4.777,9.021v6.069a1.311,1.311,0,0,1-1.311,1.311H56.78a8.273,8.273,0,0,1,5.271,6.834,1.311,1.311,0,0,1-1.3,1.451H46.929a1.311,1.311,0,0,1-1.3-1.451A8.269,8.269,0,0,1,50.9,80.027ZM61.3,22.6V18.45H53.812A1.311,1.311,0,0,1,52.5,17.139V9.65H9.622V77.4H52.533V75.52q-.3.015-.608.015a13.007,13.007,0,0,1-12.446-9.248H37.054a1.311,1.311,0,1,1,0-2.622H38.98c0-.013,0-.026,0-.04a1.311,1.311,0,0,1,1.087-1.4,12.789,12.789,0,0,1,2.138-.182,12.969,12.969,0,0,1,10.331,5.12V62.995a13.764,13.764,0,0,1-1.1-1.089l0,0q-.235-.262-.453-.531H37.054a1.311,1.311,0,0,1,0-2.622h12.3a11.515,11.515,0,0,1-1.045-5.1,17.212,17.212,0,0,1-4.588-4.461H37.054a1.311,1.311,0,0,1,0-2.622H42.2a17,17,0,0,1-.871-2.293H37.054a1.311,1.311,0,1,1,0-2.622h3.714a17.276,17.276,0,0,1-.152-2.294,17.06,17.06,0,0,1,1.613-7.265H37.054a1.311,1.311,0,1,1,0-2.622h6.7A17.21,17.21,0,0,1,45.7,27.175H37.054a1.311,1.311,0,1,1,0-2.622H49.124A17.186,17.186,0,0,1,61.3,22.6Zm-1.854-6.775L55.123,11.5v4.323Zm11.39,34.559q-.441.523-.923,1.01l2.932,2.845.952-.98ZM61.3,56.108a17.11,17.11,0,0,1-2.4.332,12.234,12.234,0,0,1-3.744,6.534v4.178A13.016,13.016,0,0,1,61.3,62.731Zm-5.087.3q-.534-.047-1.058-.127v2.6A9.326,9.326,0,0,0,56.214,56.412Zm-3.681-.739q-.784-.25-1.534-.572a9.178,9.178,0,0,0,1.534,3.969ZM61.3,74.3a12.95,12.95,0,0,1-5.549,1.24q-.3,0-.6-.015V77.4H61.3ZM57.98,72.673a10.376,10.376,0,0,0,7.924-8q-.209-.009-.418-.009a10.371,10.371,0,0,0-9.51,6.223L59.812,68.1a1.311,1.311,0,1,1,1.543,2.121Zm-16.2-7.948a10.388,10.388,0,0,0,7.92,7.949l-3.381-2.455A1.311,1.311,0,0,1,47.864,68.1l3.843,2.791a10.377,10.377,0,0,0-9.5-6.222q-.216,0-.429.009v.008l.009.043ZM82.5,65.795l3.134-3.228a.127.127,0,0,0,0-.179h0L76.952,53.96a.127.127,0,0,0-.179,0h0l-3.135,3.229,0,0a.121.121,0,0,0,0,.171l.005,0L82.321,65.8a.129.129,0,0,0,.178,0ZM57.739,24.854a14.5,14.5,0,1,0,14.5,14.5A14.5,14.5,0,0,0,57.739,24.854Zm0,1.775A12.726,12.726,0,1,1,45.013,39.355,12.726,12.726,0,0,1,57.739,26.629Zm0,2.622a10.1,10.1,0,1,0,10.1,10.1,10.1,10.1,0,0,0-10.1-10.1ZM48.588,85.69h10.5a5.64,5.64,0,0,0-10.5,0ZM18.747,21.022h9.5a2.557,2.557,0,0,1,2.551,2.55v9.5a2.557,2.557,0,0,1-2.551,2.55h-9.5a2.557,2.557,0,0,1-2.55-2.55v-9.5a2.557,2.557,0,0,1,2.55-2.55Zm.072,2.622V33h9.355V23.644ZM20.042,29a1.311,1.311,0,1,1,1.853-1.856L22.947,28.2,25,25.659a1.311,1.311,0,1,1,2.039,1.649L24.071,30.98a1.311,1.311,0,0,1-1.946.1Zm-1.294,9.114h9.5a2.557,2.557,0,0,1,2.551,2.55v9.5a2.557,2.557,0,0,1-2.551,2.55h-9.5a2.557,2.557,0,0,1-2.55-2.55v-9.5A2.557,2.557,0,0,1,18.747,38.118Zm.072,2.622V50.1h9.355V40.741ZM20.041,46.1a1.311,1.311,0,1,1,1.854-1.854L22.948,45.3,25,42.76a1.311,1.311,0,1,1,2.039,1.649l-2.969,3.672a1.311,1.311,0,0,1-1.947.1Zm-1.294,9.115h9.5A2.562,2.562,0,0,1,30.8,57.769v9.5a2.557,2.557,0,0,1-2.551,2.551h-9.5a2.557,2.557,0,0,1-2.55-2.551v-9.5a2.562,2.562,0,0,1,2.55-2.555Zm.072,2.622V67.2h9.355V57.837ZM20.042,63.2a1.311,1.311,0,0,1,1.853-1.856L22.947,62.4,25,59.856a1.311,1.311,0,0,1,2.039,1.649l-2.969,3.672a1.311,1.311,0,0,1-1.946.1Z" fill="#f56364" fill-rule="evenodd"/>
      </g>
    </g>
  </g>
</svg>
