<svg xmlns="http://www.w3.org/2000/svg" width="47.528" height="44.271" viewBox="0 0 47.528 44.271">
  <g id="residuos-toxicos" transform="translate(0.001 0.001)">
    <path id="Trazado_915529" data-name="Trazado 915529" d="M47.527,22.132a1.761,1.761,0,0,0-.569-1.3V13.1a1.45,1.45,0,0,0-.326-2.491.7.7,0,0,0-.38-.111H30.9V3.1A1.691,1.691,0,0,0,30.588.12a.7.7,0,0,0-.4-.121H9.215a.705.705,0,0,0,0,1.411H29.993l.033.009a.279.279,0,0,1,0,.544.705.705,0,0,0-.539.685V13.936a.7.7,0,0,0,.378.625.7.7,0,0,1,0,1.238.705.705,0,0,0-.378.625V27.844a.705.705,0,0,0,.378.625.7.7,0,0,1,0,1.238.7.7,0,0,0-.378.625V41.62a.705.705,0,0,0,.539.685.279.279,0,0,1,0,.544l-.033.009H1.69a.281.281,0,1,1,0-.561.705.705,0,0,0,.705-.705V30.428a.706.706,0,0,0-.5-.673.7.7,0,0,1,0-1.334.706.706,0,0,0,.5-.674V16.521a.706.706,0,0,0-.5-.674.7.7,0,0,1,0-1.334.706.706,0,0,0,.5-.674V2.676a.706.706,0,0,0-.706-.705.28.28,0,1,1,0-.561H5.527A.705.705,0,0,0,5.527,0H1.69a1.691,1.691,0,0,0-.7,3.229V13.392a2.112,2.112,0,0,0,0,3.575V27.3a2.112,2.112,0,0,0,0,3.575V41.04a1.691,1.691,0,0,0,.705,3.229H39.546a.705.705,0,1,0,0-1.411H31.627a1.711,1.711,0,0,0,.024-.281A1.685,1.685,0,0,0,30.9,41.17V33.482h2.887a.705.705,0,1,0,0-1.411H30.9V30.7a2.108,2.108,0,0,0,0-3.231V22.695H43.18a.705.705,0,0,0,0-1.411H30.9V16.8a2.108,2.108,0,0,0,0-3.231V11.907H46.079l.007,0a.039.039,0,0,1,.03.037.04.04,0,0,1-.029.038.705.705,0,0,0-.54.686v8.524a.706.706,0,0,0,.377.625.354.354,0,0,1,0,.628.705.705,0,0,0-.379.625v8.624a.7.7,0,0,0,.379.625.362.362,0,0,1,.138.128.347.347,0,0,1,.052.186.356.356,0,0,1-.191.315.705.705,0,0,0-.377.624V42.1a.705.705,0,0,0,.54.686.038.038,0,0,1,.029.037.04.04,0,0,1-.029.038l-.008,0h-2.9a.705.705,0,0,0,0,1.411h3.072a.7.7,0,0,0,.38-.111,1.448,1.448,0,0,0,.326-2.489V33.932a1.767,1.767,0,0,0,.306-2.227,1.781,1.781,0,0,0-.306-.369V23.43a1.76,1.76,0,0,0,.569-1.3Zm0,0" transform="translate(0)" fill="#f56364"/>
    <path id="Trazado_915530" data-name="Trazado 915530" d="M395.522,346.206a.705.705,0,0,0-.705-.705h-6.494a.705.705,0,1,0,0,1.411h6.494A.705.705,0,0,0,395.522,346.206Zm0,0" transform="translate(-351.636 -313.43)" fill="#f56364"/>
    <path id="Trazado_915531" data-name="Trazado 915531" d="M73.96,134.675a.705.705,0,0,0-.705-.705H68.971a9.876,9.876,0,0,0-12.022,0H52.659a.705.705,0,0,0,0,1.411h2.8a9.869,9.869,0,0,0,0,12.877h-2.8a.705.705,0,1,0,0,1.411H56.95a9.888,9.888,0,0,0,12.028,0h4.276a.705.705,0,1,0,0-1.411H70.469a9.863,9.863,0,0,0,2.08-4.028.705.705,0,1,0-1.368-.343,8.443,8.443,0,0,1-2.839,4.485.714.714,0,0,0-.116.095,8.482,8.482,0,1,1,3.166-7.515.705.705,0,0,0,1.4-.143,9.851,9.851,0,0,0-2.334-5.428h2.795A.705.705,0,0,0,73.96,134.675Zm0,0" transform="translate(-47.132 -119.684)" fill="#f56364"/>
    <path id="Trazado_915532" data-name="Trazado 915532" d="M98.136,171.749a.925.925,0,0,0-.923.959,6.8,6.8,0,0,0,3.182,5.511.926.926,0,0,0,.491.141.906.906,0,0,0,.22-.027.929.929,0,0,0,.578-.435l1.781-3.085a2.424,2.424,0,0,0,1.094,0l1.782,3.086a.923.923,0,0,0,1.29.321,6.8,6.8,0,0,0,3.183-5.512.924.924,0,0,0-.923-.959h-3.563a2.434,2.434,0,0,0-.547-.947l1.782-3.086h0a.925.925,0,0,0-.369-1.279,6.815,6.815,0,0,0-6.362,0,.925.925,0,0,0-.369,1.279l1.782,3.087a2.437,2.437,0,0,0-.546.947H98.136Zm2.592,4.985a5.391,5.391,0,0,1-2.063-3.575H101.7a2.451,2.451,0,0,0,.548.948Zm2.78-3.4a1.012,1.012,0,0,1,1.011-1.753A1.012,1.012,0,0,1,103.508,173.33Zm3.791,3.4-1.517-2.627a2.438,2.438,0,0,0,.548-.949h3.033a5.392,5.392,0,0,1-2.064,3.575Zm-3.285-9.676a5.418,5.418,0,0,1,2.064.409l-1.516,2.626a2.446,2.446,0,0,0-1.1,0l-1.516-2.626a5.422,5.422,0,0,1,2.065-.409Zm0,0" transform="translate(-88.189 -150.273)" fill="#f56364"/>
  </g>
</svg>
