<svg xmlns="http://www.w3.org/2000/svg" width="105.5" height="65.001" viewBox="0 0 105.5 65.001">
  <g id="Grupo_1102648" data-name="Grupo 1102648" transform="translate(-704.5 -1471.993)">
    <g id="Grupo_1102546" data-name="Grupo 1102546">
      <path id="Unión_2" data-name="Unión 2" d="M18043.494,11672a4.978,4.978,0,0,1-1.949-.395h-11.23c-3.93,0-7.143-4.824-7.143-10.719,0-3.231-1.76-5.873-3.916-5.873-2.486,0-4.525-3.054-4.525-6.793s2.039-6.789,4.525-6.789h4.855c1.025,0,1.865-1.257,1.865-2.8s-.84-2.791-1.865-2.791c-5.1,0-9.275-6.267-9.275-13.923s4.176-13.923,9.275-13.923h53.35a5,5,0,0,1,5,5v54a5,5,0,0,1-5,5Z" transform="translate(-17309.73 -10135.506)" fill="#7ad8ec" stroke="rgba(0,0,0,0)" stroke-miterlimit="10" stroke-width="1"/>
      <g id="Grupo_1102521" data-name="Grupo 1102521" transform="translate(715.299 1374.797)">
        <path id="Trazado_915321" data-name="Trazado 915321" d="M53.891,331.761a4.524,4.524,0,1,0,4.524,4.524A4.529,4.529,0,0,0,53.891,331.761Zm0,6.274a1.75,1.75,0,1,1,1.75-1.75A1.752,1.752,0,0,1,53.891,338.035Z" transform="translate(-40.236 -183.745)" fill="#f56364"/>
        <path id="Trazado_915322" data-name="Trazado 915322" d="M137.813,331.761a4.524,4.524,0,1,0,4.524,4.524A4.529,4.529,0,0,0,137.813,331.761Zm0,6.274a1.75,1.75,0,1,1,1.75-1.75A1.752,1.752,0,0,1,137.813,338.035Z" transform="translate(-108.635 -183.745)" fill="#f56364"/>
        <path id="Trazado_915323" data-name="Trazado 915323" d="M410.681,331.761a4.524,4.524,0,1,0,4.524,4.524A4.529,4.529,0,0,0,410.681,331.761Zm0,6.274a1.75,1.75,0,1,1,1.75-1.75A1.752,1.752,0,0,1,410.681,338.035Z" transform="translate(-331.033 -183.745)" fill="#f56364"/>
        <path id="Trazado_915324" data-name="Trazado 915324" d="M404.227,207.481a1.869,1.869,0,0,0,.333-1.829l-2.576-7.23a1.868,1.868,0,0,0-1.755-1.237H389.285a1.866,1.866,0,0,0-1.863,1.863v4.819a1.862,1.862,0,0,0,1.536,1.835l13.519,2.41A1.87,1.87,0,0,0,404.227,207.481ZM390.2,203.1v-3.145h9.389l1.834,5.146Z" transform="translate(-315.763 -74.06)" fill="#f56364"/>
        <path id="Trazado_915325" data-name="Trazado 915325" d="M391.174,255.37a1.387,1.387,0,1,0-.487,2.731l3.827.682a1.387,1.387,0,1,0,.487-2.731Z" transform="translate(-317.492 -121.466)" fill="#f56364"/>
        <path id="Trazado_915326" data-name="Trazado 915326" d="M171.209,195.8a5.322,5.322,0,1,0-5.322,5.322A5.328,5.328,0,0,0,171.209,195.8Zm-5.322,2.547a2.547,2.547,0,1,1,2.548-2.547A2.55,2.55,0,0,1,165.887,198.344Z" transform="translate(-130.866 -68.592)" fill="#f56364"/>
        <path id="Trazado_915327" data-name="Trazado 915327" d="M161.055,139.111a1.388,1.388,0,0,0-.661-.847,15.359,15.359,0,0,0-14.973,0,1.386,1.386,0,0,0-.661.849l-.071.262a1.386,1.386,0,0,0,.137,1.057l2.507,4.342a1.587,1.587,0,0,0,2.129.593,7.162,7.162,0,0,1,6.891,0,1.587,1.587,0,0,0,2.128-.592l2.507-4.343a1.386,1.386,0,0,0,.137-1.057Zm-4.424,3.322a9.938,9.938,0,0,0-7.445,0l-1.321-2.289a12.6,12.6,0,0,1,10.088,0Z" transform="translate(-117.887 -24.45)" fill="#f56364"/>
        <path id="Trazado_915328" data-name="Trazado 915328" d="M208.048,225.748a1.581,1.581,0,0,0,2.177.566,15.248,15.248,0,0,0,7.481-12.963,1.58,1.58,0,0,0-1.58-1.6h-5.011a1.587,1.587,0,0,0-1.577,1.545,7.15,7.15,0,0,1-3.451,5.971,1.57,1.57,0,0,0-.548,2.138Zm4.171-11.224h2.64a12.462,12.462,0,0,1-5.043,8.736l-1.322-2.29A9.893,9.893,0,0,0,212.218,214.523Z" transform="translate(-167.348 -85.931)" fill="#f56364"/>
        <path id="Trazado_915329" data-name="Trazado 915329" d="M107.993,211.748a1.58,1.58,0,0,0-1.58,1.6,15.249,15.249,0,0,0,7.481,12.963,1.387,1.387,0,0,0,1.065.151l.265-.07a1.388,1.388,0,0,0,.848-.648l2.508-4.344a1.569,1.569,0,0,0-.547-2.136,7.15,7.15,0,0,1-3.452-5.971A1.587,1.587,0,0,0,113,211.748Zm7.633,9.221-1.322,2.29a12.463,12.463,0,0,1-5.043-8.736h2.64A9.894,9.894,0,0,0,115.627,220.969Z" transform="translate(-86.731 -85.93)" fill="#f56364"/>
        <path id="Trazado_915330" data-name="Trazado 915330" d="M91.113,121.564a6.016,6.016,0,0,0-5.656-3.989H77.943a1.387,1.387,0,0,0,0,2.774h7.514A3.236,3.236,0,0,1,88.5,122.5l3.4,9.55a.4.4,0,0,1,.023.134v5.653H88.977a1.757,1.757,0,0,0-1.755,1.755V144.6a1.956,1.956,0,0,0-1.163,1.417,9.144,9.144,0,0,0-15.244,4.131H68.884v-29.8H71.47a1.387,1.387,0,1,0,0-2.774H68.884v-9.63a1.63,1.63,0,0,0-1.628-1.628H14.5a1.387,1.387,0,0,0,0,2.774H66.109v34.3H3.931v-34.3h4.1a1.387,1.387,0,0,0,0-2.774H2.785a1.63,1.63,0,0,0-1.628,1.628v35.782A2.373,2.373,0,0,0,0,145.764v5.791a2.375,2.375,0,0,0,2.372,2.372h2.24a9.147,9.147,0,0,0,16.8,3.452A9.147,9.147,0,0,0,38.3,153.255H40.21a3.536,3.536,0,0,0,3.088,1.817h1.329v.277a1.387,1.387,0,1,0,2.774,0v-.277h.944a1.387,1.387,0,0,0,0-2.774H47.4v-6.131h9.037V152.3h-1.62a1.387,1.387,0,0,0,0,2.774h1.62v.277a1.387,1.387,0,1,0,2.774,0v-.277h1.329a3.539,3.539,0,0,0,3.25-2.146h6.717a9.148,9.148,0,0,0,18.281,0H92.2a2.5,2.5,0,0,0,2.5-2.5v-3.471a2.486,2.486,0,0,0-.262-1.113,2.485,2.485,0,0,0,.262-1.113v-12.55a3.168,3.168,0,0,0-.184-1.064Zm.813,19.042v3.849H90v-3.849Zm-27.851,5.561H66.11v3.985H64.075ZM39.764,150.48H38.092a9.143,9.143,0,0,0-2.358-4.314h4.03Zm-17.143-4.314a9.219,9.219,0,0,0-1.2,1.535,9.219,9.219,0,0,0-1.2-1.535Zm-19.847,0H7.1a9.13,9.13,0,0,0-2.487,4.987H2.774Zm10.881,12.748a6.374,6.374,0,1,1,6.374-6.374A6.381,6.381,0,0,1,13.655,158.914Zm15.522,0a6.374,6.374,0,1,1,6.374-6.374,6.381,6.381,0,0,1-6.374,6.374ZM44.626,152.3H43.3a.76.76,0,0,1-.759-.759v-5.372h2.088V152.3Zm15.915,0H59.213v-6.131H61.3v5.372a.76.76,0,0,1-.759.759Zm19.107,6.616a6.374,6.374,0,1,1,6.374-6.374A6.381,6.381,0,0,1,79.648,158.914Zm12.278-8.763H88.8v-2.923h3.13Z" fill="#f56364"/>
      </g>
    </g>
  </g>
</svg>
