<svg xmlns="http://www.w3.org/2000/svg" width="76.41" height="76.582" viewBox="0 0 76.41 76.582">
  <g id="Grupo_1102520" data-name="Grupo 1102520" transform="translate(-8.559 -8.002)">
    <g id="Grupo_1102519" data-name="Grupo 1102519" transform="translate(9.792 9.494)">
      <g id="Grupo_1102517" data-name="Grupo 1102517" transform="translate(22.817 0)">
        <path id="Trazado_915303" data-name="Trazado 915303" d="M215.45,25.8V75.407c0,4.494-11.445,8.136-25.563,8.136s-25.563-3.643-25.563-8.136V25.8c0-4.494,11.445-8.136,25.563-8.136S215.45,21.308,215.45,25.8Z" transform="translate(-164.323 -17.665)" fill="#9facba" fill-rule="evenodd"/>
        <path id="Trazado_915304" data-name="Trazado 915304" d="M347.935,25.8V75.407c0,4.494-11.445,8.136-25.563,8.136q-.691,0-1.372-.012c13.48-.227,24.191-3.778,24.191-8.125V25.8c0-4.347-10.711-7.9-24.191-8.125q.682-.011,1.372-.012c14.118,0,25.563,3.643,25.563,8.136Z" transform="translate(-296.808 -17.665)" fill="#8d9ca8" fill-rule="evenodd"/>
        <path id="Trazado_915305" data-name="Trazado 915305" d="M215.45,150.679v6.2c0,4.494-11.445,8.136-25.563,8.136s-25.563-3.643-25.563-8.136v-6.2c0,4.494,11.445,8.136,25.563,8.136S215.45,155.173,215.45,150.679Zm0,18.6v6.2c0,4.494-11.445,8.136-25.563,8.136s-25.563-3.643-25.563-8.136v-6.2c0,4.494,11.445,8.136,25.563,8.136S215.45,173.775,215.45,169.281Z" transform="translate(-164.323 -130.142)" fill="#8d9ca8" fill-rule="evenodd"/>
        <path id="Trazado_915306" data-name="Trazado 915306" d="M480.419,169.281v6.2c0,1.321-.99,2.568-2.745,3.671v-6.2C479.429,171.849,480.419,170.6,480.419,169.281Zm0-18.6v6.2c0,1.321-.99,2.568-2.745,3.671v-6.2C479.429,153.247,480.419,152,480.419,150.679Z" transform="translate(-429.293 -130.142)" fill="#8192a5" fill-rule="evenodd"/>
        <ellipse id="Elipse_11515" data-name="Elipse 11515" cx="25.563" cy="8.136" rx="25.563" ry="8.136" transform="translate(0 0)" fill="#8d9ca8"/>
        <path id="Trazado_915307" data-name="Trazado 915307" d="M345.19,29.472c1.755-1.1,2.745-2.35,2.745-3.671,0-4.494-11.445-8.136-25.563-8.136q-.691,0-1.372.012c13.48.227,24.191,3.778,24.191,8.125v3.671Z" transform="translate(-296.808 -17.665)" fill="#8192a5" fill-rule="evenodd"/>
        <ellipse id="Elipse_11516" data-name="Elipse 11516" cx="5.784" cy="3.046" rx="5.784" ry="3.046" transform="translate(30.8 5.327)" fill="#8192a5"/>
        <path id="Trazado_915308" data-name="Trazado 915308" d="M373.242,52.164c3.195,0,5.784,1.364,5.784,3.046a2.5,2.5,0,0,1-1.439,2.01,2.016,2.016,0,0,0,.667-1.42c0-1.682-2.59-3.046-5.785-3.046a8.688,8.688,0,0,0-4.345,1.036A7.528,7.528,0,0,1,373.242,52.164Z" transform="translate(-336.657 -46.837)" fill="#65788e" fill-rule="evenodd"/>
      </g>
      <g id="Grupo_1102518" data-name="Grupo 1102518" transform="translate(0 22.471)">
        <path id="Trazado_915309" data-name="Trazado 915309" d="M24.683,163.205H74.289c4.494,0,8.136,11.445,8.136,25.563s-3.643,25.563-8.136,25.563H24.683c-4.494,0-8.136-11.445-8.136-25.563s3.643-25.563,8.136-25.563Z" transform="translate(-16.547 -163.205)" fill="#9facba" fill-rule="evenodd"/>
        <path id="Trazado_915310" data-name="Trazado 915310" d="M24.683,163.205H74.289c4.494,0,8.136,11.445,8.136,25.563q0,.691-.012,1.372c-.227-13.48-3.777-24.191-8.124-24.191H24.683c-4.347,0-7.9,10.711-8.125,24.191q-.011-.682-.012-1.372c0-14.118,3.643-25.563,8.136-25.563Z" transform="translate(-16.547 -163.205)" fill="#8d9ca8" fill-rule="evenodd"/>
        <path id="Trazado_915311" data-name="Trazado 915311" d="M149.562,163.205h6.2c4.494,0,8.136,11.445,8.136,25.563s-3.643,25.563-8.136,25.563h-6.2c4.494,0,8.136-11.445,8.136-25.563s-3.643-25.563-8.136-25.563Z" transform="translate(-129.024 -163.205)" fill="#8d9ca8" fill-rule="evenodd"/>
        <path id="Trazado_915312" data-name="Trazado 915312" d="M149.562,163.205h6.2c1.321,0,2.568.99,3.671,2.745h-6.2c-1.1-1.755-2.35-2.745-3.671-2.745Z" transform="translate(-129.024 -163.205)" fill="#8192a5" fill-rule="evenodd"/>
        <path id="Trazado_915313" data-name="Trazado 915313" d="M270.042,163.205h6.2c4.494,0,8.136,11.445,8.136,25.563s-3.643,25.563-8.136,25.563h-6.2c4.494,0,8.136-11.445,8.136-25.563s-3.643-25.563-8.136-25.563Z" transform="translate(-230.902 -163.205)" fill="#8d9ca8" fill-rule="evenodd"/>
        <path id="Trazado_915314" data-name="Trazado 915314" d="M270.042,163.205h6.2c1.321,0,2.568.99,3.671,2.745h-6.2C272.61,164.2,271.363,163.205,270.042,163.205Z" transform="translate(-230.902 -163.205)" fill="#8192a5" fill-rule="evenodd"/>
        <ellipse id="Elipse_11517" data-name="Elipse 11517" cx="8.136" cy="25.563" rx="8.136" ry="25.563" transform="translate(0 0)" fill="#8d9ca8"/>
        <path id="Trazado_915315" data-name="Trazado 915315" d="M28.354,165.95c-1.1-1.755-2.35-2.745-3.671-2.745-4.494,0-8.136,11.445-8.136,25.563q0,.691.012,1.372c.227-13.48,3.778-24.191,8.125-24.191h3.671Z" transform="translate(-16.547 -163.205)" fill="#8192a5" fill-rule="evenodd"/>
        <ellipse id="Elipse_11518" data-name="Elipse 11518" cx="3.046" cy="5.784" rx="3.046" ry="5.784" transform="translate(5.327 8.757)" fill="#8192a5"/>
        <path id="Trazado_915316" data-name="Trazado 915316" d="M51.047,225.707c0-3.195,1.364-5.784,3.046-5.784a2.5,2.5,0,0,1,2.01,1.439,2.016,2.016,0,0,0-1.42-.667c-1.682,0-3.046,2.59-3.046,5.785a8.688,8.688,0,0,0,1.036,4.345,7.528,7.528,0,0,1-1.626-5.118Z" transform="translate(-45.72 -211.166)" fill="#65788e" fill-rule="evenodd"/>
        <circle id="Elipse_11519" data-name="Elipse 11519" cx="17.153" cy="17.153" r="17.153" transform="translate(16.949 25.563) rotate(-45)" fill="#ffe177"/>
        <path id="Trazado_915317" data-name="Trazado 915317" d="M174.665,226.238a17.154,17.154,0,0,1,32,9.275,17.155,17.155,0,0,0-34.282-.025A17.072,17.072,0,0,1,174.665,226.238Z" transform="translate(-148.307 -209.251)" fill="#ffd064" fill-rule="evenodd"/>
        <path id="Trazado_915318" data-name="Trazado 915318" d="M210.992,251.538a12.915,12.915,0,0,1,11.19-6.462v25.845a12.934,12.934,0,0,1-11.191-6.461L222.181,258l11.19,6.46a12.915,12.915,0,0,0,0-12.921L222.181,258Z" transform="translate(-180.968 -232.435)" fill="#8192a5" fill-rule="evenodd"/>
        <path id="Trazado_915319" data-name="Trazado 915319" d="M210.992,251.538a12.915,12.915,0,0,1,11.19-6.462v1.257a11.659,11.659,0,0,0-10.1,5.834Zm11.19,18.126v1.257a12.934,12.934,0,0,1-11.191-6.461L222.181,258l-10.1,5.833a11.676,11.676,0,0,0,10.1,5.833Zm0-11.666,10.1-5.833a11.659,11.659,0,0,1,0,11.665l1.088.628a12.915,12.915,0,0,0,0-12.921Z" transform="translate(-180.968 -232.435)" fill="#65788e" fill-rule="evenodd"/>
        <circle id="Elipse_11520" data-name="Elipse 11520" cx="4.213" cy="4.213" r="4.213" transform="translate(35.665 27.69) rotate(-66.177)" fill="#ffe177"/>
      </g>
    </g>
    <path id="Trazado_915320" data-name="Trazado 915320" d="M18.167,51.312c-.64,0-1.81-1.726-1.81-4.549s1.17-4.548,1.81-4.548,1.81,1.726,1.81,4.548S18.806,51.312,18.167,51.312Zm4.281-4.549c0-4-1.846-7.019-4.281-7.019s-4.28,3.017-4.28,7.019,1.839,7.02,4.28,7.02S22.447,50.766,22.447,46.764ZM61.684,62.525l-5.465-3.156a5.506,5.506,0,0,0,0-3.166l5.465-3.158A11.761,11.761,0,0,1,61.684,62.525ZM51.008,60.764a2.978,2.978,0,1,1,2.972-2.978A2.982,2.982,0,0,1,51.008,60.764Zm-9.455,3.9,5.48-3.161a5.432,5.432,0,0,0,2.74,1.584v6.318a11.729,11.729,0,0,1-8.22-4.741Zm.007-13.76a11.748,11.748,0,0,1,8.212-4.742v6.317a5.422,5.422,0,0,0-2.74,1.584Zm21.708-.2a1.239,1.239,0,0,0-1.693-.453l-6.6,3.811a5.422,5.422,0,0,0-2.74-1.584V44.863a1.225,1.225,0,0,0-1.228-1.235H51a14.193,14.193,0,0,0-12.253,7.079A1.237,1.237,0,0,0,39.2,52.4L45.79,56.2a5.506,5.506,0,0,0,0,3.166L39.2,63.176a1.245,1.245,0,0,0-.458,1.687,14.182,14.182,0,0,0,12.253,7.081h.015a1.235,1.235,0,0,0,1.228-1.236V63.091a5.433,5.433,0,0,0,2.74-1.584l6.6,3.809a1.244,1.244,0,0,0,.938.124,1.214,1.214,0,0,0,.749-.576A14.206,14.206,0,0,0,63.268,50.708ZM69.191,15.8c2.827,0,4.549,1.172,4.549,1.81s-1.722,1.811-4.549,1.811-4.549-1.172-4.549-1.811S66.372,15.8,69.191,15.8Zm0,6.091c4,0,7.02-1.84,7.02-4.281s-3.016-4.28-7.02-4.28-7.02,1.841-7.02,4.28S65.194,21.89,69.191,21.89Zm3.568,13.3c-1.483-2.764-3.256-4.2-5.225-4.2H33.842V21.506a19.81,19.81,0,0,0,5.879,2.8,63.335,63.335,0,0,0,18.452,2.441A63.319,63.319,0,0,0,76.619,24.3a19.636,19.636,0,0,0,5.879-2.8v8.268C82.5,31.4,79.475,33.662,72.76,35.189Zm2.151,5.653c5.225-1.5,7.587-3.467,7.587-4.867V33.9a12.241,12.241,0,0,1-1.345.883,28.436,28.436,0,0,1-7.347,2.693q.349.873.654,1.855c.16.486.305.988.451,1.506Zm1.831,11.818a64.832,64.832,0,0,0-1.25-9.415A21.27,21.27,0,0,0,82.5,40.1v8.275C82.5,49.484,80.943,51.179,76.742,52.659Zm.153,6.147c4.1-1.465,5.6-3.105,5.6-4.229V52.49a19.245,19.245,0,0,1-5.632,2.737c.029.846.036,1.7.036,2.559C76.9,58.126,76.9,58.468,76.895,58.806ZM75.637,71.628a67.777,67.777,0,0,0,1.185-10.187A19.438,19.438,0,0,0,82.5,58.715v8.263C82.5,68.206,80.659,70.078,75.637,71.628Zm-8.1,10.485c2.878,0,6.9-9.256,6.9-24.329s-4.019-24.328-6.9-24.328H59.249c1.679,2.2,3.067,5.824,4.012,10.634a18.354,18.354,0,0,1,0,27.389c-.945,4.808-2.333,8.43-4.012,10.634h8.285Zm-14.491,0a20.883,20.883,0,0,0,3.06-6.659,18.18,18.18,0,0,0,4.121-1.765c-1.512,5.762-3.6,8.424-5.094,8.424Zm-12.384,0h8.27c1.141,0,2.892-1.637,4.4-6.086a18.46,18.46,0,0,1-2.318.147,18.276,18.276,0,0,1-7.108-1.43A21.936,21.936,0,0,1,40.659,82.114Zm-6.206,0a14.134,14.134,0,0,0,1.41-2.323A34.793,34.793,0,0,0,38.5,71.256a18.325,18.325,0,0,0,3.147,2.35c-1.526,5.866-3.641,8.507-5.116,8.507Zm-12.391,0a19.737,19.737,0,0,0,2.8-5.878A63.228,63.228,0,0,0,27.3,57.785a63.228,63.228,0,0,0-2.442-18.45,19.733,19.733,0,0,0-2.8-5.878h8.27c2,0,4.7,4.523,6.068,13.171a18.333,18.333,0,0,0,0,22.315c-1.366,8.646-4.07,13.17-6.068,13.17ZM11.03,57.785c0,15.073,4.019,24.329,6.9,24.329s6.9-9.256,6.9-24.329-4.019-24.328-6.9-24.328-6.9,9.255-6.9,24.328ZM41.648,41.963a18.524,18.524,0,0,0-3.147,2.35,34.793,34.793,0,0,0-2.638-8.532,14.142,14.142,0,0,0-1.41-2.324h2.079c1.475,0,3.59,2.642,5.116,8.506Zm11.679-2.419c-1.5-4.45-3.256-6.086-4.4-6.086h-8.27A21.941,21.941,0,0,1,43.9,40.826a18.388,18.388,0,0,1,9.426-1.282ZM51.008,73.7A15.918,15.918,0,1,0,35.085,57.785,15.938,15.938,0,0,0,51.008,73.7Zm9.215-31.822c-1.512-5.762-3.6-8.424-5.094-8.424H53.043a20.891,20.891,0,0,1,3.06,6.659A18.186,18.186,0,0,1,60.223,41.882Zm-2.05-31.41c-15.073,0-24.331,4.019-24.331,6.9s9.259,6.9,24.331,6.9S82.5,20.255,82.5,17.373,73.247,10.472,58.174,10.472Zm18.445-.029A63.266,63.266,0,0,0,58.174,8a63.286,63.286,0,0,0-18.452,2.441c-5.465,1.738-8.35,4.134-8.35,6.929V30.987H17.927c-2.791,0-5.189,2.887-6.926,8.348a63.227,63.227,0,0,0-2.442,18.45A63.228,63.228,0,0,0,11,76.236c1.737,5.461,4.135,8.348,6.926,8.348H67.534c2.8,0,5.189-2.887,6.926-8.348.189-.594.371-1.214.538-1.855,6.439-1.732,9.971-4.349,9.971-7.4V17.373c0-2.8-2.885-5.191-8.35-6.929Z" fill-rule="evenodd"/>
  </g>
</svg>
