<svg xmlns="http://www.w3.org/2000/svg" xmlns:xlink="http://www.w3.org/1999/xlink" width="295.5" height="362.882" viewBox="0 0 295.5 362.882">
  <defs>
    <clipPath id="clip-path">
      <rect id="Rectángulo_404182" data-name="Rectángulo 404182" width="295" height="244.825" fill="none"/>
    </clipPath>
    <clipPath id="clip-path-3">
      <rect id="Rectángulo_404142" data-name="Rectángulo 404142" width="17.045" height="42.151" fill="none"/>
    </clipPath>
    <clipPath id="clip-path-4">
      <rect id="Rectángulo_404143" data-name="Rectángulo 404143" width="106.672" height="163.478" fill="none"/>
    </clipPath>
    <clipPath id="clip-path-5">
      <rect id="Rectángulo_404144" data-name="Rectángulo 404144" width="114.476" height="129.516" fill="none"/>
    </clipPath>
    <clipPath id="clip-path-6">
      <rect id="Rectángulo_404145" data-name="Rectángulo 404145" width="109.717" height="137.506" fill="none"/>
    </clipPath>
    <clipPath id="clip-path-7">
      <rect id="Rectángulo_404146" data-name="Rectángulo 404146" width="218.754" height="146.209" fill="none"/>
    </clipPath>
    <clipPath id="clip-path-8">
      <rect id="Rectángulo_404147" data-name="Rectángulo 404147" width="8.492" height="11.202" fill="none"/>
    </clipPath>
    <clipPath id="clip-path-9">
      <rect id="Rectángulo_404148" data-name="Rectángulo 404148" width="109.337" height="50.164" fill="none"/>
    </clipPath>
    <clipPath id="clip-path-10">
      <rect id="Rectángulo_404149" data-name="Rectángulo 404149" width="17.28" height="47.702" fill="none"/>
    </clipPath>
    <clipPath id="clip-path-11">
      <rect id="Rectángulo_404150" data-name="Rectángulo 404150" width="64.42" height="32.497" fill="none"/>
    </clipPath>
    <clipPath id="clip-path-12">
      <rect id="Rectángulo_404151" data-name="Rectángulo 404151" width="120.959" height="9.189" fill="none"/>
    </clipPath>
    <clipPath id="clip-path-13">
      <rect id="Rectángulo_404152" data-name="Rectángulo 404152" width="62.74" height="53.103" fill="none"/>
    </clipPath>
    <clipPath id="clip-path-14">
      <rect id="Rectángulo_404153" data-name="Rectángulo 404153" width="73.549" height="54.152" fill="none"/>
    </clipPath>
    <clipPath id="clip-path-15">
      <rect id="Rectángulo_404154" data-name="Rectángulo 404154" width="32.333" height="51.821" fill="none"/>
    </clipPath>
    <clipPath id="clip-path-16">
      <rect id="Rectángulo_404155" data-name="Rectángulo 404155" width="22.452" height="49.59" fill="none"/>
    </clipPath>
    <clipPath id="clip-path-17">
      <rect id="Rectángulo_404156" data-name="Rectángulo 404156" width="17.046" height="42.151" fill="none"/>
    </clipPath>
    <clipPath id="clip-path-18">
      <rect id="Rectángulo_404157" data-name="Rectángulo 404157" width="45.796" height="9.269" fill="none"/>
    </clipPath>
    <clipPath id="clip-path-19">
      <rect id="Rectángulo_404158" data-name="Rectángulo 404158" width="125.177" height="43.446" fill="none"/>
    </clipPath>
    <clipPath id="clip-path-20">
      <rect id="Rectángulo_404159" data-name="Rectángulo 404159" width="49.387" height="21.633" fill="none"/>
    </clipPath>
    <clipPath id="clip-path-21">
      <rect id="Rectángulo_404160" data-name="Rectángulo 404160" width="49.387" height="20.936" fill="none"/>
    </clipPath>
    <clipPath id="clip-path-22">
      <rect id="Rectángulo_404162" data-name="Rectángulo 404162" width="7.941" height="18.525" fill="none"/>
    </clipPath>
    <clipPath id="clip-path-24">
      <rect id="Rectángulo_404164" data-name="Rectángulo 404164" width="19.188" height="50.614" fill="none"/>
    </clipPath>
    <clipPath id="clip-path-25">
      <rect id="Rectángulo_404165" data-name="Rectángulo 404165" width="40.633" height="22.735" fill="none"/>
    </clipPath>
    <clipPath id="clip-path-26">
      <rect id="Rectángulo_404166" data-name="Rectángulo 404166" width="6.092" height="16.405" fill="none"/>
    </clipPath>
    <clipPath id="clip-path-27">
      <rect id="Rectángulo_404167" data-name="Rectángulo 404167" width="6.518" height="1.981" fill="none"/>
    </clipPath>
    <clipPath id="clip-path-28">
      <rect id="Rectángulo_404168" data-name="Rectángulo 404168" width="6.581" height="107.751" fill="none"/>
    </clipPath>
    <clipPath id="clip-path-29">
      <rect id="Rectángulo_404169" data-name="Rectángulo 404169" width="11.451" height="38.723" fill="none"/>
    </clipPath>
    <clipPath id="clip-path-30">
      <rect id="Rectángulo_404172" data-name="Rectángulo 404172" width="13.08" height="19.731" fill="none"/>
    </clipPath>
    <clipPath id="clip-path-31">
      <rect id="Rectángulo_404174" data-name="Rectángulo 404174" width="58.997" height="53.486" fill="none"/>
    </clipPath>
    <clipPath id="clip-path-32">
      <rect id="Rectángulo_404180" data-name="Rectángulo 404180" width="3.514" height="2.23" fill="none"/>
    </clipPath>
  </defs>
  <g id="Grupo_1102644" data-name="Grupo 1102644" transform="translate(-1124.5 -1930.349)">
    <path id="Unión_8" data-name="Unión 8" d="M135.24,301.968A19.921,19.921,0,0,1,126.8,300.1H75.57c-19.05,0-34.637-22.755-34.637-50.566,0-15.242-8.542-27.712-18.983-27.712C9.878,221.827,0,207.407,0,189.781s9.878-32.044,21.951-32.044H45.5c4.966,0,9.03-5.932,9.03-13.181s-4.063-13.183-9.03-13.183c-24.747,0-45-29.559-45-65.686S20.748,0,45.5,0H265.688a20,20,0,0,1,20,20V281.968a20,20,0,0,1-20,20Z" transform="translate(1125 1930.849)" fill="#f56364" stroke="rgba(0,0,0,0)" stroke-miterlimit="10" stroke-width="1"/>
    <g id="Grupo_1102643" data-name="Grupo 1102643" transform="translate(1125 2048.405)">
      <g id="Grupo_1102642" data-name="Grupo 1102642" clip-path="url(#clip-path)">
        <g id="Grupo_1102641" data-name="Grupo 1102641">
          <g id="Grupo_1102640" data-name="Grupo 1102640" clip-path="url(#clip-path)">
            <path id="Trazado_915381" data-name="Trazado 915381" d="M136.728,243.692c.028,12.859-4.707,23.289-10.581,23.308l-20.366.038c-5.8.009-10.534-10.136-10.667-22.767-.009-.161-.009-.322-.009-.484a47.735,47.735,0,0,1,.379-6.273c1.224-9.813,5.324-17.016,10.2-17.026.152,0,.3.009.455.019l19.446-.038a3.7,3.7,0,0,1,.465-.028c4.014-.009,7.516,4.869,9.338,12.062a44.409,44.409,0,0,1,1.262,8.456c.047.892.076,1.812.076,2.733" transform="translate(-13.101 -30.368)" fill="#00393c"/>
            <g id="Grupo_1102552" data-name="Grupo 1102552" transform="translate(84.878 191.252)" style="mix-blend-mode: multiply;isolation: isolate">
              <g id="Grupo_1102551" data-name="Grupo 1102551">
                <g id="Grupo_1102550" data-name="Grupo 1102550" clip-path="url(#clip-path-3)">
                  <path id="Trazado_915382" data-name="Trazado 915382" d="M115.479,242.77c-.147-11.639-4.3-21.024-9.267-20.961-3.418.043-6.334,4.543-7.775,11.135,1.393-4.381,3.615-7.228,6.158-7.261,4.372-.055,8.022,8.2,8.152,18.442s-3.31,18.586-7.683,18.642a3.839,3.839,0,0,1-2.018-.6,5.147,5.147,0,0,0,3.7,1.793c4.97-.063,8.88-9.549,8.733-21.189" transform="translate(-98.439 -221.809)" fill="#a3d2cb"/>
                </g>
              </g>
            </g>
            <path id="Trazado_915383" data-name="Trazado 915383" d="M52.459,220.578c.155,0,.31.007.464.02l19.438-.246c.153-.016.308-.029.463-.032,5.871-.074,10.762,10.287,10.925,23.14s-4.465,23.335-10.336,23.409l-20.365.258c-5.871.074-10.762-10.286-10.925-23.14s4.465-23.335,10.336-23.409" transform="translate(-5.802 -30.351)" fill="#00393c"/>
            <path id="Trazado_915384" data-name="Trazado 915384" d="M123.812,214.283l-6.815.7-14.209,1.461-76.163,7.805L24.561,212.6l-.328-1.8-.571-3.2-.31-1.8-1.259-7.058-.319-1.8-.571-3.2-.319-1.8-1.393-7.864-.328-1.8-.562-3.207-.319-1.8L17.141,170.9l-.5-2.828-.319-1.8-.562-3.206-.328-1.8-1.518-8.561H13.9l-.31-1.8L13.02,147.7l-.319-1.788-1.335-7.537-.319-1.779-.579-3.231-.31-1.788L9,125.086l-.318-1.78-.571-3.239-.319-1.787-1.376-7.7L6.1,108.8l-.579-3.257-.319-1.78L4.913,102.1,2.521,88.653l4.851-1.729,6.58-2.333,26.278-9.342,68.552-24.372.906,9.9.814,8.846.168,1.847.3,3.273.167,1.821.9,9.752.167,1.838.3,3.214.167,1.846.9,9.794.168,1.838.3,3.214.168,1.838.9,9.794.168,1.846.3,3.206.168,1.847.9,9.794.168,1.838.3,3.214.168,1.837.9,9.8.167,1.838.3,3.206.167,1.846.723,7.915.176,1.88.168,1.847.3,3.2.168,1.855.9,9.794.168,1.838.3,3.214.168,1.838,1.78,19.412Z" transform="translate(-0.347 -7.009)" fill="#009a8e"/>
            <g id="Grupo_1102555" data-name="Grupo 1102555" transform="translate(16.793 53.762)" style="mix-blend-mode: multiply;isolation: isolate">
              <g id="Grupo_1102554" data-name="Grupo 1102554">
                <g id="Grupo_1102553" data-name="Grupo 1102553" clip-path="url(#clip-path-4)">
                  <path id="Trazado_915385" data-name="Trazado 915385" d="M19.476,172.482l1.142,6.387.316,1.794.568,3.208.324,1.793,1.4,7.866.316,1.8.567,3.2.325,1.8,1.253,7.055.317,1.8.567,3.194.324,1.8,2.071,11.648,97.184-9.967-1.926-20.933-.167-1.84-.3-3.217-.167-1.839-.9-9.8-.168-1.847-.3-3.2-.167-1.847-.9-9.8-.167-1.839-.3-3.21-.167-1.839-.9-9.8-.167-1.839-.3-3.21-.168-1.839-.9-9.8-.167-1.847-.3-3.2-.168-1.847-.9-9.8-.167-1.839-.3-3.21-.167-1.839-.9-9.8-.168-1.847-.3-3.21-.167-1.839-.9-9.753-.166-1.825-.3-3.267-.168-1.855-.816-8.843Z" transform="translate(-19.476 -62.351)" fill="#a3d2cb"/>
                </g>
              </g>
            </g>
            <g id="Grupo_1102558" data-name="Grupo 1102558" transform="translate(2.174 79.915)" opacity="0.5" style="mix-blend-mode: soft-light;isolation: isolate">
              <g id="Grupo_1102557" data-name="Grupo 1102557">
                <g id="Grupo_1102556" data-name="Grupo 1102556" clip-path="url(#clip-path-5)">
                  <path id="Trazado_915386" data-name="Trazado 915386" d="M117,220.739,102.788,222.2C76.427,191.356,34.321,142.125,4.913,107.857L2.521,94.412l4.851-1.729c11.28,13.135,25.992,30.3,43.843,51.137,27.419,32.026,55.048,64.364,65.782,76.919" transform="translate(-2.521 -92.683)" fill="#fff"/>
                </g>
              </g>
            </g>
            <g id="Grupo_1102561" data-name="Grupo 1102561" transform="translate(13.605 68.241)" opacity="0.5" style="mix-blend-mode: soft-light;isolation: isolate">
              <g id="Grupo_1102560" data-name="Grupo 1102560">
                <g id="Grupo_1102559" data-name="Grupo 1102559" clip-path="url(#clip-path-6)">
                  <path id="Trazado_915387" data-name="Trazado 915387" d="M125.5,216.65C89.743,174.8,43.944,121.267,15.778,88.485l26.278-9.341c10.415,12.127,23.222,27.083,38.262,44.641,14.461,16.895,28.98,33.873,41.049,47.989l.176,1.881.168,1.846.3,3.2.167,1.855.9,9.794.167,1.838.3,3.214.167,1.837Z" transform="translate(-15.778 -79.144)" fill="#fff"/>
                </g>
              </g>
            </g>
            <path id="Trazado_915388" data-name="Trazado 915388" d="M27.312,239.865l1.906,10.257L127.283,239.8l-.945-10.684Z" transform="translate(-3.762 -31.563)" fill="#ac1925"/>
            <path id="Trazado_915389" data-name="Trazado 915389" d="M241.467,47.351l-.186,16.7-.026,1.854-.034,3.233-.025,1.846-.11,9.836-.016,1.854-.034,3.216-.025,1.862-.11,9.836-.017,1.845-.042,3.234-.025,1.845-.11,9.845-.016,1.854-.042,3.225-.017,1.846-.118,9.844-.017,1.846-.034,3.225-.017,1.854-.11,9.836-.025,1.854-.042,3.225-.017,1.855-.11,9.836-.026,1.855-.042,3.216-.017,1.854-.11,9.845-.026,1.845-.025,3.226-.026,1.854-.211,18.826-98.864,6.612-1.931-20.926-.169-1.846-.3-3.216-.169-1.837-.9-9.794-.17-1.845-.3-3.208-.17-1.845-.905-9.794-.161-1.837-.3-3.217-.17-1.837-.9-9.8-.17-1.837-.3-3.208-.17-1.846-.9-9.793-.17-1.846-.3-3.208-.161-1.845-.905-9.794-.169-1.837-.3-3.208-.169-1.845-.9-9.794-.169-1.845-.305-3.208-.16-1.845-.9-9.752-.169-1.82-.305-3.267-.169-1.854L125.758,50.4Z" transform="translate(-17.324 -6.523)" fill="#009a8e"/>
            <g id="Grupo_1102564" data-name="Grupo 1102564" transform="translate(5.176 59.383)" style="mix-blend-mode: multiply;isolation: isolate">
              <g id="Grupo_1102563" data-name="Grupo 1102563">
                <g id="Grupo_1102562" data-name="Grupo 1102562" clip-path="url(#clip-path-7)">
                  <path id="Trazado_915390" data-name="Trazado 915390" d="M224.758,68.871l-.034,3.233-.026,1.846L111.783,78.987l-.16.051L6.9,113.067l-.322-1.786L6,108.022,110.539,74.06l.33-.1.279-.008Z" transform="translate(-6.003 -68.871)" fill="#a3d2cb"/>
                  <path id="Trazado_915391" data-name="Trazado 915391" d="M9,125.226l.577,3.244.316,1.781L113.166,98.386l.4-.016L224.927,93.4l.02-1.858.034-3.215L113.1,93.313l-.8.033Z" transform="translate(-6.416 -71.551)" fill="#a3d2cb"/>
                  <path id="Trazado_915392" data-name="Trazado 915392" d="M11.742,141.209l.576,3.229.316,1.781L114.5,117.775l.976-.044,109.635-4.891.021-1.851.041-3.23L115.01,112.682l-1.31.056-.285.075Z" transform="translate(-6.794 -74.228)" fill="#a3d2cb"/>
                  <path id="Trazado_915393" data-name="Trazado 915393" d="M14.7,158.222l.568,3.208.317,1.8h.007l100.29-26.059,1.541-.07,107.905-4.816.022-1.844.04-3.23-108.434,4.841-1.83.08Z" transform="translate(-7.201 -76.908)" fill="#a3d2cb"/>
                  <path id="Trazado_915394" data-name="Trazado 915394" d="M17.868,176.266l.567,3.208.317,1.794,98.55-24.708,2.09-.095,106.185-4.729.02-1.858.034-3.222-106.7,4.76-2.366.1Z" transform="translate(-7.638 -79.587)" fill="#a3d2cb"/>
                  <path id="Trazado_915395" data-name="Trazado 915395" d="M21.167,194.957l.568,3.208.324,1.794,96.683-24,2.64-.121,104.456-4.655.02-1.851.041-3.23-104.983,4.687-2.9.129-.251.058Z" transform="translate(-8.092 -82.265)" fill="#a3d2cb"/>
                  <path id="Trazado_915396" data-name="Trazado 915396" d="M24.189,212.3l.567,3.2.325,1.8,95.05-21.954,3.2-.139,102.726-4.583.02-1.857.041-3.216L122.869,190.16l-3.421.152-.229.05Z" transform="translate(-8.509 -84.945)" fill="#a3d2cb"/>
                  <path id="Trazado_915397" data-name="Trazado 915397" d="M27.045,228.836l.567,3.194.324,1.8,93.552-19.087,3.777-.166,101-4.509.021-1.85.033-3.23L124.8,209.522l-3.935.175-.193.041Z" transform="translate(-8.902 -87.623)" fill="#a3d2cb"/>
                </g>
              </g>
            </g>
            <path id="Trazado_915398" data-name="Trazado 915398" d="M224.733,66.721l-.026,1.854-.034,3.233L111.623,76.846l-.22.076L6.529,110.985l-.575-3.259L5.64,105.94,110.379,71.919l.33-.11.22-.008Z" transform="translate(-0.777 -9.191)" fill="#65bab4"/>
            <path id="Trazado_915399" data-name="Trazado 915399" d="M8.632,123.142l.316,1.787.577,3.244,103.48-31.934.341-.013L224.9,91.242l.034-3.214.021-1.858L112.879,91.177l-.745.029Z" transform="translate(-1.189 -11.871)" fill="#65bab4"/>
            <path id="Trazado_915400" data-name="Trazado 915400" d="M11.374,139.12l.317,1.794.576,3.23,102.074-28.507.918-.04,109.823-4.9.04-3.23.022-1.843-110.35,4.927-1.252.053-.285.075Z" transform="translate(-1.567 -14.55)" fill="#65bab4"/>
            <path id="Trazado_915401" data-name="Trazado 915401" d="M14.331,156.139l.316,1.787.568,3.208,100.5-26.108,1.483-.066L225.3,130.147l.04-3.23.021-1.85-108.622,4.845-1.773.077Z" transform="translate(-1.974 -17.229)" fill="#65bab4"/>
            <path id="Trazado_915402" data-name="Trazado 915402" d="M17.492,174.177l.324,1.794.568,3.208,98.757-24.756,2.032-.091,106.372-4.747.034-3.222.021-1.851-106.894,4.772-2.307.1Z" transform="translate(-2.41 -19.908)" fill="#65bab4"/>
            <path id="Trazado_915403" data-name="Trazado 915403" d="M20.8,192.867l.317,1.794.567,3.208,96.9-24.05,2.582-.117,104.643-4.667.041-3.23.02-1.85-105.171,4.7-2.843.125-.25.059Z" transform="translate(-2.865 -22.586)" fill="#65bab4"/>
            <path id="Trazado_915404" data-name="Trazado 915404" d="M23.821,210.209,24.138,212l.567,3.2,95.265-22,3.147-.143,102.914-4.593.041-3.215.021-1.858L122.65,188.016l-3.364.149-.228.057Z" transform="translate(-3.282 -25.265)" fill="#65bab4"/>
            <path id="Trazado_915405" data-name="Trazado 915405" d="M26.677,226.74l.317,1.8.567,3.195,93.768-19.129,3.718-.163,101.193-4.52.033-3.229.021-1.844L124.58,207.388l-3.878.172-.193.041Z" transform="translate(-3.675 -27.945)" fill="#65bab4"/>
            <path id="Trazado_915406" data-name="Trazado 915406" d="M161.912,226.844l.683,11.487L143.1,239.49l-.945-10.684Z" transform="translate(-19.584 -31.25)" fill="#ac1925"/>
            <g id="Grupo_1102567" data-name="Grupo 1102567" transform="translate(125.944 196.838)" style="mix-blend-mode: multiply;isolation: isolate">
              <g id="Grupo_1102566" data-name="Grupo 1102566">
                <g id="Grupo_1102565" data-name="Grupo 1102565" clip-path="url(#clip-path-8)">
                  <path id="Trazado_915407" data-name="Trazado 915407" d="M146.066,228.67l.921,10.819,7.571-.357-3.422-10.845Z" transform="translate(-146.066 -228.287)" fill="#df9093"/>
                </g>
              </g>
            </g>
            <path id="Trazado_915408" data-name="Trazado 915408" d="M226.02,45.36l-.373,12.868-116.309,1.78L2.707,96.9,0,85.49,108.229,46.739Z" transform="translate(0 -6.249)" fill="#ac1925"/>
            <g id="Grupo_1102570" data-name="Grupo 1102570" transform="translate(0 40.49)" style="mix-blend-mode: multiply;isolation: isolate">
              <g id="Grupo_1102569" data-name="Grupo 1102569">
                <g id="Grupo_1102568" data-name="Grupo 1102568" clip-path="url(#clip-path-9)">
                  <path id="Trazado_915409" data-name="Trazado 915409" d="M108.229,46.959l1.108,13.269L2.707,97.123,0,85.71Z" transform="translate(0 -46.959)" fill="#df9093"/>
                </g>
              </g>
            </g>
            <path id="Trazado_915410" data-name="Trazado 915410" d="M77.076,243.6l-9.1.957-13-28.682,10.5-.451c5.112.938,11.968,13.814,11.6,28.176" transform="translate(-7.574 -29.677)" fill="#00575a"/>
            <path id="Trazado_915411" data-name="Trazado 915411" d="M66.166,244.767s.8-28.767-13.063-28.82C38.432,215.89,41.678,247.2,41.678,247.2Z" transform="translate(-5.699 -29.749)" fill="#00393c"/>
            <path id="Trazado_915412" data-name="Trazado 915412" d="M42.772,242.913c-.009,13.342,4.7,24.162,10.525,24.167s10.55-10.808,10.56-24.15-4.7-24.162-10.525-24.167-10.55,10.808-10.56,24.15" transform="translate(-5.892 -30.137)" fill="#00393c"/>
            <path id="Trazado_915413" data-name="Trazado 915413" d="M44.831,243.341c-.009,11.867,3.91,21.49,8.752,21.494s8.774-9.613,8.783-21.48-3.91-21.49-8.752-21.494-8.774,9.613-8.783,21.48" transform="translate(-6.176 -30.563)" fill="#65bab4"/>
            <path id="Trazado_915414" data-name="Trazado 915414" d="M49.631,244.521c-.005,7.8,2.062,14.125,4.618,14.127s4.634-6.319,4.64-14.12S56.826,230.4,54.269,230.4s-4.634,6.32-4.638,14.12" transform="translate(-6.837 -31.74)" fill="#00393c"/>
            <path id="Trazado_915415" data-name="Trazado 915415" d="M49.995,244.6c-.005,7.521,1.922,13.62,4.305,13.622s4.319-6.094,4.324-13.615-1.922-13.62-4.305-13.622S50,237.08,49.995,244.6" transform="translate(-6.887 -31.821)" fill="#00575a"/>
            <path id="Trazado_915416" data-name="Trazado 915416" d="M54.738,240.175c-.917,0-1.662,2.549-1.664,5.7s.739,5.7,1.656,5.7,1.662-2.55,1.665-5.7-.74-5.7-1.656-5.7m-.008,10.8c-.733,0-1.326-2.288-1.324-5.11s.6-5.108,1.331-5.107,1.326,2.288,1.324,5.11-.6,5.108-1.331,5.107" transform="translate(-7.311 -33.086)" fill="#00393c"/>
            <path id="Trazado_915417" data-name="Trazado 915417" d="M53.766,246.127c0,2.258.473,4.089,1.06,4.089s1.064-1.829,1.066-4.087-.473-4.089-1.06-4.09-1.064,1.83-1.066,4.088" transform="translate(-7.407 -33.343)" fill="#00393c"/>
            <path id="Trazado_915418" data-name="Trazado 915418" d="M54.268,234.968c0,1.1.281,1.989.629,1.989s.631-.89.632-1.988-.281-1.989-.629-1.989-.63.89-.631,1.988" transform="translate(-7.476 -32.095)" fill="#00393c"/>
            <path id="Trazado_915419" data-name="Trazado 915419" d="M54.352,257.864c0,.973.248,1.762.557,1.762s.558-.788.559-1.761-.248-1.762-.556-1.762-.559.788-.56,1.761" transform="translate(-7.488 -35.281)" fill="#00393c"/>
            <path id="Trazado_915420" data-name="Trazado 915420" d="M57.984,246.5c0,.956.244,1.731.548,1.731s.548-.774.549-1.731-.244-1.731-.548-1.731-.548.774-.549,1.731" transform="translate(-7.988 -33.72)" fill="#00393c"/>
            <path id="Trazado_915421" data-name="Trazado 915421" d="M50.711,246.5c0,.958.245,1.736.548,1.736s.55-.777.551-1.735-.245-1.736-.548-1.736-.55.777-.551,1.735" transform="translate(-6.986 -33.719)" fill="#00393c"/>
            <g id="Grupo_1102573" data-name="Grupo 1102573" transform="translate(36.879 188.626)" style="mix-blend-mode: multiply;isolation: isolate">
              <g id="Grupo_1102572" data-name="Grupo 1102572">
                <g id="Grupo_1102571" data-name="Grupo 1102571" clip-path="url(#clip-path-10)">
                  <path id="Trazado_915422" data-name="Trazado 915422" d="M47.136,247.854c.009-13.342,4.737-24.155,10.56-24.15a5.048,5.048,0,0,1,2.356.616c-1.823-3.468-4.164-5.555-6.719-5.556-5.823-.005-10.55,10.807-10.56,24.15-.009,11.486,3.483,21.095,8.17,23.552-2.33-4.434-3.811-11.125-3.806-18.611" transform="translate(-42.772 -218.763)" fill="#a3d2cb"/>
                </g>
              </g>
            </g>
            <path id="Trazado_915423" data-name="Trazado 915423" d="M172.986,67.077l-15.037,2.7,2.232,29.6,23.917-1.55-1.147-8.684Z" transform="translate(-21.759 -9.24)" fill="#780b15"/>
            <path id="Trazado_915424" data-name="Trazado 915424" d="M283.07,100.986l-41.818-1.371-8.363-.272-6.425-.211-20.333-.66-19.63-.643-1.143-8.685-9.972-22.068,1.448.042,20.24.576,6.407.178,8.339.237,55.023,1.566L280.378,91.8Z" transform="translate(-24.161 -9.24)" fill="#ac1925"/>
            <g id="Grupo_1102576" data-name="Grupo 1102576" transform="translate(152.672 57.877)" opacity="0.5" style="mix-blend-mode: soft-light;isolation: isolate">
              <g id="Grupo_1102575" data-name="Grupo 1102575">
                <g id="Grupo_1102574" data-name="Grupo 1102574" clip-path="url(#clip-path-11)">
                  <path id="Trazado_915425" data-name="Trazado 915425" d="M245.741,99.741l-8.364-.271L207.97,68l8.338.237Z" transform="translate(-181.322 -67.244)" fill="#fff"/>
                  <path id="Trazado_915426" data-name="Trazado 915426" d="M226.695,99.139l-20.333-.66-29.3-31.354L197.3,67.7Z" transform="translate(-177.064 -67.124)" fill="#fff"/>
                </g>
              </g>
            </g>
            <g id="Grupo_1102579" data-name="Grupo 1102579" transform="translate(137.953 82.561)" style="mix-blend-mode: multiply;isolation: isolate">
              <g id="Grupo_1102578" data-name="Grupo 1102578">
                <g id="Grupo_1102577" data-name="Grupo 1102577" clip-path="url(#clip-path-12)">
                  <path id="Trazado_915427" data-name="Trazado 915427" d="M278.254,95.752l-94.524,1.1-23.736.255.469,6.221,120.489,1.612Z" transform="translate(-159.994 -95.752)" fill="#df9093"/>
                </g>
              </g>
            </g>
            <path id="Trazado_915428" data-name="Trazado 915428" d="M171.143,215.342c.172,0,.341.013.51.028l21.408.016c.17-.016.34-.028.51-.028,6.466.005,11.7,11.486,11.689,25.642S200,266.63,193.534,266.625l-22.429-.017c-6.466,0-11.7-11.485-11.689-25.641s5.261-25.63,11.726-25.625" transform="translate(-21.961 -29.665)" fill="#00393c"/>
            <path id="Trazado_915429" data-name="Trazado 915429" d="M148.271,223.136l-.835-119.971,31.613-4.228,109.361,3.821,25.72,60.425-5.962,63.031-113.5,3.613Z" transform="translate(-20.311 -13.63)" fill="#e03247"/>
            <path id="Trazado_915430" data-name="Trazado 915430" d="M179.05,98.937l18,64.435.2,66.81-48.974-7.045-.835-119.971Z" transform="translate(-20.311 -13.63)" fill="#ac1925"/>
            <path id="Trazado_915431" data-name="Trazado 915431" d="M184.829,243.928s.285-30.443-13.156-30.73-13.185,26.932-13.185,26.932Z" transform="translate(-21.833 -29.37)" fill="#780b15"/>
            <path id="Trazado_915432" data-name="Trazado 915432" d="M195.659,104.242l93.875,3.206a2.86,2.86,0,0,1,2.552,1.779l19.647,48.147a2.862,2.862,0,0,1-2.651,3.943l-99.478-.074a2.861,2.861,0,0,1-2.757-2.106L192.8,107.857a2.861,2.861,0,0,1,2.857-3.615" transform="translate(-26.546 -14.36)" fill="#00393c"/>
            <path id="Trazado_915433" data-name="Trazado 915433" d="M194.427,107.706l1.38,5.033,12.665,46.245a1.426,1.426,0,0,0,1.368,1.043l99.472.074a1.415,1.415,0,0,0,1.311-1.954L290.98,110a1.434,1.434,0,0,0-1.267-.877L243.9,107.562l-16.847-.578-5.669-.192-25.542-.873a1.436,1.436,0,0,0-1.174.557,1.415,1.415,0,0,0-.24,1.23" transform="translate(-26.777 -14.591)" fill="#65bab4"/>
            <g id="Grupo_1102582" data-name="Grupo 1102582" transform="translate(200.274 92.393)" opacity="0.5" style="mix-blend-mode: soft-light;isolation: isolate">
              <g id="Grupo_1102581" data-name="Grupo 1102581">
                <g id="Grupo_1102580" data-name="Grupo 1102580" clip-path="url(#clip-path-13)">
                  <path id="Trazado_915434" data-name="Trazado 915434" d="M232.272,107.155l46.377,53.09,16.363.013-45.893-52.526Z" transform="translate(-232.272 -107.155)" fill="#fff"/>
                </g>
              </g>
            </g>
            <g id="Grupo_1102585" data-name="Grupo 1102585" transform="translate(167.6 91.328)" opacity="0.5" style="mix-blend-mode: soft-light;isolation: isolate">
              <g id="Grupo_1102584" data-name="Grupo 1102584">
                <g id="Grupo_1102583" data-name="Grupo 1102583" clip-path="url(#clip-path-14)">
                  <path id="Trazado_915435" data-name="Trazado 915435" d="M194.427,107.706l1.38,5.033,41.335,47.309,30.785.023-46.544-53.279-25.542-.873a1.436,1.436,0,0,0-1.174.557,1.415,1.415,0,0,0-.24,1.23" transform="translate(-194.377 -105.919)" fill="#fff"/>
                </g>
              </g>
            </g>
            <path id="Trazado_915436" data-name="Trazado 915436" d="M178.652,108.24l13.191,49.941a3.131,3.131,0,0,1-3.03,3.931l-33.911-.025a3.132,3.132,0,0,1-3.128-3.022l-1.647-47.221a3.133,3.133,0,0,1,2.756-3.219l22.367-2.694a3.132,3.132,0,0,1,3.4,2.309" transform="translate(-20.681 -14.59)" fill="#00393c"/>
            <path id="Trazado_915437" data-name="Trazado 915437" d="M151.842,112.027l.425,12.185,1.227,35.036a1.642,1.642,0,0,0,1.642,1.594l33.913.025a1.645,1.645,0,0,0,1.311-.643,1.621,1.621,0,0,0,.283-1.426l-13.19-49.945a1.649,1.649,0,0,0-1.585-1.224,1.856,1.856,0,0,0-.2.014l-11.644,1.4-9.036,1.086-1.687.2a1.655,1.655,0,0,0-1.456,1.693" transform="translate(-20.918 -14.827)" fill="#65bab4"/>
            <g id="Grupo_1102588" data-name="Grupo 1102588" transform="translate(134.068 94.219)" opacity="0.5" style="mix-blend-mode: soft-light;isolation: isolate">
              <g id="Grupo_1102587" data-name="Grupo 1102587">
                <g id="Grupo_1102586" data-name="Grupo 1102586" clip-path="url(#clip-path-15)">
                  <path id="Trazado_915438" data-name="Trazado 915438" d="M155.488,110.359l22.8,50.727,9.529.007-23.3-51.821Z" transform="translate(-155.488 -109.272)" fill="#fff"/>
                </g>
              </g>
            </g>
            <g id="Grupo_1102591" data-name="Grupo 1102591" transform="translate(130.924 96.44)" opacity="0.5" style="mix-blend-mode: soft-light;isolation: isolate">
              <g id="Grupo_1102590" data-name="Grupo 1102590">
                <g id="Grupo_1102589" data-name="Grupo 1102589" clip-path="url(#clip-path-16)">
                  <path id="Trazado_915439" data-name="Trazado 915439" d="M151.842,112.608l.425,12.185,16.473,36.64,5.554,0L152,111.848a1.654,1.654,0,0,0-.16.76" transform="translate(-151.842 -111.848)" fill="#fff"/>
                </g>
              </g>
            </g>
            <path id="Trazado_915440" data-name="Trazado 915440" d="M321.889,241.09c0,.423-.009.847-.017,1.261a52.3,52.3,0,0,1-.753,7.881c-1.693,9.642-5.968,16.482-10.954,16.482l-22.433-.017c-5-.009-9.269-6.882-10.937-16.558a51.43,51.43,0,0,1-.72-7.17c-.025-.627-.034-1.27-.034-1.913.009-14.162,5.266-25.633,11.733-25.633a5,5,0,0,1,.508.035l21.409.016c.169-.016.339-.034.508-.034,6.468.009,11.7,11.487,11.69,25.649" transform="translate(-38.027 -29.677)" fill="#00393c"/>
            <g id="Grupo_1102594" data-name="Grupo 1102594" transform="translate(244.564 190.317)" style="mix-blend-mode: multiply;isolation: isolate">
              <g id="Grupo_1102593" data-name="Grupo 1102593">
                <g id="Grupo_1102592" data-name="Grupo 1102592" clip-path="url(#clip-path-17)">
                  <path id="Trazado_915441" data-name="Trazado 915441" d="M300.679,241.686c-.147-11.639-4.3-21.024-9.267-20.961-3.418.043-6.334,4.543-7.775,11.135,1.393-4.381,3.615-7.228,6.158-7.261,4.372-.055,8.022,8.2,8.152,18.442s-3.31,18.586-7.683,18.642a3.834,3.834,0,0,1-2.018-.6,5.147,5.147,0,0,0,3.7,1.793c4.97-.063,8.88-9.549,8.733-21.189" transform="translate(-283.638 -220.724)" fill="#a3d2cb"/>
                </g>
              </g>
            </g>
            <g id="Grupo_1102597" data-name="Grupo 1102597" transform="translate(238.049 212.675)" style="mix-blend-mode: multiply;isolation: isolate">
              <g id="Grupo_1102596" data-name="Grupo 1102596">
                <g id="Grupo_1102595" data-name="Grupo 1102595" clip-path="url(#clip-path-18)">
                  <path id="Trazado_915442" data-name="Trazado 915442" d="M321.878,246.654a52.3,52.3,0,0,1-.754,7.881l-22.39,1.388L276.8,254.442a51.412,51.412,0,0,1-.72-7.17Z" transform="translate(-276.082 -246.654)" fill="#a3d2cb"/>
                </g>
              </g>
            </g>
            <path id="Trazado_915443" data-name="Trazado 915443" d="M215.671,237.549l-1.332-31.179,109.4.081-.668,29.484-7.4,11.64-107.032,2.292Z" transform="translate(-28.742 -28.429)" fill="#00575a"/>
            <path id="Trazado_915444" data-name="Trazado 915444" d="M212.73,206.264l-14.264-.658-1.51,41.591,10.073,2.565,7.033-12.319Z" transform="translate(-27.133 -28.324)" fill="#00393c"/>
            <g id="Grupo_1102600" data-name="Grupo 1102600" transform="translate(169.823 177.992)" style="mix-blend-mode: multiply;isolation: isolate">
              <g id="Grupo_1102599" data-name="Grupo 1102599">
                <g id="Grupo_1102598" data-name="Grupo 1102598" clip-path="url(#clip-path-19)">
                  <path id="Trazado_915445" data-name="Trazado 915445" d="M283.337,206.43l-69.805,18.711-16.1,9.127-.473,13.043,10.073,2.564,107.032-2.293,7.4-11.64.669-29.483Z" transform="translate(-196.956 -206.43)" fill="#a3d2cb"/>
                </g>
              </g>
            </g>
            <path id="Trazado_915446" data-name="Trazado 915446" d="M304.39,210.465l-2.613,25.176-49.356.795-2.188-26.011Z" transform="translate(-34.472 -28.988)" fill="#00393c"/>
            <path id="Trazado_915447" data-name="Trazado 915447" d="M306.391,210.467l-2.613,25.176-49.356.795-2.188-26.011Z" transform="translate(-34.748 -28.988)" fill="#00575a"/>
            <g id="Grupo_1102603" data-name="Grupo 1102603" transform="translate(219.848 183.612)" style="mix-blend-mode: multiply;isolation: isolate">
              <g id="Grupo_1102602" data-name="Grupo 1102602">
                <g id="Grupo_1102601" data-name="Grupo 1102601" clip-path="url(#clip-path-20)">
                  <path id="Trazado_915448" data-name="Trazado 915448" d="M302.194,233.849l2.166-20.865-49.387-.037,1.819,21.633Z" transform="translate(-254.973 -212.948)" fill="#a3d2cb"/>
                </g>
              </g>
            </g>
            <g id="Grupo_1102606" data-name="Grupo 1102606" transform="translate(219.848 183.612)" style="mix-blend-mode: multiply;isolation: isolate">
              <g id="Grupo_1102605" data-name="Grupo 1102605">
                <g id="Grupo_1102604" data-name="Grupo 1102604" clip-path="url(#clip-path-21)">
                  <path id="Trazado_915449" data-name="Trazado 915449" d="M301.993,215.189l-46.835-.034-.185-2.206,49.387.037-2.166,20.865-2.141.034Z" transform="translate(-254.973 -212.948)" fill="#a3d2cb"/>
                </g>
              </g>
            </g>
            <rect id="Rectángulo_404161" data-name="Rectángulo 404161" width="76.203" height="23.025" transform="translate(202.552 150.838)" fill="#780b15"/>
            <path id="Trazado_915450" data-name="Trazado 915450" d="M310.25,186.484c0-6.319,3.606-11.282,8.253-11.5v-.021l3,0v.566c3.441,1.487,5.867,5.771,5.863,10.962s-2.436,9.47-5.88,10.953v.565l-3,0v-.021c-4.647-.221-8.24-5.191-8.236-11.508" transform="translate(-42.74 -24.103)" fill="#780b15"/>
            <path id="Trazado_915451" data-name="Trazado 915451" d="M321.916,198.015c4.8,0,8.562-5.055,8.567-11.516s-3.752-11.526-8.55-11.529-8.563,5.055-8.567,11.516,3.751,11.526,8.55,11.529" transform="translate(-43.169 -24.104)" fill="#ac1925"/>
            <path id="Trazado_915452" data-name="Trazado 915452" d="M315.8,186.849c0,5.116,2.883,9.265,6.449,9.267s6.459-4.142,6.462-9.258-2.883-9.265-6.449-9.267-6.459,4.142-6.462,9.258" transform="translate(-43.505 -24.465)" fill="#a3d2cb"/>
            <g id="Grupo_1102609" data-name="Grupo 1102609" transform="translate(277.27 153.126)" style="mix-blend-mode: multiply;isolation: isolate">
              <g id="Grupo_1102608" data-name="Grupo 1102608">
                <g id="Grupo_1102607" data-name="Grupo 1102607" clip-path="url(#clip-path-22)">
                  <path id="Trazado_915453" data-name="Trazado 915453" d="M326.553,186.857c0-4.384-2.119-8.05-4.97-9.012a4.589,4.589,0,0,1,1.479-.253c3.565,0,6.453,4.152,6.449,9.267s-2.9,9.26-6.462,9.257a4.614,4.614,0,0,1-1.479-.254c2.852-.959,4.98-4.621,4.984-9.005" transform="translate(-321.569 -177.591)" fill="#a3d2cb"/>
                </g>
              </g>
            </g>
            <path id="Trazado_915454" data-name="Trazado 915454" d="M225.352,186.421c.005-6.318,3.606-11.282,8.253-11.5V174.9l3,0v.566c3.441,1.487,5.867,5.771,5.863,10.962s-2.436,9.47-5.88,10.953v.565l-3,0v-.021c-4.647-.221-8.24-5.19-8.236-11.508" transform="translate(-31.044 -24.095)" fill="#780b15"/>
            <path id="Trazado_915455" data-name="Trazado 915455" d="M237.018,197.952c4.8,0,8.562-5.055,8.567-11.516s-3.752-11.526-8.55-11.529-8.563,5.055-8.567,11.516,3.751,11.526,8.55,11.529" transform="translate(-31.474 -24.095)" fill="#ac1925"/>
            <path id="Trazado_915456" data-name="Trazado 915456" d="M230.907,186.786c0,5.116,2.883,9.265,6.449,9.267s6.459-4.142,6.462-9.258-2.883-9.265-6.449-9.267-6.459,4.142-6.462,9.258" transform="translate(-31.81 -24.456)" fill="#a3d2cb"/>
            <g id="Grupo_1102612" data-name="Grupo 1102612" transform="translate(204.067 153.072)" style="mix-blend-mode: multiply;isolation: isolate">
              <g id="Grupo_1102611" data-name="Grupo 1102611">
                <g id="Grupo_1102610" data-name="Grupo 1102610" clip-path="url(#clip-path-22)">
                  <path id="Trazado_915457" data-name="Trazado 915457" d="M241.655,186.793c0-4.384-2.119-8.05-4.97-9.012a4.588,4.588,0,0,1,1.479-.253c3.565,0,6.453,4.152,6.449,9.267s-2.9,9.26-6.462,9.257a4.613,4.613,0,0,1-1.479-.254c2.852-.959,4.98-4.621,4.984-9.005" transform="translate(-236.671 -177.528)" fill="#a3d2cb"/>
                </g>
              </g>
            </g>
            <path id="Trazado_915458" data-name="Trazado 915458" d="M159.417,240.966c-.01,14.157,5.223,25.637,11.689,25.642s11.716-11.468,11.726-25.625-5.223-25.637-11.689-25.642-11.716,11.468-11.726,25.625" transform="translate(-21.961 -29.665)" fill="#00393c"/>
            <path id="Trazado_915459" data-name="Trazado 915459" d="M161.7,241.421c-.009,12.591,4.342,22.8,9.718,22.806s9.743-10.2,9.753-22.792-4.341-22.8-9.718-22.806-9.743,10.2-9.753,22.792" transform="translate(-22.276 -30.118)" fill="#65bab4"/>
            <path id="Trazado_915460" data-name="Trazado 915460" d="M166.942,242.656c-.006,8.333,2.325,15.09,5.208,15.092s5.224-6.751,5.23-15.084-2.325-15.09-5.208-15.092-5.224,6.751-5.23,15.084" transform="translate(-22.998 -31.35)" fill="#00393c"/>
            <path id="Trazado_915461" data-name="Trazado 915461" d="M167.438,242.758c-.006,7.98,2.134,14.451,4.78,14.453s4.8-6.465,4.8-14.446-2.134-14.451-4.78-14.453-4.8,6.466-4.8,14.446" transform="translate(-23.066 -31.452)" fill="#00575a"/>
            <path id="Trazado_915462" data-name="Trazado 915462" d="M172.7,238.061c-1.018,0-1.846,2.7-1.849,6.043s.821,6.045,1.839,6.045,1.846-2.7,1.849-6.043-.821-6.044-1.839-6.045m-.009,11.464c-.814,0-1.473-2.428-1.47-5.422s.664-5.42,1.478-5.419,1.473,2.428,1.471,5.422-.665,5.42-1.479,5.419" transform="translate(-23.537 -32.795)" fill="#00393c"/>
            <path id="Trazado_915463" data-name="Trazado 915463" d="M171.626,244.377c0,2.4.525,4.339,1.177,4.339s1.181-1.941,1.183-4.337-.525-4.338-1.177-4.339-1.181,1.941-1.183,4.337" transform="translate(-23.643 -33.068)" fill="#00393c"/>
            <path id="Trazado_915464" data-name="Trazado 915464" d="M172.277,232.575c0,1.031.276,1.868.617,1.868s.62-.835.621-1.867-.276-1.868-.617-1.868-.62.836-.621,1.867" transform="translate(-23.733 -31.782)" fill="#00393c"/>
            <path id="Trazado_915465" data-name="Trazado 915465" d="M172.3,256.841c0,1,.266,1.8.6,1.8s.6-.806.6-1.8-.266-1.8-.6-1.8-.6.806-.6,1.8" transform="translate(-23.736 -35.134)" fill="#00393c"/>
            <path id="Trazado_915466" data-name="Trazado 915466" d="M176.336,244.787c0,.977.261,1.77.585,1.77s.587-.792.588-1.769-.261-1.769-.585-1.77-.587.792-.588,1.769" transform="translate(-24.292 -33.478)" fill="#00393c"/>
            <path id="Trazado_915467" data-name="Trazado 915467" d="M168.259,244.786c0,.98.262,1.775.587,1.775s.589-.794.59-1.774-.262-1.775-.587-1.775-.589.794-.59,1.774" transform="translate(-23.179 -33.477)" fill="#00393c"/>
            <g id="Grupo_1102615" data-name="Grupo 1102615" transform="translate(137.456 185.676)" style="mix-blend-mode: multiply;isolation: isolate">
              <g id="Grupo_1102614" data-name="Grupo 1102614">
                <g id="Grupo_1102613" data-name="Grupo 1102613" clip-path="url(#clip-path-24)">
                  <path id="Trazado_915468" data-name="Trazado 915468" d="M164.263,246.209c.01-14.157,5.261-25.629,11.726-25.624a5.8,5.8,0,0,1,2.616.652c-2.024-3.679-4.624-5.893-7.462-5.9-6.466-.005-11.716,11.468-11.726,25.625-.009,12.186,3.869,22.382,9.072,24.989-2.588-4.7-4.233-11.8-4.227-19.746" transform="translate(-159.417 -215.342)" fill="#a3d2cb"/>
                </g>
              </g>
            </g>
            <path id="Trazado_915469" data-name="Trazado 915469" d="M130.308,93.819a3.743,3.743,0,0,1-.39,1.85,4.965,4.965,0,0,1-1.3,1.637,3.4,3.4,0,0,1-2.719.658,3.355,3.355,0,0,1-2.239-1.649,4.891,4.891,0,0,1-8.19,3.521,1.2,1.2,0,0,1-1.983.5,6.012,6.012,0,0,1-11.52,3.064,1.98,1.98,0,0,1-1.983.635,2.432,2.432,0,0,1-1.838-1.4,6.055,6.055,0,0,1-5.95-10.094,4.5,4.5,0,0,1-2.5-3.053,8.271,8.271,0,0,1-.011-5.114v-.011c.045-.156.1-.311.156-.467a8.311,8.311,0,0,1,3.7-4.2,1.59,1.59,0,0,1,.212-2.028,1.824,1.824,0,0,1,2.139-.523,7.1,7.1,0,0,1,2.418-6.8,9.853,9.853,0,0,1,7.075-2.128,8.559,8.559,0,0,1,3.688,1.069,5.155,5.155,0,0,1,2.384,2.942,1.943,1.943,0,0,1,2.63,1.381,7.514,7.514,0,0,1,9.4,8.523,2.013,2.013,0,0,1,1.827.914,3.108,3.108,0,0,1,.468,1.972,9.038,9.038,0,0,1-.446,2.006,2.6,2.6,0,0,1,2.9.813,2.56,2.56,0,0,1-.055,2.986,3.712,3.712,0,0,1,2.128,3" transform="translate(-12.3 -9.393)" fill="#fff"/>
            <g id="Grupo_1102618" data-name="Grupo 1102618" transform="translate(76.986 74.977)" style="mix-blend-mode: multiply;isolation: isolate">
              <g id="Grupo_1102617" data-name="Grupo 1102617">
                <g id="Grupo_1102616" data-name="Grupo 1102616" clip-path="url(#clip-path-25)">
                  <path id="Trazado_915470" data-name="Trazado 915470" d="M129.918,98.254a4.954,4.954,0,0,1-1.3,1.637,3.4,3.4,0,0,1-2.719.658,3.356,3.356,0,0,1-2.239-1.649,4.891,4.891,0,0,1-8.19,3.521,1.2,1.2,0,0,1-1.983.5,6.012,6.012,0,0,1-11.52,3.064,1.981,1.981,0,0,1-1.983.635,2.433,2.433,0,0,1-1.838-1.4,6.055,6.055,0,0,1-5.949-10.094,4.5,4.5,0,0,1-2.5-3.053,8.271,8.271,0,0,1-.011-5.114A5.645,5.645,0,0,0,90.554,90a5.848,5.848,0,0,0,6.585,2.284,2.607,2.607,0,0,0-1.125,2.162c.089.847,1.125,1.549,1.827,1.08a4.675,4.675,0,1,0,8.779,3.031,1.175,1.175,0,0,0,1.17.735,1.16,1.16,0,0,0,1.025-.914,4.445,4.445,0,0,0,7.3-3.32,2.533,2.533,0,0,0,2.529.022,2.484,2.484,0,0,0,1.181-2.228,3.6,3.6,0,0,0,5.849,1.248,3.709,3.709,0,0,0,1.259,3.365,3.765,3.765,0,0,0,2.986.791" transform="translate(-89.286 -86.956)" fill="#dbeeed"/>
                </g>
              </g>
            </g>
            <path id="Trazado_915471" data-name="Trazado 915471" d="M83.92,77.3a4.368,4.368,0,0,0-2.018-.2A2.569,2.569,0,0,0,80.2,78.131a1.839,1.839,0,0,0-.111,1.934,1.094,1.094,0,0,0-1.164.536,1.429,1.429,0,0,0,.032,1.248,1.885,1.885,0,0,0,3.356.089,1.553,1.553,0,0,0,1.318.33A2.552,2.552,0,0,0,83.92,77.3" transform="translate(-10.854 -10.616)" fill="#fff"/>
            <path id="Trazado_915472" data-name="Trazado 915472" d="M81.458,91.531a5.192,5.192,0,0,1-1.549,3.1,4.147,4.147,0,0,1-3.076.814,5.418,5.418,0,0,1-6.919,3.944,4.21,4.21,0,0,1-1.85-1.136,2.791,2.791,0,0,1-.713-2.028,1.526,1.526,0,0,1-1.4-.134,1.471,1.471,0,0,1-.724-1.159,4.064,4.064,0,0,1-3.332-1.872,3.676,3.676,0,0,1-.044-3.777A3.23,3.23,0,0,1,63.375,88a3.082,3.082,0,0,1,1.894-.223,5,5,0,0,1,9.526.279c0-.345,2.25-.512,2.484-.523a4.531,4.531,0,0,1,2.218.457h.011a3.7,3.7,0,0,1,.568.345,3.291,3.291,0,0,1,1.381,3.2" transform="translate(-8.451 -11.63)" fill="#fff"/>
            <path id="Trazado_915473" data-name="Trazado 915473" d="M81.458,92.1a5.192,5.192,0,0,1-1.549,3.1,4.147,4.147,0,0,1-3.076.814,5.418,5.418,0,0,1-6.919,3.944,4.21,4.21,0,0,1-1.85-1.136,2.791,2.791,0,0,1-.713-2.028,1.526,1.526,0,0,1-1.4-.134,1.471,1.471,0,0,1-.724-1.159,4.064,4.064,0,0,1-3.332-1.872,3.676,3.676,0,0,1-.044-3.777,3.23,3.23,0,0,1,1.526-1.281,2.221,2.221,0,0,0,2.674,3.5.881.881,0,0,0,1.616.647,2.247,2.247,0,0,0,.713,1.7,3.256,3.256,0,0,0,1.693.813A4.17,4.17,0,0,0,73,94.641a4.114,4.114,0,0,0,1.749-2.407.592.592,0,0,0,.312.657.6.6,0,0,0,.713-.178,1.65,1.65,0,0,0,1.693.557,2.6,2.6,0,0,0,1.5-1.07,4.007,4.007,0,0,0,.535-3.643,3.7,3.7,0,0,1,.568.345,3.291,3.291,0,0,1,1.381,3.2" transform="translate(-8.451 -12.2)" fill="#dbeeed"/>
            <path id="Trazado_915474" data-name="Trazado 915474" d="M144.629,113.991c-.009,1.142-.017,1.879-.017,1.879h-6.484s0-.609-.016-1.54c-.035-3.082-.153-9.743-.483-10.15a29.475,29.475,0,0,0-3.648-2.369,15.4,15.4,0,0,1-.009-2.345,8.124,8.124,0,0,1,1.32-4.291s6.561,2.657,8.5,5.333c.838,1.16.872,9.642.838,13.485" transform="translate(-18.45 -13.111)" fill="#00575a"/>
            <g id="Grupo_1102621" data-name="Grupo 1102621" transform="translate(115.482 86.353)" style="mix-blend-mode: multiply;isolation: isolate">
              <g id="Grupo_1102620" data-name="Grupo 1102620">
                <g id="Grupo_1102619" data-name="Grupo 1102619" clip-path="url(#clip-path-26)">
                  <path id="Trazado_915475" data-name="Trazado 915475" d="M140.024,116.555h-1.9s-.068-11.157-.5-11.69a29.5,29.5,0,0,0-3.649-2.37,15.394,15.394,0,0,1-.009-2.344c1.82,1.007,5.63,3.115,5.791,3.631.186.618.254,11.115.262,12.774" transform="translate(-133.932 -100.15)" fill="#a3d2cb"/>
                </g>
              </g>
            </g>
            <g id="Grupo_1102624" data-name="Grupo 1102624" transform="translate(119.661 100.778)" style="mix-blend-mode: multiply;isolation: isolate">
              <g id="Grupo_1102623" data-name="Grupo 1102623">
                <g id="Grupo_1102622" data-name="Grupo 1102622" clip-path="url(#clip-path-27)">
                  <path id="Trazado_915476" data-name="Trazado 915476" d="M145.3,116.981c-.009,1.142-.017,1.879-.017,1.879H138.8s0-.609-.016-1.54l2.285-.441Z" transform="translate(-138.779 -116.879)" fill="#a3d2cb"/>
                </g>
              </g>
            </g>
            <path id="Trazado_915477" data-name="Trazado 915477" d="M149.043,225.905l-5.59.071-2.748-1.274-3.832-105.714,3.929-.762,6.95.168Z" transform="translate(-18.856 -16.287)" fill="#00575a"/>
            <g id="Grupo_1102627" data-name="Grupo 1102627" transform="translate(118.017 101.938)" style="mix-blend-mode: multiply;isolation: isolate">
              <g id="Grupo_1102626" data-name="Grupo 1102626">
                <g id="Grupo_1102625" data-name="Grupo 1102625" clip-path="url(#clip-path-28)">
                  <path id="Trazado_915478" data-name="Trazado 915478" d="M140.8,118.225l2.651,107.751-2.748-1.274-3.832-105.714Z" transform="translate(-136.873 -118.225)" fill="#a3d2cb"/>
                </g>
              </g>
            </g>
            <path id="Trazado_915479" data-name="Trazado 915479" d="M175.577,117.081l-.729-3.271a.474.474,0,0,1,.462-.578h9.2l.283.949H175.9l.6,2.693Z" transform="translate(-24.085 -15.599)" fill="#00393c"/>
            <path id="Trazado_915480" data-name="Trazado 915480" d="M185.419,162.341a.472.472,0,0,1-.463-.372l-.667-3,.927-.206.578,2.6,10.862-.322.283.941-11.489.354h-.03" transform="translate(-25.388 -21.871)" fill="#00393c"/>
            <path id="Trazado_915481" data-name="Trazado 915481" d="M166.988,116.384l3.17-.648,8.593.293a1.241,1.241,0,0,1,1.156.917l9.439,34.887a1.688,1.688,0,0,1-1.538,2.125l-9.368.5-4.7-.756Z" transform="translate(-23.004 -15.944)" fill="#00393c"/>
            <g id="Grupo_1102630" data-name="Grupo 1102630" transform="translate(143.984 99.792)" style="mix-blend-mode: multiply;isolation: isolate">
              <g id="Grupo_1102629" data-name="Grupo 1102629">
                <g id="Grupo_1102628" data-name="Grupo 1102628" clip-path="url(#clip-path-29)">
                  <path id="Trazado_915482" data-name="Trazado 915482" d="M170.158,115.736l8.282,38.723-4.7-.756-6.754-37.319Z" transform="translate(-166.988 -115.736)" fill="#a3d2cb"/>
                </g>
              </g>
            </g>
            <path id="Trazado_915483" data-name="Trazado 915483" d="M274.9,147.783l-.1-.166-2.452-.642.2-.966-29.6-7.673-.888,3.675,29.811,7.279.285-1.384,2.031.532,10.192,16.9.812-.489Z" transform="translate(-33.346 -19.057)" fill="#00393c"/>
            <path id="Trazado_915484" data-name="Trazado 915484" d="M71.749,276.781c0,1.9-14.012,3.446-31.3,3.446s-31.3-1.543-31.3-3.446,14.012-3.446,31.3-3.446,31.3,1.543,31.3,3.446" transform="translate(-1.261 -37.655)" fill="#a3a3a3"/>
            <path id="Trazado_915485" data-name="Trazado 915485" d="M37.531,281.315c0,1.1-7.613,1.99-17,1.99s-17-.891-17-1.99,7.613-1.991,17-1.991,17,.892,17,1.991" transform="translate(-0.485 -38.48)" fill="#a3a3a3"/>
            <path id="Trazado_915486" data-name="Trazado 915486" d="M74.036,30.077s7.519,25.134,6.25,27.643c-2.365,4.675-11.35,12.866-11.35,12.866l-6.043-4.824,9.6-10.566L70.552,31.627Z" transform="translate(-8.664 -4.143)" fill="#f9ab78"/>
            <path id="Trazado_915487" data-name="Trazado 915487" d="M62.153,67.387c-6.184,5.422-13.994,13.7-15.048,14.874-3.923,4.358,5.571,7.839,8.405,5.35,1.471-1.29,6.809-6.5,13.412-12.509Z" transform="translate(-6.36 -9.283)" fill="#e13505"/>
            <path id="Trazado_915488" data-name="Trazado 915488" d="M75.779,21.986c.476,2.323-.963,6.878-.963,6.878l-3.483,1.551s-2.377-3.633-2.76-5.489c-.258-1.258,6.73-5.263,7.207-2.94" transform="translate(-9.446 -2.931)" fill="#f9ab78"/>
            <rect id="Rectángulo_404170" data-name="Rectángulo 404170" width="60.38" height="26.702" transform="matrix(0.276, -0.961, 0.961, 0.276, 51.677, 71.635)" fill="#ce6a2b"/>
            <g id="Grupo_1102633" data-name="Grupo 1102633" transform="translate(71.337 15.898)" style="mix-blend-mode: multiply;isolation: isolate">
              <g id="Grupo_1102632" data-name="Grupo 1102632">
                <g id="Grupo_1102631" data-name="Grupo 1102631" clip-path="url(#clip-path-30)">
                  <rect id="Rectángulo_404171" data-name="Rectángulo 404171" width="18.114" height="8.405" transform="translate(0.001 17.41) rotate(-73.971)" fill="#e8d6c7"/>
                </g>
              </g>
            </g>
            <rect id="Rectángulo_404173" data-name="Rectángulo 404173" width="60.38" height="49.254" transform="translate(4.338 58.031) rotate(-73.966)" fill="#f7933e"/>
            <g id="Grupo_1102636" data-name="Grupo 1102636" transform="translate(6.846 2.809)" opacity="0.5" style="mix-blend-mode: soft-light;isolation: isolate">
              <g id="Grupo_1102635" data-name="Grupo 1102635">
                <g id="Grupo_1102634" data-name="Grupo 1102634" clip-path="url(#clip-path-31)">
                  <path id="Trazado_915489" data-name="Trazado 915489" d="M7.94,56.744,23.307,3.258,66.937,15.794Z" transform="translate(-7.94 -3.258)" fill="#fdd3bc"/>
                </g>
              </g>
            </g>
            <rect id="Rectángulo_404175" data-name="Rectángulo 404175" width="17.442" height="8.117" transform="translate(72.467 32.934) rotate(-73.974)" fill="#e8e8e8"/>
            <rect id="Rectángulo_404176" data-name="Rectángulo 404176" width="2.864" height="18.18" transform="matrix(0.276, -0.961, 0.961, 0.276, 35.202, 50.305)" fill="#5d3314"/>
            <rect id="Rectángulo_404177" data-name="Rectángulo 404177" width="2.862" height="12.305" transform="translate(39.347 57.156) rotate(-73.968)" fill="#5d3314"/>
            <rect id="Rectángulo_404178" data-name="Rectángulo 404178" width="4.43" height="4.352" transform="matrix(0.276, -0.961, 0.961, 0.276, 44.709, 65.093)" fill="none" stroke="#5d3314" stroke-linecap="round" stroke-linejoin="round" stroke-width="0.975"/>
            <rect id="Rectángulo_404179" data-name="Rectángulo 404179" width="4.43" height="4.346" transform="translate(38.281 63.248) rotate(-73.97)" fill="none" stroke="#5d3314" stroke-linecap="round" stroke-linejoin="round" stroke-width="0.975"/>
            <path id="Trazado_915490" data-name="Trazado 915490" d="M60.056,39.8s2.877-1.973,4.378-3.211c4.359-2.826,10.4-1.662,10.4-1.662s.089,1.781-4.553,4.106c-4.341,2.175-10.221.767-10.221.767" transform="translate(-8.273 -4.779)" fill="#7c0f09"/>
            <path id="Trazado_915491" data-name="Trazado 915491" d="M46.77,267.217c-.279,3.387-.821,6.977,2.68,7.862,2.037.516,12.734.974,16.446.36,2.658-.438,5.9-.881,6.043-2.087s-1.143-3.567-2.7-3.5c-3.909.174-7.813.047-11.525-3.565-1.287-1.253-11.488-.151-10.943.93" transform="translate(-6.414 -36.607)" fill="#0e0000"/>
            <path id="Trazado_915492" data-name="Trazado 915492" d="M54.865,154.971s-23.819-26.944-28.05-9.833c-3.2,12.956,13.528,22.485,13.528,22.485l5.388,34.622-4.422,47.645,13.628-1,4.489-47.916Z" transform="translate(-3.638 -19.21)" fill="#6a1313"/>
            <path id="Trazado_915493" data-name="Trazado 915493" d="M9.78,265.679c-1.045,3.236-2.945,7.769.262,9.429,1.868.966,11.714,4.3,15.475,4.248,1.863-.026,6.406.34,6.813-.8s-.3-3.734-1.831-4.025c-3.844-.722-7.618-1.734-10.41-6.1-.966-1.509-10.6-3.926-10.311-2.749" transform="translate(-1.138 -36.557)" fill="#240c00"/>
            <path id="Trazado_915494" data-name="Trazado 915494" d="M44.048,172.191s10.375-9.954,8.655-23.719c-1.158-9.263-27.691-8.29-29.449-.333S25.943,172.4,25.943,172.4l.107,35.628L8,248.663l14.029,2.964L40.38,210.358Z" transform="translate(-1.102 -19.541)" fill="#a30c14"/>
            <path id="Trazado_915495" data-name="Trazado 915495" d="M50.973,87.445c-3.583,0-13.416-8.538-13.416-8.538s1.93-6-1.576-11.206c-.356-.534,2.134-.407,5.082.1.228.05.482.077.71.126h.051c1.2.229,2.439.509,3.557.839h.052c2.49.686,4.4,1.576,4.015,2.415-.1.253-.228.508-.329.736a.186.186,0,0,0-.052.1c-1.244,2.719-2.363,4.954-1.321,6.2a2.689,2.689,0,0,0,1.093.687c1.219.228,5.718,8.538,2.134,8.538" transform="translate(-4.952 -9.279)" fill="#f9ab78"/>
            <path id="Trazado_915496" data-name="Trazado 915496" d="M50.215,71.253c-.1.253-.2.483-.279.736a.189.189,0,0,0-.052.1c-1.244,2.719-2.363,4.954-1.321,6.2a12.086,12.086,0,0,1-5.031-4.064,11.192,11.192,0,0,1-1.651-6.353c.228.051.482.077.71.127h.051c1.22.229,2.439.534,3.557.838h.052c2.465.713,4.347,1.576,3.964,2.415" transform="translate(-5.77 -9.35)" fill="#da895f"/>
            <path id="Trazado_915497" data-name="Trazado 915497" d="M25.543,139.724l29.449.333s-1.251-16.834-.476-29.2c0-29.337-7.239-30.1-7.239-30.1S46.813,82.807,43,82.807c-5.082,0-7.007-2.055-7.007-2.055a32.2,32.2,0,0,0-8.235,4.313c-5.4,4.227-2.217,54.659-2.217,54.659" transform="translate(-3.39 -11.124)" fill="#e44200"/>
            <path id="Trazado_915498" data-name="Trazado 915498" d="M54.61,113.971c0-4.066-.143-7.565-.383-10.608H40.5V136.4H25.3c.185,3.921,0,8.885,0,8.885l29.791-.943s-1.25-18-.476-30.366" transform="translate(-3.485 -14.239)" fill="#a30c14"/>
            <path id="Trazado_915499" data-name="Trazado 915499" d="M59.291,53.183C58.724,66.5,53.452,69.022,47.368,69.022c-5.417,0-14.54-2.607-14.54-16.954,0-14.721-3.012-25.64,11.1-25.64,18.147,0,15.985,12.047,15.361,26.755" transform="translate(-4.485 -3.641)" fill="#f9ab78"/>
            <path id="Trazado_915500" data-name="Trazado 915500" d="M54.748,63.461a4.565,4.565,0,0,1-4.029,2.727c-2.281.16-3.611-2.8-3.611-2.8Z" transform="translate(-6.49 -8.732)" fill="#fff"/>
            <path id="Trazado_915501" data-name="Trazado 915501" d="M54.748,63.461c-.464,1.122-1.273,3.759-4.16,3.591-2.269-.13-3.218-2.512-3.48-3.665A4.179,4.179,0,0,0,50.929,66.2c2.244.034,3.819-2.735,3.819-2.735" transform="translate(-6.49 -8.732)" fill="#da895f"/>
            <g id="Grupo_1102639" data-name="Grupo 1102639" transform="translate(42.137 48.427)" style="mix-blend-mode: multiply;isolation: isolate">
              <g id="Grupo_1102638" data-name="Grupo 1102638">
                <g id="Grupo_1102637" data-name="Grupo 1102637" clip-path="url(#clip-path-32)">
                  <path id="Trazado_915502" data-name="Trazado 915502" d="M52.384,57.64c0,.275-.732.754-2.051.754s-1.462-2.23-1.462-2.23a1.42,1.42,0,0,0,1.462,1.23c1.319,0,2.051-.031,2.051.246" transform="translate(-48.87 -56.164)" fill="#cebdbc"/>
                </g>
              </g>
            </g>
            <path id="Trazado_915503" data-name="Trazado 915503" d="M60.749,50.968a1.279,1.279,0,1,1-1.278-1.306,1.294,1.294,0,0,1,1.278,1.306" transform="translate(-8.016 -6.841)" fill="#181014"/>
            <path id="Trazado_915504" data-name="Trazado 915504" d="M60.367,50.535a.478.478,0,1,1-.477-.487.482.482,0,0,1,.477.487" transform="translate(-8.185 -6.895)" fill="#fff"/>
            <path id="Trazado_915505" data-name="Trazado 915505" d="M62.244,55.155c0,.579-1.167,1.049-2.6,1.049s-2.606-.471-2.606-1.049S58.2,54.1,59.64,54.1s2.6.472,2.6,1.052" transform="translate(-7.857 -7.453)" fill="#f2917b"/>
            <path id="Trazado_915506" data-name="Trazado 915506" d="M41.22,50.968A1.279,1.279,0,1,0,42.5,49.662a1.295,1.295,0,0,0-1.279,1.306" transform="translate(-5.678 -6.841)" fill="#181014"/>
            <path id="Trazado_915507" data-name="Trazado 915507" d="M41.859,50.535a.477.477,0,1,0,.478-.487.482.482,0,0,0-.478.487" transform="translate(-5.766 -6.895)" fill="#fff"/>
            <path id="Trazado_915508" data-name="Trazado 915508" d="M40.032,44.732a6.35,6.35,0,0,1,1.467-.661,4.507,4.507,0,0,1,1.672-.187,2.965,2.965,0,0,1,.779.2c.216.144.422.278.617.4.382.227-.345.854-.514.829A4.106,4.106,0,0,0,43,45.139a5.249,5.249,0,0,0-1.3-.114,5.515,5.515,0,0,0-1.33.334c-.437.144-.785-.4-.335-.627" transform="translate(-5.486 -6.041)" fill="#181014"/>
            <path id="Trazado_915509" data-name="Trazado 915509" d="M61.241,44.732a6.35,6.35,0,0,0-1.467-.661,4.513,4.513,0,0,0-1.673-.187,2.967,2.967,0,0,0-.778.2c-.217.144-.423.278-.617.4-.382.227.345.854.513.829a4.113,4.113,0,0,1,1.057-.178,5.26,5.26,0,0,1,1.3-.114,5.526,5.526,0,0,1,1.33.334c.437.144.784-.4.335-.627" transform="translate(-7.797 -6.041)" fill="#181014"/>
            <path id="Trazado_915510" data-name="Trazado 915510" d="M39.3,55.155c0,.579,1.167,1.049,2.606,1.049s2.6-.471,2.6-1.049-1.166-1.052-2.6-1.052-2.606.472-2.606,1.052" transform="translate(-5.414 -7.453)" fill="#f2917b"/>
            <path id="Trazado_915511" data-name="Trazado 915511" d="M58.845,43.9s2.262-9.086.031-15.283S50.929,20.8,45.793,20.594c-5.156-.2-12.7.076-14.065,3.656-7.787-1.691-4.5,24.491-4.5,24.491a22.677,22.677,0,0,1,7.645-4.422c-3.624-9.467,6.541-10.329,16.414-9.748,7.174.422,7.558,9.325,7.558,9.325" transform="translate(-3.656 -2.83)" fill="#181014"/>
            <path id="Trazado_915512" data-name="Trazado 915512" d="M26.816,54.8c.02,2.3,2.016,6.245,5.305,5.314,2.383-.675,3.635-1.965,3.635-4.491s-2.462.254-3.392-2.088c-1.387-3.487-5.578-2.148-5.549,1.266" transform="translate(-3.694 -7.093)" fill="#f9ab78"/>
            <path id="Trazado_915513" data-name="Trazado 915513" d="M31.831,52.02c-.642-1.386-2.171-3.828-4.5-.738-.333-3.194,1.416-5.862,1.761-8.245,1.313-9.115,1.479-.627,5.885,3.821-3.934,2.193-.59,6.707-.59,6.707L33.03,54.914a10.175,10.175,0,0,1-1.2-2.894" transform="translate(-3.759 -5.371)" fill="#181014"/>
            <path id="Trazado_915514" data-name="Trazado 915514" d="M54.613,36.765c-9.764.308-28.732.144-28.732-.491,0-12.583,6.419-16.963,17.3-16.963,10.2,0,16.3,1.675,17.027,14.291.048.842-2.362,1.485-5.591,3.164" transform="translate(-3.565 -2.66)" fill="#de201b"/>
            <path id="Trazado_915515" data-name="Trazado 915515" d="M60.318,38.137c-4.167,3.233-12.695,3.308-15.644,2.776-4.142-.747-4.853-1.956-4.853-1.956S51.387,35.97,58.7,34.925c9.211-1.315,13.341-.044,13.341-.044s-7.177-.27-11.724,3.257" transform="translate(-5.486 -4.729)" fill="#db0613"/>
            <path id="Trazado_915516" data-name="Trazado 915516" d="M44.789,101.784c.159,1.271-2.094,3.5-1.909,1.112C38.221,80.164,32.558,82.831,32.558,82.831l2.923-1.362s7.583,3.164,9.308,20.315" transform="translate(-4.485 -11.223)" fill="#a30c14"/>
            <path id="Trazado_915517" data-name="Trazado 915517" d="M57.618,100.382c.16,1.271-2.094,3.495-1.909,1.112C53.6,83.134,50.9,80.752,50.9,80.752s4.995,2.478,6.719,19.63" transform="translate(-7.012 -11.124)" fill="#a30c14"/>
            <path id="Trazado_915518" data-name="Trazado 915518" d="M73.651,16.3c-.269,1.141-1.734.624-1.605-.311.159-1.16.373-3.1.695-4.631.257-1.235,2.26-.731,2.007.479s-.78,3.132-1.1,4.463" transform="translate(-9.924 -1.466)" fill="#f9ab78"/>
            <path id="Trazado_915519" data-name="Trazado 915519" d="M75.876,16.345c-.247,1.031-1.717.535-1.6-.314.136-1.054.311-2.811.6-4.2.232-1.117,2.238-.625,2.007.473s-.716,2.832-1.005,4.037" transform="translate(-10.231 -1.543)" fill="#f9ab78"/>
            <path id="Trazado_915520" data-name="Trazado 915520" d="M77.843,16.389c-.218.915-1.479.485-1.375-.267.122-.932.284-2.485.54-3.713.207-.992,1.925-.566,1.724.4s-.633,2.51-.888,3.577" transform="translate(-10.533 -1.631)" fill="#f9ab78"/>
            <path id="Trazado_915521" data-name="Trazado 915521" d="M71.606,15.454c-.247,1.034-1.717.536-1.605-.311.136-1.055.312-2.811.6-4.2.235-1.12,2.238-.625,2.011.47s-.717,2.834-1.007,4.039" transform="translate(-9.642 -1.421)" fill="#f9ab78"/>
            <path id="Trazado_915522" data-name="Trazado 915522" d="M78.152,89.176s-15.459,24.986-20.541,27c-3.218,1.273-23.4-17.046-23.4-17.046l3.831-6.419,18.93,15.947,19.5-24.5,4.037-2.689,2.2,7.249Z" transform="translate(-4.713 -11.223)" fill="#f9ab78"/>
            <path id="Trazado_915523" data-name="Trazado 915523" d="M47.144,101.733s-9.175-12.44-10.969-14.3c-4.071-4.222-10.053-.535-8.509,4.886.536,1.883,12.521,16.007,12.521,16.007Z" transform="translate(-3.777 -11.792)" fill="#e13505"/>
            <path id="Trazado_915524" data-name="Trazado 915524" d="M92.292,85.92c1.149.236.675,1.716-.263,1.614-1.166-.124-3.109-.281-4.647-.557-1.246-.221-.8-2.236.416-2.02s3.153.687,4.494.963" transform="translate(-11.935 -11.701)" fill="#f9ab78"/>
            <path id="Trazado_915525" data-name="Trazado 915525" d="M92.274,83.711c1.04.216.588,1.7-.263,1.612-1.06-.1-2.819-.228-4.216-.476-1.123-.2-.691-2.219.415-2.023s2.854.633,4.065.886" transform="translate(-12.004 -11.408)" fill="#f9ab78"/>
            <path id="Trazado_915526" data-name="Trazado 915526" d="M92.262,81.8c.921.189.529,1.461-.228,1.382-.936-.1-2.494-.211-3.727-.43-1-.177-.623-1.907.354-1.736s2.526.56,3.6.784" transform="translate(-12.084 -11.159)" fill="#f9ab78"/>
            <path id="Trazado_915527" data-name="Trazado 915527" d="M91.511,88.006c1.039.215.585,1.7-.261,1.614-1.061-.107-2.82-.231-4.215-.479-1.128-.2-.691-2.219.412-2.023s2.853.633,4.065.887" transform="translate(-11.899 -12)" fill="#f9ab78"/>
          </g>
        </g>
      </g>
    </g>
  </g>
</svg>
