<svg id="Grupo_1102495" data-name="Grupo 1102495" xmlns="http://www.w3.org/2000/svg" xmlns:xlink="http://www.w3.org/1999/xlink" width="288.668" height="286.502" viewBox="0 0 288.668 286.502">
  <defs>
    <clipPath id="clip-path">
      <rect id="Rectángulo_404139" data-name="Rectángulo 404139" width="288.668" height="286.502" fill="none"/>
    </clipPath>
    <clipPath id="clip-path-2">
      <rect id="Rectángulo_404138" data-name="Rectángulo 404138" width="288.668" height="286.503" fill="none"/>
    </clipPath>
    <clipPath id="clip-path-3">
      <rect id="Rectángulo_404122" data-name="Rectángulo 404122" width="62.075" height="137.093" fill="none"/>
    </clipPath>
    <clipPath id="clip-path-4">
      <rect id="Rectángulo_404123" data-name="Rectángulo 404123" width="77.869" height="111.216" fill="none"/>
    </clipPath>
    <clipPath id="clip-path-5">
      <rect id="Rectángulo_404124" data-name="Rectángulo 404124" width="198.106" height="187.147" fill="none"/>
    </clipPath>
    <clipPath id="clip-path-6">
      <rect id="Rectángulo_404132" data-name="Rectángulo 404132" width="228.924" height="228.938" fill="none"/>
    </clipPath>
    <clipPath id="clip-path-7">
      <rect id="Rectángulo_404125" data-name="Rectángulo 404125" width="64.378" height="228.319" fill="none"/>
    </clipPath>
    <clipPath id="clip-path-8">
      <rect id="Rectángulo_404126" data-name="Rectángulo 404126" width="175.068" height="228.938" fill="none"/>
    </clipPath>
    <clipPath id="clip-path-9">
      <rect id="Rectángulo_404127" data-name="Rectángulo 404127" width="210.638" height="0.937" fill="none"/>
    </clipPath>
    <clipPath id="clip-path-10">
      <rect id="Rectángulo_404128" data-name="Rectángulo 404128" width="149.594" height="0.935" fill="none"/>
    </clipPath>
    <clipPath id="clip-path-11">
      <rect id="Rectángulo_404129" data-name="Rectángulo 404129" width="228.924" height="0.936" fill="none"/>
    </clipPath>
    <clipPath id="clip-path-12">
      <rect id="Rectángulo_404130" data-name="Rectángulo 404130" width="210.638" height="0.936" fill="none"/>
    </clipPath>
    <clipPath id="clip-path-13">
      <rect id="Rectángulo_404131" data-name="Rectángulo 404131" width="150.123" height="0.692" fill="none"/>
    </clipPath>
    <clipPath id="clip-path-14">
      <rect id="Rectángulo_404137" data-name="Rectángulo 404137" width="4.179" height="10.815" fill="none"/>
    </clipPath>
  </defs>
  <g id="Grupo_1102494" data-name="Grupo 1102494" clip-path="url(#clip-path)">
    <g id="Grupo_1102493" data-name="Grupo 1102493" transform="translate(0 -0.001)">
      <g id="Grupo_1102492" data-name="Grupo 1102492" clip-path="url(#clip-path-2)">
        <path id="Trazado_915210" data-name="Trazado 915210" d="M286.748,194.248C257.7,261.867,181.01,290.911,120.925,285.959c-16.406-1.352-49.414-4.073-75.188-28.343-49.5-46.61-41.873-144.038,5.509-201.4C57.348,48.83,99.583-.661,165.4,0c48.187.485,82.01,27.591,86.122,30.968A132.288,132.288,0,0,1,278.5,61.455c24.265,37.787,26.4,90.538,8.244,132.793" transform="translate(-10.104 0.005)" fill="#efeff4"/>
        <path id="Trazado_915211" data-name="Trazado 915211" d="M166.847.235c16.6,10.021,110.845,72.284,68.3,171.213,0,0-72.594-25.019-70.793-169.834a1.641,1.641,0,0,1,2.49-1.379" transform="translate(-138.403 0.004)" fill="#d7d9e0"/>
        <g id="Grupo_1102458" data-name="Grupo 1102458" transform="translate(35.609 18.43)" opacity="0.28">
          <g id="Grupo_1102457" data-name="Grupo 1102457">
            <g id="Grupo_1102456" data-name="Grupo 1102456" clip-path="url(#clip-path-3)">
              <path id="Trazado_915212" data-name="Trazado 915212" d="M225.74,116.831c3.352,5.325,6.531,10.754,9.68,16.2q4.688,8.189,9.18,16.49c3.01,5.525,5.9,11.117,8.771,16.715,2.85,5.611,5.606,11.269,8.328,16.945q4.031,8.538,7.819,17.192l1.861,4.341,1.816,4.36q1.813,4.361,3.5,8.777,3.431,8.8,6.285,17.821a180.451,180.451,0,0,1,4.836,18.253c-1.761-6.04-3.775-11.987-5.962-17.868l-.808-2.209-.844-2.2c-.572-1.461-1.114-2.931-1.711-4.383l-1.75-4.367-1.8-4.347c-2.452-5.774-4.9-11.549-7.517-17.254-2.581-5.719-5.195-11.424-7.91-17.083q-4.009-8.519-8.187-16.959c-2.751-5.644-5.588-11.246-8.394-16.865q-8.493-16.821-17.191-33.56" transform="translate(-225.74 -116.831)" fill="#fff"/>
            </g>
          </g>
        </g>
        <path id="Trazado_915213" data-name="Trazado 915213" d="M1.946,412.372c16.351,5.656,110.163,42.46,91.44,136.695,0,0-68-8.33-93.356-135.028a1.464,1.464,0,0,1,1.916-1.667" transform="translate(0 -347.254)" fill="#d7d9e0"/>
        <g id="Grupo_1102461" data-name="Grupo 1102461" transform="translate(11.184 79.334)" opacity="0.28">
          <g id="Grupo_1102460" data-name="Grupo 1102460">
            <g id="Grupo_1102459" data-name="Grupo 1102459" clip-path="url(#clip-path-4)">
              <path id="Trazado_915214" data-name="Trazado 915214" d="M71.693,502.928q10.694,12.987,20.945,26.313,10.278,13.309,20.149,26.933c6.56,9.1,12.963,18.312,19.061,27.74q4.588,7.061,8.861,14.334c2.842,4.851,5.574,9.775,8.059,14.844l-2.183,1.053c-2.4-5.018-5.051-9.926-7.822-14.77s-5.666-9.625-8.663-14.344c-5.975-9.45-12.266-18.709-18.718-27.854s-13.086-18.167-19.838-27.1S77.925,512.293,70.9,503.58Z" transform="translate(-70.9 -502.928)" fill="#fff"/>
            </g>
          </g>
        </g>
        <path id="Trazado_915215" data-name="Trazado 915215" d="M391.556,200.721c-2.833,64.525-61.591,114.355-131.239,111.3S136.5,254.174,139.336,189.648s61.591-114.355,131.239-111.3S394.389,136.2,391.556,200.721" transform="translate(-117.267 -65.879)" fill="#b9bcc5"/>
        <path id="Trazado_915216" data-name="Trazado 915216" d="M274.628,253.281c-2.771,4.448-4.907,9.456-4.506,14.681.465,6.05,3.527,11.716,3.684,17.782.266,10.288-7.675,18.9-10.153,28.887-2.769,11.165,7.671,23.885,11.831,30.117s2.372-5.056,4.894-9.457,7.961,18.52,16.457,23.551c4.558,2.7,9.906,4.5,13.184,8.657,4.781,6.069,3.457,14.7,2.739,22.4s.357,17.068,7.285,20.487c4.079,2.014,9.264,1.332,12.946,4,6.465,4.694,3.376,14.928,5.938,22.495,2.786,8.229,8.31,8.338,16.856,10.082s-1.077-17.031,2.927-23.594c2.1-3.449,5.317-6.194,6.977-9.878,2.3-5.109,1.653-11.935,6.119-15.32,3.347-2.538,8-1.851,12.2-1.888s9.309-1.86,9.785-6.033c.423-3.7-3.284-6.655-6.911-7.514s-7.491-.449-11.053-1.546c-10.188-3.137-14.94-17.394-25.579-18.061-9.094-.57-16.711,9.638-25.647,7.855-4.982-.994-8.391-5.406-12.089-8.889-4.75-4.474-10.646-7.832-14.417-13.158s-4.413-13.838.952-17.552c3.986-2.759,9.648-1.639,13.586,1.188s6.619,7.023,9.511,10.914a7.223,7.223,0,0,0,3.333,2.894c3.845,1.2,6.65-4.206,5.73-8.128s-3.691-7.372-3.821-11.4c-.229-7.1,7.413-11.6,14.117-13.938s14.606-5.126,16.577-11.948c.7-2.409.514-5.061,1.576-7.333,3.521-7.529,22.1-11.288,17.661-15.653s-18.539-5.315-21.284-14.107c-.983-3.148-1.995-7.309-5.278-7.613-5.348-.5-8.4,6.124-12.886,7.261-2.13.539-2.335,4.157-2.252,8.6a5.848,5.848,0,0,1-11.694.221,9.034,9.034,0,0,1,.68-3.618,16.363,16.363,0,0,1,4.158-5.389c6.9-6.588,27.489-13.827,23.177-16.631s-25-10.544-28.09-6.273,2.018.655,3.263,5.72-15.307,4.386-22.961,6.579a5.48,5.48,0,0,1-3.848.142c-1.322-.64-1.879-2.18-2.6-3.462-3.844-6.867-16.629-2.41-16.629-2.41a20.8,20.8,0,0,0-6.452,6.268" transform="translate(-221.676 -201.454)" fill="#979aa0"/>
        <path id="Trazado_915217" data-name="Trazado 915217" d="M700.246,90.59c-1.858,3.464,3.668,3.408,4.218,7.3,4.975.542,7.018-7.3,11.938-8.217,2.777-.517,5.469,1.473,6.978,3.86s2.213,5.19,3.491,7.709A18.981,18.981,0,0,0,741.96,111.37a5.216,5.216,0,0,0,3.917-.886c3-2.642-1.291-7.606-.177-11.444,1.273-4.386,7.6-3.72,11.872-5.329,1.179-.444,10.246-2.863,10.392-4.114.259-2.218-3.948-3.63-8.654-4.84-7.973-2.05-22-1.965-28.858-1.345-9.123.825-24.322.159-30.206,7.179" transform="translate(-589.468 -69.927)" fill="#979aa0"/>
        <path id="Trazado_915218" data-name="Trazado 915218" d="M1401.806,469.787a115,115,0,0,0-.506-39.118c-.641-3.437-2.14-7.534-5.6-8.028-4-.572-8.9,4.026-11.409.852-1.106-1.4-.665-3.44-.038-5.112a33.872,33.872,0,0,1,7.54-11.819c2.051-2.085,4.4-3.933,5.976-6.395,3.377-5.264,1.006-12.957-3.773-16.991s-10.946,3.2-15.97.328-5.181-9.838-6.125-15.548c-.7-4.229-3.816-15.687-7.258-10.107s4.592,27.794,13.633,38.442c1.091,1.284,2.295,2.723,2.2,4.405-.22,4.018-6.074,3.839-10.013,4.661-4.875,1.018-12.348-1.593-8.224,6.9,2.175,4.481,12.564,10.613,9.772,13.612s-11.373,11.684-15.4,18.708-5.978,15.771-2.942,23.276,12.167,12.688,19.621,9.526c3.489-1.48,7.291-4.557,10.534-2.6,2.937,1.775,2.5,6.037,2.358,9.466s1.831,7.98,5.167,7.174a5.532,5.532,0,0,0,2.7-1.949c4.693-5.394,6.626-12.632,7.754-19.692" transform="translate(-1138.891 -300.137)" fill="#979aa0"/>
        <g id="Grupo_1102464" data-name="Grupo 1102464" transform="translate(42.294 27.295)" opacity="0.65">
          <g id="Grupo_1102463" data-name="Grupo 1102463">
            <g id="Grupo_1102462" data-name="Grupo 1102462" clip-path="url(#clip-path-5)">
              <path id="Trazado_915219" data-name="Trazado 915219" d="M466.228,266.605c0,51.679-44.347,93.573-99.053,93.573s-99.053-41.894-99.053-93.573,44.347-93.573,99.053-93.573,99.053,41.894,99.053,93.573" transform="translate(-268.122 -173.032)" fill="#b9bcc5"/>
            </g>
          </g>
        </g>
        <g id="Grupo_1102488" data-name="Grupo 1102488" transform="translate(36.506 16.882)" opacity="0.68">
          <g id="Grupo_1102487" data-name="Grupo 1102487">
            <g id="Grupo_1102486" data-name="Grupo 1102486" clip-path="url(#clip-path-6)">
              <g id="Grupo_1102467" data-name="Grupo 1102467" transform="translate(82.558 0.618)" style="mix-blend-mode: soft-light;isolation: isolate">
                <g id="Grupo_1102466" data-name="Grupo 1102466">
                  <g id="Grupo_1102465" data-name="Grupo 1102465" clip-path="url(#clip-path-7)">
                    <path id="Trazado_915220" data-name="Trazado 915220" d="M819.177,224.757a354.188,354.188,0,0,1-5.062,61.612c-.917,5.078-1.981,10.132-3.248,15.137a145.846,145.846,0,0,1-4.538,14.812,70.163,70.163,0,0,1-6.772,13.955,27.82,27.82,0,0,1-5.079,5.93,14.465,14.465,0,0,1-3.319,2.142,9.933,9.933,0,0,1-3.87.914,9.749,9.749,0,0,1-3.912-.721,13.574,13.574,0,0,1-3.4-2.024,26.413,26.413,0,0,1-5.188-5.837,53.755,53.755,0,0,1-3.836-6.765c-1.124-2.334-2.123-4.722-3.034-7.142a142.505,142.505,0,0,1-4.587-14.8c-1.281-5-2.355-10.053-3.28-15.13-1.846-10.155-3.1-20.408-3.949-30.689s-1.259-20.6-1.305-30.914c-.022-5.158.109-10.315.29-15.469s.469-10.3.844-15.448c.755-10.286,1.887-20.549,3.572-30.728.846-5.088,1.833-10.155,3.021-15.177a146.048,146.048,0,0,1,4.294-14.873c.864-2.434,1.809-4.842,2.886-7.192a52.529,52.529,0,0,1,3.695-6.823,25.409,25.409,0,0,1,5.078-5.88,12.969,12.969,0,0,1,3.355-2.013,9.453,9.453,0,0,1,3.856-.688,10.208,10.208,0,0,1,3.811.9,14.914,14.914,0,0,1,3.314,2.072,28.319,28.319,0,0,1,5.188,5.78,55.276,55.276,0,0,1,3.942,6.681c1.17,2.306,2.212,4.673,3.174,7.069A141.072,141.072,0,0,1,810,148.141c1.372,4.975,2.533,10.007,3.538,15.067a324.292,324.292,0,0,1,5.642,61.549m-1.31,0c.016-10.28-.378-20.563-1.235-30.808a296.363,296.363,0,0,0-4.039-30.559c-.953-5.05-2.063-10.071-3.382-15.036a140.22,140.22,0,0,0-4.712-14.661,69.013,69.013,0,0,0-6.924-13.7,27.853,27.853,0,0,0-5.043-5.728,14.473,14.473,0,0,0-3.2-2.042,9.587,9.587,0,0,0-3.653-.888,8.98,8.98,0,0,0-3.686.691,12.539,12.539,0,0,0-3.223,1.977,24.93,24.93,0,0,0-4.922,5.813,51.943,51.943,0,0,0-3.591,6.783c-1.046,2.341-1.962,4.74-2.8,7.166a145.133,145.133,0,0,0-4.133,14.836c-1.136,5.011-2.072,10.068-2.867,15.146-1.585,10.158-2.617,20.4-3.273,30.66s-.9,20.547-.883,30.829q-.032,15.42,1.1,30.814c.776,10.25,1.961,20.474,3.732,30.6.887,5.061,1.924,10.1,3.164,15.079a141.674,141.674,0,0,0,4.459,14.728c.887,2.405,1.862,4.777,2.958,7.091a52.986,52.986,0,0,0,3.732,6.686,25.681,25.681,0,0,0,5,5.7,12.857,12.857,0,0,0,3.2,1.939,8.859,8.859,0,0,0,3.626.688,9.221,9.221,0,0,0,3.59-.875,13.739,13.739,0,0,0,3.135-2.056,27.085,27.085,0,0,0,4.893-5.8,69.321,69.321,0,0,0,6.591-13.829,144.807,144.807,0,0,0,4.407-14.744c1.227-4.987,2.251-10.024,3.13-15.086,1.758-10.126,2.929-20.351,3.706-30.6s1.149-20.534,1.146-30.816" transform="translate(-754.799 -110.944)" fill="#fff"/>
                  </g>
                </g>
              </g>
              <g id="Grupo_1102470" data-name="Grupo 1102470" transform="translate(23.885)" style="mix-blend-mode: soft-light;isolation: isolate">
                <g id="Grupo_1102469" data-name="Grupo 1102469">
                  <g id="Grupo_1102468" data-name="Grupo 1102468" clip-path="url(#clip-path-8)">
                    <path id="Trazado_915221" data-name="Trazado 915221" d="M557.914,221.452a150.248,150.248,0,0,1-5.321,39.35,126.755,126.755,0,0,1-16.44,36.092A103.916,103.916,0,0,1,523.59,312.3a88.092,88.092,0,0,1-15.471,12.469,74.608,74.608,0,0,1-18.057,8.261,67.412,67.412,0,0,1-39.264.015,74.64,74.64,0,0,1-18.069-8.249,88.18,88.18,0,0,1-15.489-12.461,103.983,103.983,0,0,1-12.585-15.4,126.9,126.9,0,0,1-16.477-36.1,148.717,148.717,0,0,1-5.331-39.375,156.234,156.234,0,0,1,1.353-19.865,143,143,0,0,1,4-19.5A126.863,126.863,0,0,1,404.7,146a103.922,103.922,0,0,1,12.586-15.389,87.909,87.909,0,0,1,15.485-12.442,74.881,74.881,0,0,1,18.057-8.223,67,67,0,0,1,39.212.014,74.846,74.846,0,0,1,18.045,8.235,87.861,87.861,0,0,1,15.466,12.45,103.845,103.845,0,0,1,12.565,15.391,126.7,126.7,0,0,1,16.459,36.071,150.218,150.218,0,0,1,5.343,39.343m-1.5,0a148.8,148.8,0,0,0-5.137-38.984,126.267,126.267,0,0,0-15.991-35.88,102.97,102.97,0,0,0-12.319-15.367,86.092,86.092,0,0,0-15.234-12.473,73.6,73.6,0,0,0-17.859-8.248,65.576,65.576,0,0,0-38.876.014,73.568,73.568,0,0,0-17.847,8.26,86.026,86.026,0,0,0-15.215,12.481,102.9,102.9,0,0,0-12.3,15.37,126.108,126.108,0,0,0-15.954,35.869,143.841,143.841,0,0,0-3.838,19.311,149.82,149.82,0,0,0,.01,39.293A143.848,143.848,0,0,0,389.7,260.4a126.058,126.058,0,0,0,15.973,35.848,102.848,102.848,0,0,0,12.3,15.355,85.778,85.778,0,0,0,15.212,12.462,73.816,73.816,0,0,0,17.835,8.234,65.181,65.181,0,0,0,38.824.015,73.839,73.839,0,0,0,17.847-8.222,85.86,85.86,0,0,0,15.229-12.454,102.889,102.889,0,0,0,12.321-15.352,126.226,126.226,0,0,0,16.01-35.859,148.793,148.793,0,0,0,5.159-38.978" transform="translate(-382.847 -107.021)" fill="#fff"/>
                  </g>
                </g>
              </g>
              <g id="Grupo_1102473" data-name="Grupo 1102473" transform="translate(9.143 68.744)" style="mix-blend-mode: soft-light;isolation: isolate">
                <g id="Grupo_1102472" data-name="Grupo 1102472">
                  <g id="Grupo_1102471" data-name="Grupo 1102471" clip-path="url(#clip-path-9)">
                    <path id="Trazado_915222" data-name="Trazado 915222" d="M289.485,543.193l26.309-.182,26.309-.1,52.619-.083,52.618.092,26.31.113,26.309.2a.066.066,0,0,1,0,.133l-26.309.2-26.31.113-52.618.092-52.619-.083-26.309-.1-26.309-.182a.1.1,0,0,1,0-.2" transform="translate(-289.387 -542.823)" fill="#fff"/>
                  </g>
                </g>
              </g>
              <g id="Grupo_1102476" data-name="Grupo 1102476" transform="translate(39.665 24.679)" style="mix-blend-mode: soft-light;isolation: isolate">
                <g id="Grupo_1102475" data-name="Grupo 1102475">
                  <g id="Grupo_1102474" data-name="Grupo 1102474" clip-path="url(#clip-path-10)">
                    <path id="Trazado_915223" data-name="Trazado 915223" d="M482.98,263.839l18.679-.182,18.679-.1c6.226-.044,12.453-.039,18.679-.053l18.679-.03,37.358.092,18.679.113c6.226.067,12.453.106,18.679.2a.066.066,0,0,1,0,.133c-6.227.091-12.453.13-18.679.2l-18.679.113-37.358.092-18.679-.03c-6.226-.014-12.453-.009-18.679-.053l-18.679-.1-18.679-.182a.1.1,0,0,1,0-.2" transform="translate(-482.882 -263.47)" fill="#fff"/>
                  </g>
                </g>
              </g>
              <g id="Grupo_1102479" data-name="Grupo 1102479" transform="translate(0 112.811)" style="mix-blend-mode: soft-light;isolation: isolate">
                <g id="Grupo_1102478" data-name="Grupo 1102478">
                  <g id="Grupo_1102477" data-name="Grupo 1102477" clip-path="url(#clip-path-11)">
                    <path id="Trazado_915224" data-name="Trazado 915224" d="M231.525,822.548l28.6-.182,28.6-.1,57.19-.083,57.19.092,28.6.113,28.6.2a.066.066,0,0,1,0,.132l-28.6.2-28.6.113-57.19.092-57.19-.083-28.6-.1-28.6-.182a.1.1,0,0,1,0-.2" transform="translate(-231.427 -822.179)" fill="#fff"/>
                  </g>
                </g>
              </g>
              <g id="Grupo_1102482" data-name="Grupo 1102482" transform="translate(9.143 156.876)" style="mix-blend-mode: soft-light;isolation: isolate">
                <g id="Grupo_1102481" data-name="Grupo 1102481">
                  <g id="Grupo_1102480" data-name="Grupo 1102480" clip-path="url(#clip-path-12)">
                    <path id="Trazado_915225" data-name="Trazado 915225" d="M289.485,1101.9l26.309-.182,26.309-.1,52.619-.083,52.618.092,26.31.113,26.309.2a.066.066,0,0,1,0,.133l-26.309.2-26.31.113-52.618.092-52.619-.083-26.309-.1-26.309-.182a.1.1,0,0,1,0-.2" transform="translate(-289.387 -1101.533)" fill="#fff"/>
                  </g>
                </g>
              </g>
              <g id="Grupo_1102485" data-name="Grupo 1102485" transform="translate(43.181 201.064)" style="mix-blend-mode: soft-light;isolation: isolate">
                <g id="Grupo_1102484" data-name="Grupo 1102484">
                  <g id="Grupo_1102483" data-name="Grupo 1102483" clip-path="url(#clip-path-13)">
                    <path id="Trazado_915226" data-name="Trazado 915226" d="M654.95,1382.35H505.519a.346.346,0,1,1,0-.692H654.95a.346.346,0,0,1,0,.692" transform="translate(-505.173 -1381.658)" fill="#fff"/>
                  </g>
                </g>
              </g>
            </g>
          </g>
        </g>
        <path id="Trazado_915227" data-name="Trazado 915227" d="M250.832,994.468H207.4a1.543,1.543,0,0,1-1.538-1.538v-5.093A1.543,1.543,0,0,1,207.4,986.3h43.427a1.542,1.542,0,0,1,1.538,1.538v5.093a1.542,1.542,0,0,1-1.538,1.538" transform="translate(-173.393 -830.717)" fill="#5c5e61"/>
        <path id="Trazado_915228" data-name="Trazado 915228" d="M626.638,999.779H583.211a1.543,1.543,0,0,1-1.538-1.538v-5.094a1.543,1.543,0,0,1,1.538-1.538h43.427a1.543,1.543,0,0,1,1.538,1.538v5.094a1.543,1.543,0,0,1-1.538,1.538" transform="translate(-489.919 -835.191)" fill="#5c5e61"/>
        <path id="Trazado_915229" data-name="Trazado 915229" d="M1026.347,999.779H982.92a1.543,1.543,0,0,1-1.538-1.538v-5.094a1.543,1.543,0,0,1,1.538-1.538h43.427a1.542,1.542,0,0,1,1.538,1.538v5.094a1.542,1.542,0,0,1-1.538,1.538" transform="translate(-826.577 -835.191)" fill="#5c5e61"/>
        <rect id="Rectángulo_404133" data-name="Rectángulo 404133" width="218.755" height="13.273" transform="translate(15.587 243.866)" fill="#74767b"/>
        <rect id="Rectángulo_404134" data-name="Rectángulo 404134" width="4.424" height="18.189" transform="translate(11.163 240.916)" fill="#5c5e61"/>
        <path id="Trazado_915230" data-name="Trazado 915230" d="M1519.771,1070.037l-10.622-51.317c-.255-1.038-.989-1.215-1.816-1.215h-37.24a4.006,4.006,0,0,0-3.915,4.091v92.543h55.54Z" transform="translate(-1234.899 -857.001)" fill="#7ad8ec"/>
        <path id="Trazado_915231" data-name="Trazado 915231" d="M1587.816,1560.932a4.071,4.071,0,0,0-2.14-.526l-41.645.8-.237,11.8,41.9,1.019c1.521,0,3.239-.734,3.239-1.762v-10c0-.5-.585-.985-1.118-1.335" transform="translate(-1300.273 -1314.263)" fill="#74767b"/>
        <path id="Trazado_915232" data-name="Trazado 915232" d="M1566.479,1134.545a2.448,2.448,0,0,0,2.674-2.784l-5.549-38.712c-.209-1.368-.953-2.4-1.806-2.4h-23.44a1.739,1.739,0,0,0-1.336,1.013,4.516,4.516,0,0,0-.526,2.277l.132,36.212c.021,1.2,21.635,3.547,29.851,4.4" transform="translate(-1294.126 -918.604)" fill="#333435"/>
        <path id="Trazado_915233" data-name="Trazado 915233" d="M1725.958,1091.017l7.276,40.256a2.494,2.494,0,0,0,2.455,2.051h3.077l-9.611-45.334-1.232.215a2.418,2.418,0,0,0-1.964,2.812" transform="translate(-1453.669 -916.368)" fill="#333435"/>
        <path id="Rectángulo_404135" data-name="Rectángulo 404135" d="M1.843,0H8.971a1.843,1.843,0,0,1,1.843,1.843v0A1.843,1.843,0,0,1,8.971,3.687H1.843A1.843,1.843,0,0,1,0,1.843v0A1.843,1.843,0,0,1,1.843,0Z" transform="translate(243.927 219.041)" fill="#727997"/>
        <rect id="Rectángulo_404136" data-name="Rectángulo 404136" width="8.849" height="9.34" rx="4.424" transform="translate(278.584 234.28)" fill="#5c5e61"/>
        <g id="Grupo_1102491" data-name="Grupo 1102491" transform="translate(277.847 234.28)" opacity="0.3">
          <g id="Grupo_1102490" data-name="Grupo 1102490">
            <g id="Grupo_1102489" data-name="Grupo 1102489" clip-path="url(#clip-path-14)">
              <path id="Trazado_915234" data-name="Trazado 915234" d="M1765.578,1485.2v10.815h-1.328c-1.028,0-2.851-1.094-2.851-2.123v-6.134c0-1.029,1.823-2.558,2.851-2.558Z" transform="translate(-1761.399 -1485.205)" fill="#e8e8ef"/>
            </g>
          </g>
        </g>
        <path id="Trazado_915235" data-name="Trazado 915235" d="M1512.993,1338.626a.346.346,0,0,1-.346-.346v-43.505a.346.346,0,1,1,.692,0v43.505a.346.346,0,0,1-.346.346" transform="translate(-1274.039 -1090.242)" fill="#727997"/>
        <path id="Trazado_915236" data-name="Trazado 915236" d="M219.275,1094.464H16.685q-14.706-40.675,0-81.351H217.468a18.932,18.932,0,0,1,18.932,18.932v45.294a17.125,17.125,0,0,1-17.125,17.125" transform="translate(-7.86 -853.302)" fill="#74767b"/>
        <path id="Trazado_915237" data-name="Trazado 915237" d="M23.447,1053.665c0,22.4-3.16,40.553-7.057,40.553s-7.057-18.156-7.057-40.553,3.16-40.553,7.057-40.553,7.057,18.156,7.057,40.553" transform="translate(-7.86 -853.301)" fill="#5c5e61"/>
        <path id="Trazado_915238" data-name="Trazado 915238" d="M231.493,1493.938H100.456a1.649,1.649,0,0,1-1.644-1.644v-5.445a1.649,1.649,0,0,1,1.644-1.644H231.493a1.649,1.649,0,0,1,1.644,1.644v5.445a1.649,1.649,0,0,1-1.644,1.644" transform="translate(-83.225 -1250.925)" fill="#5c5e61"/>
        <path id="Trazado_915239" data-name="Trazado 915239" d="M56.387,1069.417H56.37a.519.519,0,0,1-.5-.535L58.5,985.539c.045-1.42,1.581-2.532,3.5-2.532H74.008c1.64,0,2.925.964,2.925,2.195v8.588a.519.519,0,1,1-1.038,0V985.2c0-.627-.864-1.156-1.886-1.156H62c-1.307,0-2.433.7-2.459,1.527l-2.632,83.342a.519.519,0,0,1-.518.5" transform="translate(-47.055 -827.945)" fill="#fff"/>
        <path id="Trazado_915240" data-name="Trazado 915240" d="M11.379,1068.222h-.012a.519.519,0,0,1-.507-.531L12.592,991.1a2.859,2.859,0,0,1,2.842-2.781H24a2.25,2.25,0,0,1,2.247,2.248v1.664a.519.519,0,1,1-1.038,0v-1.664A1.21,1.21,0,0,0,24,989.357H15.434a1.814,1.814,0,0,0-1.8,1.765L11.9,1067.715a.519.519,0,0,1-.519.508" transform="translate(-9.146 -832.418)" fill="#fff"/>
        <path id="Trazado_915241" data-name="Trazado 915241" d="M18.688,1435.092a.517.517,0,0,1-.187-.035l-7.309-2.82a.519.519,0,1,1,.374-.969l7.309,2.82a.519.519,0,0,1-.187,1" transform="translate(-9.147 -1205.467)" fill="#fff"/>
        <path id="Trazado_915242" data-name="Trazado 915242" d="M22.028,1354.955a.517.517,0,0,1-.207-.043l-7.536-3.277a.519.519,0,0,1,.415-.952l7.536,3.277a.519.519,0,0,1-.208,1" transform="translate(-11.769 -1137.586)" fill="#fff"/>
        <path id="Trazado_915243" data-name="Trazado 915243" d="M24.016,1278.7a.519.519,0,0,1-.2-.041l-7.422-3.126a.519.519,0,1,1,.4-.957l7.421,3.126a.519.519,0,0,1-.2,1" transform="translate(-13.54 -1073.487)" fill="#fff"/>
        <path id="Trazado_915244" data-name="Trazado 915244" d="M25.79,1190.966a.52.52,0,0,1-.192-.037l-7.611-3.034a.519.519,0,0,1,.385-.965l7.611,3.034a.519.519,0,0,1-.192,1" transform="translate(-14.874 -999.67)" fill="#fff"/>
        <path id="Trazado_915245" data-name="Trazado 915245" d="M26.676,1122.051a.517.517,0,0,1-.194-.038l-7.848-3.175a.519.519,0,1,1,.389-.963l7.848,3.175a.519.519,0,0,1-.195,1" transform="translate(-15.42 -941.506)" fill="#fff"/>
        <path id="Trazado_915246" data-name="Trazado 915246" d="M480.326,973.2a.519.519,0,0,1-.519-.519v-5.6a1.63,1.63,0,0,0-1.628-1.628H453.514a1.577,1.577,0,0,0-1.575,1.575v5.656a.519.519,0,1,1-1.038,0V967.03a2.617,2.617,0,0,1,2.614-2.614h24.665a2.67,2.67,0,0,1,2.666,2.666v5.6a.519.519,0,0,1-.519.519" transform="translate(-379.774 -812.286)" fill="#fff"/>
        <path id="Trazado_915247" data-name="Trazado 915247" d="M861,972.541a.519.519,0,0,1-.519-.519v-5.6a1.629,1.629,0,0,0-1.628-1.628H834.189a1.577,1.577,0,0,0-1.575,1.575v5.656a.519.519,0,1,1-1.038,0v-5.656a2.617,2.617,0,0,1,2.614-2.614h24.665a2.67,2.67,0,0,1,2.667,2.666v5.6a.519.519,0,0,1-.519.519" transform="translate(-700.401 -811.727)" fill="#fff"/>
        <path id="Trazado_915248" data-name="Trazado 915248" d="M1552.617,1541.567a18.888,18.888,0,1,1-18.888-18.888,18.888,18.888,0,0,1,18.888,18.888" transform="translate(-1275.887 -1282.488)" fill="#333435"/>
        <path id="Trazado_915249" data-name="Trazado 915249" d="M1568.016,1560.517a15.339,15.339,0,1,1-15.339-15.339,15.339,15.339,0,0,1,15.339,15.339" transform="translate(-1294.835 -1301.438)" fill="#979aa0"/>
        <path id="Trazado_915250" data-name="Trazado 915250" d="M1612.2,1573.69a.347.347,0,0,1-.319-.481,13.24,13.24,0,0,0-18.655-16.705.346.346,0,0,1-.339-.6,13.934,13.934,0,0,1,19.632,17.579.347.347,0,0,1-.319.211" transform="translate(-1341.47 -1308.978)" fill="#b9bcc5"/>
        <path id="Trazado_915251" data-name="Trazado 915251" d="M1604.054,1604.859a7.035,7.035,0,1,1-7.035-7.035,7.035,7.035,0,0,1,7.035,7.035" transform="translate(-1339.177 -1345.779)" fill="#333435"/>
        <path id="Trazado_915252" data-name="Trazado 915252" d="M1116.457,1536.826a19.58,19.58,0,1,1-19.58-19.58,19.58,19.58,0,0,1,19.58,19.58" transform="translate(-907.362 -1277.912)" fill="#333435"/>
        <path id="Trazado_915253" data-name="Trazado 915253" d="M1132.421,1556.47a15.9,15.9,0,1,1-15.9-15.9,15.9,15.9,0,0,1,15.9,15.9" transform="translate(-927.005 -1297.556)" fill="#979aa0"/>
        <path id="Trazado_915254" data-name="Trazado 915254" d="M1178.286,1570.18a.347.347,0,0,1-.319-.481,13.737,13.737,0,0,0-19.357-17.333.346.346,0,0,1-.339-.6,14.431,14.431,0,0,1,20.333,18.207.346.346,0,0,1-.319.211" transform="translate(-975.415 -1305.439)" fill="#b9bcc5"/>
        <path id="Trazado_915255" data-name="Trazado 915255" d="M1169.779,1602.437a7.292,7.292,0,1,1-7.292-7.292,7.292,7.292,0,0,1,7.292,7.292" transform="translate(-972.971 -1343.522)" fill="#333435"/>
        <path id="Trazado_915256" data-name="Trazado 915256" d="M424.923,1536.826a19.58,19.58,0,1,1-19.58-19.58,19.58,19.58,0,0,1,19.58,19.58" transform="translate(-324.912 -1277.912)" fill="#333435"/>
        <path id="Trazado_915257" data-name="Trazado 915257" d="M440.887,1556.47a15.9,15.9,0,1,1-15.9-15.9,15.9,15.9,0,0,1,15.9,15.9" transform="translate(-344.555 -1297.556)" fill="#979aa0"/>
        <path id="Trazado_915258" data-name="Trazado 915258" d="M486.753,1570.18a.347.347,0,0,1-.319-.481,13.737,13.737,0,0,0-19.357-17.333.346.346,0,0,1-.339-.6,14.431,14.431,0,0,1,20.333,18.207.346.346,0,0,1-.319.211" transform="translate(-392.966 -1305.439)" fill="#b9bcc5"/>
        <path id="Trazado_915259" data-name="Trazado 915259" d="M478.245,1602.437a7.292,7.292,0,1,1-7.292-7.292,7.292,7.292,0,0,1,7.292,7.292" transform="translate(-390.521 -1343.522)" fill="#333435"/>
        <path id="Trazado_915260" data-name="Trazado 915260" d="M140.967,1536.826a19.58,19.58,0,1,1-19.58-19.58,19.58,19.58,0,0,1,19.58,19.58" transform="translate(-85.748 -1277.912)" fill="#333435"/>
        <path id="Trazado_915261" data-name="Trazado 915261" d="M156.931,1556.47a15.9,15.9,0,1,1-15.9-15.9,15.9,15.9,0,0,1,15.9,15.9" transform="translate(-105.39 -1297.556)" fill="#979aa0"/>
        <path id="Trazado_915262" data-name="Trazado 915262" d="M202.8,1570.18a.347.347,0,0,1-.319-.481,13.738,13.738,0,0,0-19.357-17.333.346.346,0,0,1-.339-.6,14.431,14.431,0,0,1,20.333,18.207.346.346,0,0,1-.319.211" transform="translate(-153.801 -1305.439)" fill="#b9bcc5"/>
        <path id="Trazado_915263" data-name="Trazado 915263" d="M194.289,1602.437a7.292,7.292,0,1,1-7.292-7.292,7.292,7.292,0,0,1,7.292,7.292" transform="translate(-151.357 -1343.522)" fill="#333435"/>
        <path id="Trazado_915264" data-name="Trazado 915264" d="M865.2,1119.453l26.206-48.225a3.33,3.33,0,0,1,5.778.13l23,48.225a2.919,2.919,0,0,1-2.922,4.027h-49.2c-2.358,0-3.9-2.241-2.856-4.157" transform="translate(-728.444 -900.893)" fill="#333435"/>
        <path id="Trazado_915265" data-name="Trazado 915265" d="M889.272,1140.448l22.627-42.262a2.855,2.855,0,0,1,4.989.114l19.856,42.262a2.552,2.552,0,0,1-2.523,3.529H891.738a2.544,2.544,0,0,1-2.466-3.643" transform="translate(-748.756 -923.767)" fill="#f56364"/>
        <path id="Trazado_915266" data-name="Trazado 915266" d="M1031.994,1283.461a3,3,0,1,1-3-3,3,3,0,0,1,3,3" transform="translate(-864.157 -1078.48)" fill="#333435"/>
        <path id="Trazado_915267" data-name="Trazado 915267" d="M1004.672,1215.891a4.285,4.285,0,0,1,4.281-.1l4.814-8.339a1.019,1.019,0,0,0-.436-1.428,14.551,14.551,0,0,0-13.02.2,1.019,1.019,0,0,0-.409,1.414Z" transform="translate(-842.061 -1014.566)" fill="#333435"/>
        <path id="Trazado_915268" data-name="Trazado 915268" d="M964.018,1299.463h-9.062a1.02,1.02,0,0,0-1.016,1.124,14.54,14.54,0,0,0,6.276,10.5,1.018,1.018,0,0,0,1.451-.338l4.4-7.626a4.279,4.279,0,0,1-2.052-3.656" transform="translate(-803.459 -1094.482)" fill="#333435"/>
        <path id="Trazado_915269" data-name="Trazado 915269" d="M1069.536,1299.463h-9.3a4.281,4.281,0,0,1-2.23,3.759l4.474,7.75a1.019,1.019,0,0,0,1.428.354,14.586,14.586,0,0,0,6.643-10.742,1.018,1.018,0,0,0-1.016-1.12" transform="translate(-891.114 -1094.482)" fill="#333435"/>
        <path id="Trazado_915270" data-name="Trazado 915270" d="M473.786,1118.866l26.206-48.225a3.33,3.33,0,0,1,5.778.13l23,48.225a2.919,2.919,0,0,1-2.922,4.027h-49.2c-2.358,0-3.9-2.241-2.856-4.157" transform="translate(-398.771 -900.399)" fill="#333435"/>
        <path id="Trazado_915271" data-name="Trazado 915271" d="M497.856,1139.861l22.627-42.262a2.855,2.855,0,0,1,4.989.114l19.856,42.262a2.552,2.552,0,0,1-2.523,3.529H500.322a2.544,2.544,0,0,1-2.466-3.643" transform="translate(-419.083 -923.273)" fill="#f56364"/>
        <path id="Trazado_915272" data-name="Trazado 915272" d="M690.41,1324.507a1.832,1.832,0,0,0-2.432.413h0a.532.532,0,0,1-.747.084l-1.781-1.422a1.765,1.765,0,0,1-1.289,1.721l1.7,1.354a.574.574,0,0,1,.091.807,2.688,2.688,0,1,0,4.463-2.958" transform="translate(-576.24 -1114.798)" fill="#333435"/>
        <path id="Trazado_915273" data-name="Trazado 915273" d="M576.2,1239.678a1.832,1.832,0,0,0,2.432-.414.531.531,0,0,1,.747-.084l1.738,1.387a6.35,6.35,0,0,1,1.144-1.836l-1.508-1.2a.576.576,0,0,1-.091-.808,2.688,2.688,0,1,0-4.463,2.958" transform="translate(-484.625 -1039.169)" fill="#333435"/>
        <path id="Trazado_915274" data-name="Trazado 915274" d="M582.088,1322.12a1.722,1.722,0,0,1-.793-1.894,1.472,1.472,0,0,0,.034-.238l-2.429,1.883a.532.532,0,0,1-.746-.095l-.026-.033a3.827,3.827,0,1,0,2.021,2.607.574.574,0,0,1,.1-.805Z" transform="translate(-484.212 -1111.77)" fill="#333435"/>
        <path id="Trazado_915275" data-name="Trazado 915275" d="M687.684,1239.139a5.682,5.682,0,0,1,1.237,1.759l1.341-1.039a.531.531,0,0,1,.746.094,1.833,1.833,0,0,0,2.505.394,7.9,7.9,0,0,1-1.647-5.178,1.8,1.8,0,0,0-2.852,2.211.575.575,0,0,1-.1.807Z" transform="translate(-579.207 -1039.743)" fill="#333435"/>
        <path id="Trazado_915276" data-name="Trazado 915276" d="M624.017,1256.844a6.431,6.431,0,0,0-7.07.262,5.534,5.534,0,0,0-1.792,7.138,3.1,3.1,0,0,1,.435,2.21.79.79,0,0,0,.579.987,6.4,6.4,0,0,0,1.279.223c.749.066.952.3.816,1.028-.018.1-.043.189-.07.282a.694.694,0,0,0,.5.944,5.465,5.465,0,0,0,3.662.131c1.064-.323,1.179-.538.872-1.431a.7.7,0,0,1-.022-.144c-.065-.558.1-.781.659-.851.336-.043.68-.046,1.011-.114.84-.173,1.084-.527.961-1.373a2.07,2.07,0,0,1,.171-1.5,6.472,6.472,0,0,0,.763-3.605,4.684,4.684,0,0,0-2.749-4.185m-4.946,8.688a9.7,9.7,0,0,1-1.164.309c-.722-.032-1.182-.311-1.305-.83a1.33,1.33,0,0,1,.726-1.583,4.146,4.146,0,0,1,1.166-.293,1.084,1.084,0,0,1,1.34.823,1.21,1.21,0,0,1-.763,1.575m2.177,2.24-.945.009a.533.533,0,0,1-.49-.753l.562-1.235a.422.422,0,0,1,.764-.007l.585,1.224a.533.533,0,0,1-.476.762m3.569-2.816c-.124.515-.586.795-1.483.783a6.745,6.745,0,0,1-.9-.208,1.233,1.233,0,0,1-.856-1.61c.1-.438.365-.778.811-.777a5.362,5.362,0,0,1,1.652.221,1.294,1.294,0,0,1,.778,1.592" transform="translate(-517.588 -1057.801)" fill="#333435"/>
        <path id="Trazado_915277" data-name="Trazado 915277" d="M456.3,453.852h-89.4a2.672,2.672,0,0,1-2.672-2.672V394.455a2.672,2.672,0,0,1,2.672-2.672h89.4a2.672,2.672,0,0,1,2.672,2.672V451.18a2.672,2.672,0,0,1-2.672,2.672" transform="translate(-306.768 -329.982)" fill="#a46ab9"/>
        <path id="Trazado_915278" data-name="Trazado 915278" d="M575.9,784.853l13.728,15.892,11.143-15.892Z" transform="translate(-485.06 -661.048)" fill="#a46ab9"/>
        <path id="Trazado_915279" data-name="Trazado 915279" d="M638.122,473.9l-4.256-.1a2.357,2.357,0,0,1-2.23-2.237l-1.558-29.983a1.944,1.944,0,0,1,.614-1.545,2.04,2.04,0,0,1,1.625-.509l7.329.51a2.242,2.242,0,0,1,1.586.71,2.268,2.268,0,0,1,.6,1.635l-1.516,29.436a2.168,2.168,0,0,1-2.191,2.083" transform="translate(-530.686 -370.187)" fill="#fff"/>
        <path id="Trazado_915280" data-name="Trazado 915280" d="M630.91,696.034a6.081,6.081,0,0,1,4.481-1.475,6.329,6.329,0,0,1,4.513,1.565,5.931,5.931,0,0,1,1.537,4.423,5.8,5.8,0,0,1-1.572,4.346,6.132,6.132,0,0,1-4.478,1.546,6.057,6.057,0,0,1-4.463-1.6,5.911,5.911,0,0,1-1.617-4.389,5.824,5.824,0,0,1,1.6-4.416" transform="translate(-530.042 -584.996)" fill="#fff"/>
      </g>
    </g>
  </g>
</svg>
