<svg xmlns="http://www.w3.org/2000/svg" width="511.65" height="586.586" viewBox="0 0 511.65 586.586">
  <g id="Grupo_1102650" data-name="Grupo 1102650" transform="translate(-495 -3218.223)">
    <g id="Grupo_1102649" data-name="Grupo 1102649">
      <g id="Grupo_1102377" data-name="Grupo 1102377" transform="translate(0 -23.558)">
        <g id="Grupo_1102366" data-name="Grupo 1102366" transform="translate(495 3241.781)">
          <path id="Trazado_914871" data-name="Trazado 914871" d="M664.749,161.28A159.077,159.077,0,1,1,505.671,2.2,159.077,159.077,0,0,1,664.749,161.28" transform="translate(-249.694 73.371)" fill="#fff"/>
          <path id="Trazado_914872" data-name="Trazado 914872" d="M550.1,583.647l-15.642-6.952-6.952-14.6h-8.342l-3.823-7.647h-7.3l-3.823-2.433H487.186l-9.269,6.955,2.781,5.442-1.854,8.11-6.257,5.561.927,6.257-2.317,3.707,14.946,22.535,10.08,7.647,1.043,24.5,2.259,7.995-1.564,10.08,5.735,11.818,5.04,16.684,4.415,4.231q3.23,1.956,6.559,3.763h9.012l.521-3.3-6.083-1.912-4.171-5.735,2.607-5.735-3.128-3.128,4.692-13.556,5.388-2.433,12.166-22.246v-6.952l3.128-3.128H554.27l3.476-22.94,5.909-13.208-6.6-9.385Z" transform="translate(-339.461 -322.726)" fill="#6fec86"/>
          <path id="Trazado_914873" data-name="Trazado 914873" d="M349.991,210.834l8.86,4.379,4.345-.869,4.866,5.387,7.647,2.259,1.564,5.04,6.6,4.692,5.388,2.781v-6.778h-3.824l-1.564-3.148.7-11.624h-8.516l3.65-10.428h-7.995l-1.911,5.387-7.995-1.217-1.217-9.732,2.433-4.345V188.8l7.821-3.823,6.6,2.085,6.43-3.476,5.388,2.085v8.342l5.04-1.158-.464-11.355,11.818-7.184,8.574-13.208,5.1-.927,7.415-6.72,1.854,2.549,11.586-4.866-5.561-2.549,3.244-6.72,8.11.232-1.854,3.939,10.891,2.317,1.39-6.488-2.781-1.39.7-10.2-5.1-.7-.464-9.732-7.647,3.476-.927-4.4-10.08-3.012L424.2,127.042l-6.488,4.171L414.7,137.7l-3.707-1.159,2.781-6.72-11.354-4.4-1.622-4.866,13.44-6.025,12.745-.463,7.647-10.891,5.1-.232,3.707,3.476-4.866,3.476-6.257,1.854,13.672,5.561,12.281-9.732L447.486,95.122H430.106l-3.591,3.128v3.765l-3.707.58-1.043-5.1-6.952,2.549v4.287l-7.132.533a158.822,158.822,0,0,0-57.69,105.968" transform="translate(-252.141 6.43)" fill="#6fec86"/>
          <path id="Trazado_914874" data-name="Trazado 914874" d="M469.125,465.119l5.214-2.2,5.677,1.1,8.226,5.387-1.854,2.665-4.519-1.622-3.186-3.592-4.345-.7-5.214,1.854Z" transform="translate(-337.968 -258.537)" fill="#4ada85"/>
          <path id="Trazado_914875" data-name="Trazado 914875" d="M540.516,490.683h5.561l4.055,3.244-4.808,1.97-7.821-.579Z" transform="translate(-387.229 -278.541)" fill="#4ada85"/>
          <path id="Trazado_914876" data-name="Trazado 914876" d="M741.4,46.8h9.037l12.05-5.1,38.466-2.317,15.757,2.549-9.037,3.708-1.854,7.647-6.025,3.244-.927,5.561L789.6,65.568H783.8l-5.793,4.4h-6.257L760.166,81.325l-3.708-2.549-5.1-4.171.232-9.269,5.561-2.317-2.549-5.1.464-5.1-6.256-2.086-5.793.927Z" transform="translate(-534.118 46.586)" fill="#6fec86"/>
          <path id="Trazado_914877" data-name="Trazado 914877" d="M927.074,141.33h12.049l.927,3.012-7.647,3.012h-5.33l-3.531-6.025Z" transform="translate(-665.341 -26.859)" fill="#4ada85"/>
          <path id="Trazado_914878" data-name="Trazado 914878" d="M1337.774,738.09l-3.939,7.415-5.561,1.39v8.11l-2.549,3.708,1.159,8.342,3.939,1.622,3.244-2.317,6.952-20.624Z" transform="translate(-955.081 -456.778)" fill="#4ada85"/>
          <path id="Trazado_914879" data-name="Trazado 914879" d="M1047.534,411.4l-.927,6.955-6.489,12.162-6.72,3.707-6.488,9.037-2.317,6.025,2.549,10.659V471.3l-10.2,7.415v11.123l-4.4,3.244-2.317,6.952-10.16,9.5L984.4,513.7l-2.9-9.269v-4.4l-4.634-3.939L975.7,485.665l-4.4-9.732,1.159-9.732,2.781-2.781-2.317-12.281-7.183-10.659V429.125l-5.33-1.622-3.708-3.939L946.5,427.5l-6.488-1.854-5.793,2.317-10.659-7.415-8.11-14.367,2.317-6.488-.232-11.123,5.1-9.964,5.33-4.171,5.1-7.647,6.952-6.257h5.793l4.635-2.085,19.465-1.622v6.952l6.952,2.549,7.536,4.635,3.355-4.866,11.123,3.476,10.2-.7,3.476,10.659,6.257,9.5,1.622,6.72,3.94,7.878,9.037,10.2Z" transform="translate(-659.512 -182.108)" fill="#6fec86"/>
          <path id="Trazado_914880" data-name="Trazado 914880" d="M1087.358,198.875l7.647,3.128,3.476-.869,1.39,2.607,6.256,2.259,8.427-.937a159.033,159.033,0,0,0-55.221-89.746l-2.969,1.237-22.535-6.72-11.3,1.274-8.111,10.544-11.528,6.141,3.823,7.125,6.083-2.838,2.433,3.881.348,4.171,6.952-2.085.174-3.824,3.3-2.143-2.781-5.33,6.257-6.778,4.345,1.68-5.845,4.4,1.327,3.823,4.519,4.345-4,2.086-2.78,5.909h-15.641l.869-5.909-4.171,1.043.348,5.561-5.388,2.259-5.909,6.257h-4.692l-6.778,3.3,6.952,6.083-.174,4.345-11.818.348-4.692,8.168,1.854,5.214,5.272,1.911,8.168-1.911,2.607-4.519,5.04-3.042,1.911-6.17,4.692,1.738,4.866-3.3,4,6.256,6.517,2.781v2.955l-5.3,1.216,6,4,.956-3.3,3.65-5.735-6.778-4.519-2.433-5.388,11.013,7.473,2.891,7.994,4.692,2.955,1.39-9.385,2.955,1.043v5.387l5.561,4,4-1.043,3.823,1.217,4.519-.522-1.738,12.339,8.863,15.815,2.085,6.257,11.3,16.51,12.8-6.257,11.354-7.3,2.607-7.3-7.473-6.6-3.823,2.085-4.345-.521-3.3-4.866-5.04-6.083,4-.869Z" transform="translate(-703.101 -4.169)" fill="#6fec86"/>
          <path id="Trazado_914881" data-name="Trazado 914881" d="M1017.14,193.925l1.39,5.793,4.4,5.445-4.519,4.055-6.372.579,2.433-7.936-3.708-5.62,3.013-3.939Z" transform="translate(-728.179 -63.581)" fill="#4ada85"/>
          <path id="Trazado_914882" data-name="Trazado 914882" d="M991.277,223.592H985.6l-3.012,7.126,6.952-1.506Z" transform="translate(-707.877 -86.122)" fill="#4ada85"/>
          <path id="Trazado_914883" data-name="Trazado 914883" d="M504.085,319.387A159.694,159.694,0,0,1,391.165,46.773,159.694,159.694,0,1,1,617.006,272.614a158.649,158.649,0,0,1-112.92,46.773m0-318.155c-87.376,0-158.462,71.086-158.462,158.462s71.086,158.462,158.462,158.462S662.547,247.07,662.547,159.693,591.461,1.232,504.085,1.232" transform="translate(-248.107 74.958)"/>
          <path id="Trazado_914893" data-name="Trazado 914893" d="M647.252,429.929q-1.537,0-3.093-.025a.675.675,0,0,1,.011-1.35h.012c1.069.018,2.132.024,3.186.025q1.783,0,3.54-.033a.665.665,0,0,1,.688.663.676.676,0,0,1-.663.688c-1.218.022-2.445.026-3.681.033m-9.83-.253h-.035c-2.246-.115-4.52-.272-6.759-.465a.675.675,0,0,1-.615-.731.668.668,0,0,1,.731-.615c2.223.192,4.481.347,6.712.461a.675.675,0,0,1-.034,1.35m20.242-.026a.675.675,0,0,1-.036-1.35c2.228-.121,4.485-.286,6.706-.489a.675.675,0,1,1,.123,1.345c-2.238.205-4.511.37-6.756.492a.3.3,0,0,1-.037,0m-33.69-1.137a.586.586,0,0,1-.083-.005c-2.239-.273-4.5-.588-6.708-.938a.675.675,0,1,1,.21-1.334c2.2.346,4.438.659,6.662.931a.675.675,0,0,1-.081,1.345m47.128-.1a.675.675,0,0,1-.086-1.344c2.219-.288,4.457-.623,6.65-.993a.675.675,0,0,1,.225,1.332c-2.21.373-4.464.71-6.7,1a.652.652,0,0,1-.088.006m-60.462-2.006a.658.658,0,0,1-.129-.013c-2.2-.425-4.427-.9-6.627-1.4a.675.675,0,1,1,.3-1.316c2.185.5,4.4.972,6.581,1.395a.675.675,0,0,1-.127,1.338m73.77-.245a.675.675,0,0,1-.138-1.336c2.188-.458,4.392-.965,6.552-1.508a.675.675,0,0,1,.329,1.31c-2.177.547-4.4,1.058-6.6,1.52a.681.681,0,0,1-.139.014m-86.926-2.781a.663.663,0,0,1-.174-.023c-2.173-.579-4.365-1.2-6.515-1.858a.675.675,0,1,1,.392-1.292c2.135.648,4.312,1.269,6.471,1.846a.675.675,0,0,1-.174,1.327m100.016-.509a.675.675,0,0,1-.19-1.323c2.142-.631,4.3-1.312,6.41-2.028a.675.675,0,1,1,.433,1.279c-2.129.721-4.3,1.409-6.462,2.044a.668.668,0,0,1-.191.028m-112.935-3.413a.66.66,0,0,1-.218-.036c-2.127-.725-4.272-1.5-6.376-2.292a.675.675,0,0,1,.478-1.263c2.09.791,4.221,1.557,6.333,2.277a.675.675,0,0,1-.218,1.314m125.722-.916a.675.675,0,0,1-.242-1.305c2.088-.8,4.183-1.657,6.226-2.54a.675.675,0,0,1,.535,1.24c-2.06.89-4.171,1.751-6.277,2.561a.679.679,0,0,1-.242.045m-138.353-3.86a.667.667,0,0,1-.259-.052c-2.065-.858-4.155-1.768-6.213-2.7a.675.675,0,1,1,.559-1.229c2.044.929,4.121,1.833,6.173,2.685a.675.675,0,0,1-.259,1.3M722.682,413.2a.675.675,0,0,1-.293-1.284c2-.964,4.023-1.986,6-3.037a.675.675,0,1,1,.634,1.192c-1.994,1.061-4.03,2.091-6.05,3.062a.667.667,0,0,1-.292.067M559.636,409.1a.671.671,0,0,1-.3-.07c-2.012-.992-4.041-2.032-6.029-3.089a.675.675,0,0,1,.634-1.192c1.976,1.052,3.993,2.084,5.993,3.071a.675.675,0,0,1-.3,1.281M734.6,406.853a.675.675,0,0,1-.342-1.258c1.93-1.129,3.86-2.312,5.736-3.514a.675.675,0,0,1,.729,1.137c-1.892,1.212-3.837,2.4-5.783,3.543a.674.674,0,0,1-.34.092m-186.894-4.094a.67.67,0,0,1-.335-.089c-1.947-1.114-3.909-2.275-5.831-3.452a.675.675,0,1,1,.705-1.151c1.91,1.169,3.86,2.324,5.8,3.431a.675.675,0,0,1-.336,1.262m198.266-3.194a.675.675,0,0,1-.388-1.228c1.83-1.28,3.658-2.615,5.434-3.968a.675.675,0,0,1,.818,1.075c-1.79,1.364-3.634,2.71-5.479,4a.671.671,0,0,1-.386.122M536.188,395.7a.673.673,0,0,1-.369-.11c-1.866-1.219-3.756-2.494-5.618-3.79a.675.675,0,1,1,.772-1.108c1.851,1.288,3.73,2.556,5.585,3.768a.675.675,0,0,1-.37,1.24m220.536-4.326a.675.675,0,0,1-.431-1.2c1.732-1.434,3.445-2.915,5.092-4.4a.675.675,0,0,1,.9,1c-1.661,1.5-3.388,2.99-5.135,4.437a.674.674,0,0,1-.43.155M525.1,387.982a.67.67,0,0,1-.4-.132c-1.8-1.331-3.613-2.714-5.39-4.11a.675.675,0,1,1,.834-1.062c1.767,1.388,3.57,2.763,5.359,4.086a.675.675,0,0,1-.4,1.218m241.664-5.657a.675.675,0,0,1-.473-1.156c1.618-1.59,3.2-3.214,4.692-4.826a.676.676,0,0,1,.99.919c-1.51,1.627-3.1,3.265-4.736,4.869a.672.672,0,0,1-.473.194m-252.293-2.694a.675.675,0,0,1-.432-.156c-1.734-1.445-3.465-2.932-5.145-4.418a.675.675,0,1,1,.895-1.012c1.67,1.478,3.391,2.956,5.115,4.392a.675.675,0,0,1-.433,1.194M775.947,372.4a.675.675,0,0,1-.518-1.108c2.328-2.793,3.559-4.551,3.692-4.742a.683.683,0,0,1,.76-.265l-.4,1.289.2-.644.553.387c-.138.2-1.4,2-3.766,4.841a.673.673,0,0,1-.519.243m-271.6-1.732a.674.674,0,0,1-.463-.183c-1.662-1.562-3.3-3.153-4.869-4.727a.675.675,0,0,1,.957-.953c1.559,1.565,3.186,3.145,4.838,4.7a.675.675,0,0,1-.463,1.167M494.8,361.08a.674.674,0,0,1-.5-.217c-2.94-3.18-4.447-5.062-4.51-5.14a.676.676,0,0,1,1.056-.843c.015.019,1.543,1.927,4.446,5.066a.675.675,0,0,1-.5,1.133" transform="translate(-378.343 -187.154)"/>
          <path id="Trazado_914894" data-name="Trazado 914894" d="M1629.631,992.552l-71.8-8.134V946.6h54.362Z" transform="translate(-1122.296 -606.989)" fill="#7ad8ec"/>
          <rect id="Rectángulo_404020" data-name="Rectángulo 404020" width="55.305" height="14.766" transform="translate(111.303 261.139)"/>
          <rect id="Rectángulo_404021" data-name="Rectángulo 404021" width="55.305" height="14.766" transform="translate(204.648 261.139)"/>
          <rect id="Rectángulo_404022" data-name="Rectángulo 404022" width="55.305" height="14.766" transform="translate(294.913 261.139)"/>
          <path id="Trazado_914895" data-name="Trazado 914895" d="M1629.481,991.58a.533.533,0,0,1-.07,0l-71.242-8.134a.615.615,0,0,1-.546-.611V945.008a.616.616,0,0,1,.616-.616H1612.6a.615.615,0,0,1,.578.4l16.88,45.957a.615.615,0,0,1-.578.828m-70.626-9.3,69.7,7.958-16.387-44.615h-53.316Z" transform="translate(-1122.146 -605.402)"/>
          <path id="Trazado_914896" data-name="Trazado 914896" d="M533.588,867.685H223.363a10.1,10.1,0,0,1-10.1-10.1v-137.8a10.1,10.1,0,0,1,10.1-10.1H533.588a10.1,10.1,0,0,1,10.1,10.1v137.8a10.1,10.1,0,0,1-10.1,10.1" transform="translate(-153.637 -436.31)" fill="#fff"/>
          <path id="Trazado_914897" data-name="Trazado 914897" d="M519.851,866.714H233.926a22.9,22.9,0,0,1-22.869-22.87v-113.5a22.9,22.9,0,0,1,22.869-22.869H519.851a22.9,22.9,0,0,1,22.869,22.869v113.5a22.9,22.9,0,0,1-22.869,22.87M233.926,708.708a21.662,21.662,0,0,0-21.638,21.637v113.5a21.662,21.662,0,0,0,21.638,21.638H519.851a21.662,21.662,0,0,0,21.637-21.638v-113.5a21.662,21.662,0,0,0-21.637-21.637Z" transform="translate(-152.05 -434.723)"/>
          <rect id="Rectángulo_404023" data-name="Rectángulo 404023" width="433.475" height="24.79" transform="translate(78.175 431.375)"/>
          <path id="Trazado_914898" data-name="Trazado 914898" d="M1545.285,995.674H1437.175a.616.616,0,0,1-.616-.616V886.948a.616.616,0,0,1,.616-.616h82.267a.616.616,0,0,1,.578.4l25.844,70.422a.612.612,0,0,1,.038.212v37.688a.616.616,0,0,1-.616.616m-107.495-1.232H1544.67V957.48l-25.658-69.916h-81.221Z" transform="translate(-1034.928 -563.575)"/>
          <path id="Trazado_914899" data-name="Trazado 914899" d="M1496.839,1230.1h-58.078v-17.512h18.454a53.586,53.586,0,0,1,39.625,17.512" transform="translate(-1036.515 -798.616)"/>
          <path id="Trazado_914900" data-name="Trazado 914900" d="M1567.319,1021.753h-69.305a.609.609,0,0,1-.6-.614V923.147a.609.609,0,0,1,.6-.615h48.7a.605.605,0,0,1,.567.4l20.608,57.113a.627.627,0,0,1,.037.212v40.879a.609.609,0,0,1-.6.614m-68.7-1.229h68.1V980.369l-20.426-56.608h-47.671Z" transform="translate(-1077.41 -589.654)"/>
          <rect id="Rectángulo_404024" data-name="Rectángulo 404024" width="10.082" height="32.777" transform="translate(470.397 337.609)"/>
          <rect id="Rectángulo_404025" data-name="Rectángulo 404025" width="10.082" height="11.953" transform="translate(470.397 372.067)"/>
          <rect id="Rectángulo_404026" data-name="Rectángulo 404026" width="5.757" height="21.33" transform="translate(504.599 400.874)"/>
          <path id="Trazado_914901" data-name="Trazado 914901" d="M1552.864,1127.3h-20.358a.616.616,0,1,1,0-1.231h20.358a.616.616,0,1,1,0,1.231" transform="translate(-1103.608 -736.283)"/>
          <path id="Trazado_914902" data-name="Trazado 914902" d="M1490.985,1316.011a27.652,27.652,0,1,1-27.652-27.653,27.652,27.652,0,0,1,27.652,27.653" transform="translate(-1034.295 -853.203)" fill="#fff"/>
          <path id="Trazado_914903" data-name="Trazado 914903" d="M1461.746,1342.693a28.268,28.268,0,1,1,28.268-28.268,28.3,28.3,0,0,1-28.268,28.268m0-55.3a27.036,27.036,0,1,0,27.036,27.036,27.067,27.067,0,0,0-27.036-27.036" transform="translate(-1032.709 -851.617)"/>
          <path id="Trazado_914904" data-name="Trazado 914904" d="M1515.924,1356.766a11.837,11.837,0,1,1-11.837-11.837,11.837,11.837,0,0,1,11.837,11.837" transform="translate(-1075.05 -893.958)" fill="#fff"/>
          <path id="Trazado_914905" data-name="Trazado 914905" d="M1502.5,1367.631a12.453,12.453,0,1,1,12.452-12.453,12.467,12.467,0,0,1-12.452,12.453m0-23.673a11.221,11.221,0,1,0,11.221,11.221,11.233,11.233,0,0,0-11.221-11.221" transform="translate(-1073.464 -892.371)"/>
          <path id="Trazado_914906" data-name="Trazado 914906" d="M676.648,1316.011A27.652,27.652,0,1,1,649,1288.358a27.652,27.652,0,0,1,27.652,27.653" transform="translate(-447.629 -853.203)" fill="#fff"/>
          <path id="Trazado_914907" data-name="Trazado 914907" d="M647.408,1342.693a28.268,28.268,0,1,1,28.268-28.268,28.3,28.3,0,0,1-28.268,28.268m0-55.3a27.036,27.036,0,1,0,27.036,27.036,27.067,27.067,0,0,0-27.036-27.036" transform="translate(-446.042 -851.617)"/>
          <path id="Trazado_914908" data-name="Trazado 914908" d="M701.587,1356.766a11.837,11.837,0,1,1-11.837-11.837,11.837,11.837,0,0,1,11.837,11.837" transform="translate(-488.384 -893.958)" fill="#fff"/>
          <path id="Trazado_914909" data-name="Trazado 914909" d="M688.163,1367.631a12.453,12.453,0,1,1,12.452-12.453,12.467,12.467,0,0,1-12.452,12.453m0-23.673a11.221,11.221,0,1,0,11.221,11.221,11.233,11.233,0,0,0-11.221-11.221" transform="translate(-486.797 -892.371)"/>
          <path id="Trazado_914910" data-name="Trazado 914910" d="M453.417,1316.011a27.652,27.652,0,1,1-27.652-27.653,27.652,27.652,0,0,1,27.652,27.653" transform="translate(-286.809 -853.203)" fill="#fff"/>
          <path id="Trazado_914911" data-name="Trazado 914911" d="M424.179,1342.693a28.268,28.268,0,1,1,28.268-28.268,28.3,28.3,0,0,1-28.268,28.268m0-55.3a27.036,27.036,0,1,0,27.037,27.036,27.067,27.067,0,0,0-27.037-27.036" transform="translate(-285.223 -851.617)"/>
          <path id="Trazado_914912" data-name="Trazado 914912" d="M478.356,1356.766a11.837,11.837,0,1,1-11.837-11.837,11.837,11.837,0,0,1,11.837,11.837" transform="translate(-327.564 -893.958)" fill="#fff"/>
          <path id="Trazado_914913" data-name="Trazado 914913" d="M464.933,1367.631a12.453,12.453,0,1,1,12.452-12.453,12.467,12.467,0,0,1-12.452,12.453m0-23.673a11.221,11.221,0,1,0,11.221,11.221,11.233,11.233,0,0,0-11.221-11.221" transform="translate(-325.977 -892.371)"/>
          <path id="Trazado_914914" data-name="Trazado 914914" d="M1192.165,1316.011a27.652,27.652,0,1,1-27.652-27.653,27.652,27.652,0,0,1,27.652,27.653" transform="translate(-819.019 -853.203)" fill="#fff"/>
          <path id="Trazado_914915" data-name="Trazado 914915" d="M1162.926,1342.693a28.268,28.268,0,1,1,28.268-28.268,28.3,28.3,0,0,1-28.268,28.268m0-55.3a27.036,27.036,0,1,0,27.036,27.036,27.067,27.067,0,0,0-27.036-27.036" transform="translate(-817.432 -851.617)"/>
          <path id="Trazado_914916" data-name="Trazado 914916" d="M950.087,656.311H901.548a.615.615,0,0,1-.616-.616v-9.541a11.421,11.421,0,0,1,11.408-11.409h26.954A11.422,11.422,0,0,1,950.7,646.155V655.7a.615.615,0,0,1-.616.616m-47.923-1.232h47.308v-8.925a10.189,10.189,0,0,0-10.177-10.177H912.34a10.189,10.189,0,0,0-10.177,10.177Z" transform="translate(-649.051 -382.326)"/>
          <path id="Trazado_914917" data-name="Trazado 914917" d="M625.084,656.311H576.545a.615.615,0,0,1-.616-.616v-9.541a11.422,11.422,0,0,1,11.409-11.409h26.954A11.422,11.422,0,0,1,625.7,646.155V655.7a.615.615,0,0,1-.616.616m-47.924-1.232h47.308v-8.925a10.189,10.189,0,0,0-10.177-10.177H587.338a10.189,10.189,0,0,0-10.177,10.177Z" transform="translate(-414.912 -382.326)"/>
          <path id="Trazado_914918" data-name="Trazado 914918" d="M1217.1,1356.766a11.836,11.836,0,1,1-11.836-11.837,11.837,11.837,0,0,1,11.836,11.837" transform="translate(-859.774 -893.958)" fill="#fff"/>
          <path id="Trazado_914919" data-name="Trazado 914919" d="M1203.68,1367.631a12.453,12.453,0,1,1,12.452-12.453,12.467,12.467,0,0,1-12.452,12.453m0-23.673a11.221,11.221,0,1,0,11.221,11.221,11.233,11.233,0,0,0-11.221-11.221" transform="translate(-858.187 -892.371)"/>
          <path id="Trazado_914920" data-name="Trazado 914920" d="M537.717,839.183,495.436,914l86.152-.769Z" transform="translate(-356.923 -529.607)" fill="#f56364"/>
          <path id="Trazado_914921" data-name="Trazado 914921" d="M574.149,908.673,488,909.442a2.9,2.9,0,0,1-2.556-4.315l42.281-74.819a2.9,2.9,0,0,1,5.02-.045l43.871,74.05a2.888,2.888,0,0,1-2.464,4.36m-81.193-5.06,76.111-.679-38.757-65.42Z" transform="translate(-349.453 -522.156)"/>
          <path id="Trazado_914922" data-name="Trazado 914922" d="M625.109,1022.833l-9.128,16.152,18.6-.166Z" transform="translate(-443.766 -661.913)"/>
          <path id="Trazado_914923" data-name="Trazado 914923" d="M660.732,960.451,651.6,976.6l18.6-.166Z" transform="translate(-469.43 -616.971)"/>
          <path id="Trazado_914924" data-name="Trazado 914924" d="M588.16,961.1l-9.128,16.152,18.6-.166Z" transform="translate(-417.148 -617.438)"/>
          <path id="Trazado_914925" data-name="Trazado 914925" d="M640.975,1006.815a4.83,4.83,0,1,1-4.881-4.775,4.814,4.814,0,0,1,4.881,4.775" transform="translate(-454.813 -646.933)"/>
          <path id="Trazado_914926" data-name="Trazado 914926" d="M633.593,1010.08a5.831,5.831,0,1,1,5.782-5.883,5.857,5.857,0,0,1-5.782,5.883m-.1-9.637a3.807,3.807,0,1,0,3.856,3.772,3.807,3.807,0,0,0-3.856-3.772" transform="translate(-452.199 -644.324)" fill="#f56364"/>
          <path id="Trazado_914927" data-name="Trazado 914927" d="M920.589,839.183,878.307,914l86.152-.769Z" transform="translate(-632.752 -529.607)" fill="#f56364"/>
          <path id="Trazado_914928" data-name="Trazado 914928" d="M957.02,908.673l-86.152.768a2.9,2.9,0,0,1-2.556-4.315l42.281-74.819a2.9,2.9,0,0,1,5.021-.045l43.87,74.05a2.888,2.888,0,0,1-2.464,4.36m-81.193-5.06,76.111-.679-38.757-65.42Z" transform="translate(-625.282 -522.156)"/>
          <path id="Trazado_914929" data-name="Trazado 914929" d="M1017.324,999.173a9.156,9.156,0,0,0-18.311.007,9.062,9.062,0,0,0,1.74,5.351,1.906,1.906,0,0,0-.325,1.041c0,1.343,1.565,2.51,3.883,3.136.133,2.468,1.811,4.418,3.86,4.417s3.726-1.952,3.856-4.42c2.318-.627,3.886-1.8,3.885-3.139a1.915,1.915,0,0,0-.33-1.041,9.064,9.064,0,0,0,1.741-5.352m-12.218,5.714c-1.3.5-2.647.171-3-.738s.428-2.054,1.732-2.559,2.648-.171,3,.738-.423,2.054-1.733,2.559m3.064,3.777c-.688,0-1.244-.277-1.244-.621,0-.249.292-.462.711-.561-.01-.132-.019-.268-.019-.41,0-.876.244-1.588.55-1.588s.551.711.552,1.587a3.835,3.835,0,0,1-.018.41c.419.1.712.311.712.56,0,.344-.556.622-1.244.622m6.16-4.52c-.353.909-1.7,1.244-3,.741s-2.083-1.648-1.734-2.557,1.7-1.244,3-.741,2.083,1.648,1.734,2.557" transform="translate(-719.711 -638.276)"/>
          <path id="Trazado_914930" data-name="Trazado 914930" d="M1067.511,978.476a.94.94,0,1,1-.154-1.628,2.673,2.673,0,1,0-4.183,2.205l-3.146,2.405,1.977,2.587,2.921-2.232a2.672,2.672,0,1,0,2.585-3.337m-2.012.918-.007.007,0,0,.009,0" transform="translate(-763.667 -626.859)"/>
          <path id="Trazado_914931" data-name="Trazado 914931" d="M966.729,981.187a2.671,2.671,0,0,0,5.26.661l2.923,2.231,1.975-2.589-3.148-2.4a77.111,77.111,0,0,1-4.338-.574,2.673,2.673,0,0,0-2.672,2.674m4.694-1.754,0,0-.007-.007.009,0" transform="translate(-696.453 -626.884)"/>
          <path id="Trazado_914932" data-name="Trazado 914932" d="M1070.208,1051.578a2.672,2.672,0,0,0-5.26-.661l-2.923-2.23-1.975,2.589,3.148,2.4a77.446,77.446,0,0,1,4.338.574,2.673,2.673,0,0,0,2.672-2.674m-4.694,1.754,0,0,.007.007-.01,0" transform="translate(-763.683 -680.539)"/>
          <path id="Trazado_914933" data-name="Trazado 914933" d="M969.427,1054.283a.94.94,0,1,1,.154,1.629,2.673,2.673,0,1,0,4.183-2.205l3.146-2.405-1.977-2.588-2.921,2.233a2.672,2.672,0,1,0-2.585,3.337m2.012-.918.007-.007,0,0-.009,0" transform="translate(-696.47 -680.558)"/>
          <path id="Trazado_914934" data-name="Trazado 914934" d="M30.061,1618.9c-.009,5.754,26.8,10.459,59.869,10.508s59.892-4.576,59.9-10.33-26.8-10.459-59.869-10.508-59.892,4.576-59.9,10.33" transform="translate(-21.657 -1083.89)" fill="#f56364"/>
          <path id="Trazado_914935" data-name="Trazado 914935" d="M29.974,1241.817l62.569-.529c14.183-.12,56.732.546,56.732.546l-.211-163.319-119.77-.178Z" transform="translate(-21.103 -701.899)" fill="#f56364"/>
          <path id="Trazado_914936" data-name="Trazado 914936" d="M28.4,1244.489l21.473,2.121.251-168.241-21.476-.032Z" transform="translate(-20.458 -701.899)" fill="#eb494a"/>
          <path id="Trazado_914937" data-name="Trazado 914937" d="M26.832,1235.731h0a.616.616,0,0,1-.615-.617l.242-162.132a.616.616,0,0,1,.608-.615l119.768-1.462a.616.616,0,0,1,.623.615l.192,163.226a.616.616,0,0,1-.615.616h0a.616.616,0,0,1-.616-.615l-.191-162.6-118.538,1.447-.242,161.525a.616.616,0,0,1-.616.615" transform="translate(-18.887 -696.545)"/>
          <path id="Trazado_914938" data-name="Trazado 914938" d="M12.215,1046.879c-.01,6.789,28.649,12.336,64.012,12.388s64.039-5.409,64.049-12.2-28.649-12.336-64.012-12.388-64.039,5.408-64.049,12.2" transform="translate(-8.8 -670.448)"/>
          <path id="Trazado_914939" data-name="Trazado 914939" d="M69.753,1261.982a269.79,269.79,0,0,0,42.819-3.033c13.106-2.184,20.865-5.131,23.72-9.01a3.862,3.862,0,0,0-6.233-4.561c-.1.132-2.57,3.269-18.762,5.967a261.947,261.947,0,0,1-41.533,2.927c-15.519-.023-30.41-1.131-41.929-3.12-16.164-2.791-18.327-5.936-18.347-5.967a3.863,3.863,0,0,0-6.834,3.6c3,5.691,14.783,8.362,23.385,9.876,12.012,2.115,27.537,3.292,43.714,3.316" transform="translate(-1.591 -820.62)" fill="#f56364"/>
          <path id="Trazado_914940" data-name="Trazado 914940" d="M71.217,1461.711a269.789,269.789,0,0,0,42.819-3.033c13.106-2.184,20.865-5.131,23.72-9.01a3.862,3.862,0,0,0-6.233-4.561c-.1.132-2.57,3.269-18.762,5.967A262.021,262.021,0,0,1,71.228,1454c-15.519-.023-30.41-1.131-41.929-3.12-16.163-2.791-18.327-5.936-18.347-5.967a3.863,3.863,0,0,0-6.834,3.6c3,5.691,14.783,8.362,23.385,9.876,12.012,2.115,27.537,3.292,43.714,3.316" transform="translate(-2.645 -964.51)" fill="#f56364"/>
          <path id="Trazado_914941" data-name="Trazado 914941" d="M68.666,1261.019h-.5c-16.214-.024-31.776-1.205-43.82-3.326-8.73-1.536-20.7-4.264-23.823-10.2a4.473,4.473,0,0,1,1.878-6.046,4.491,4.491,0,0,1,6.019,1.818c.225.254,3.07,3.132,17.934,5.7,11.488,1.983,26.342,3.088,41.826,3.111a263.172,263.172,0,0,0,41.431-2.919c15.8-2.632,18.346-5.7,18.369-5.729a4.5,4.5,0,0,1,6.261-.956,4.463,4.463,0,0,1,.961,6.25c-2.954,4.013-10.842,7.04-24.114,9.252a269.517,269.517,0,0,1-42.417,3.042M4.471,1242.171a3.241,3.241,0,0,0-2.863,4.752c2.874,5.453,14.473,8.066,22.947,9.556,11.976,2.109,27.463,3.283,43.609,3.307,15.709,0,30.873-1.051,42.717-3.024,12.941-2.156,20.57-5.024,23.325-8.767a3.232,3.232,0,0,0-.7-4.526,3.262,3.262,0,0,0-4.544.7c-.259.352-3,3.517-19.156,6.21a261.678,261.678,0,0,1-41.14,2.937h-.5c-15.551-.023-30.479-1.134-42.033-3.129-16.432-2.837-18.675-6.106-18.762-6.244a3.287,3.287,0,0,0-2.906-1.766" transform="translate(0 -819.042)"/>
          <path id="Trazado_914942" data-name="Trazado 914942" d="M70.117,1460.746h-.492c-16.211-.024-31.773-1.2-43.82-3.326-8.73-1.536-20.7-4.265-23.823-10.2a4.479,4.479,0,0,1,7.9-4.228c.225.254,3.07,3.131,17.934,5.7,11.488,1.983,26.342,3.088,41.826,3.111h.494a260.385,260.385,0,0,0,40.937-2.919c15.8-2.633,18.346-5.7,18.369-5.729a4.5,4.5,0,0,1,6.261-.956,4.463,4.463,0,0,1,.961,6.25c-2.955,4.014-10.843,7.041-24.115,9.252a269.621,269.621,0,0,1-42.429,3.042m-.49-1.232a268.152,268.152,0,0,0,42.717-3.025c12.94-2.156,20.57-5.024,23.325-8.767a3.232,3.232,0,0,0-.7-4.526,3.262,3.262,0,0,0-4.544.7c-.259.352-3,3.517-19.156,6.21a264.424,264.424,0,0,1-41.636,2.935c-15.55-.022-30.478-1.134-42.033-3.129-16.433-2.837-18.675-6.106-18.762-6.243a3.265,3.265,0,0,0-4.409-1.4,3.241,3.241,0,0,0-1.36,4.382c2.873,5.451,14.473,8.065,22.947,9.556,11.979,2.109,27.467,3.283,43.608,3.307" transform="translate(-1.055 -962.928)"/>
          <path id="Trazado_914943" data-name="Trazado 914943" d="M70.639,1661.108a269.82,269.82,0,0,0,42.819-3.033c13.106-2.184,20.865-5.131,23.72-9.009a3.862,3.862,0,0,0-6.233-4.561c-.1.132-2.57,3.269-18.761,5.967a261.918,261.918,0,0,1-41.533,2.927c-15.519-.023-30.41-1.131-41.929-3.12-16.164-2.791-18.327-5.936-18.347-5.967a3.863,3.863,0,0,0-6.834,3.6c3,5.691,14.783,8.362,23.385,9.876,12.012,2.115,27.537,3.292,43.714,3.316" transform="translate(-2.229 -1108.16)"/>
          <path id="Trazado_914944" data-name="Trazado 914944" d="M223.526,1398.589l8.24,14.28-16.523-.024Z" transform="translate(-155.066 -932.616)"/>
          <path id="Trazado_914945" data-name="Trazado 914945" d="M202.292,1361.791l-16.523-.025,8.283-14.256Z" transform="translate(-133.832 -895.818)"/>
          <path id="Trazado_914946" data-name="Trazado 914946" d="M261.393,1361.879l-16.523-.025,8.283-14.256Z" transform="translate(-176.409 -895.881)"/>
          <path id="Trazado_914947" data-name="Trazado 914947" d="M223.526,1398.589l8.24,14.28-16.523-.024Z" transform="translate(-155.066 -932.616)"/>
          <path id="Trazado_914948" data-name="Trazado 914948" d="M202.292,1361.791l-16.523-.025,8.283-14.256Z" transform="translate(-133.832 -895.818)"/>
          <path id="Trazado_914949" data-name="Trazado 914949" d="M261.393,1361.879l-16.523-.025,8.283-14.256Z" transform="translate(-176.409 -895.881)"/>
          <path id="Trazado_914950" data-name="Trazado 914950" d="M112.069,1054.525h-.094a46.03,46.03,0,0,1-8.27-.672c-2.645-.511-3.876-1.2-3.875-2.176,0-.721.562-1.757,5.4-2.409h0a48.567,48.567,0,0,1,6.753-.4c1.244,0,12.149.1,12.145,2.849,0,.973-1.235,1.661-3.881,2.164a45.9,45.9,0,0,1-8.178.647m-10.972-2.844c.551.606,4.433,1.6,10.88,1.612h.094c6.4,0,10.25-.982,10.793-1.582-.542-.6-4.425-1.6-10.882-1.615a54.1,54.1,0,0,0-6.587.392c-2.973.4-4.054.95-4.3,1.193" transform="translate(-71.92 -680.665)" fill="#fff"/>
          <path id="Trazado_914951" data-name="Trazado 914951" d="M176.19,1069.409a.635.635,0,0,1-.616-.617l.011-7.009a.616.616,0,1,1,1.232,0l-.011,7.009a.616.616,0,0,1-.616.615" transform="translate(-126.487 -689.531)" fill="#fff"/>
          <path id="Trazado_914952" data-name="Trazado 914952" d="M106.33,1069.307h0a.616.616,0,0,1-.615-.617l.01-7.009a.616.616,0,0,1,.616-.615h0a.616.616,0,0,1,.615.617l-.011,7.009a.616.616,0,0,1-.616.615" transform="translate(-76.159 -689.457)" fill="#fff"/>
          <path id="Trazado_914953" data-name="Trazado 914953" d="M362.547,1371.909c-5.754-.009-10.459,26.8-10.508,59.869s4.576,59.892,10.33,59.9,10.459-26.8,10.508-59.869-4.576-59.892-10.33-59.9" transform="translate(-253.616 -913.395)" fill="#f56364"/>
          <path id="Trazado_914954" data-name="Trazado 914954" d="M372.027,1371.822s.4,46.927.529,62.569c.12,14.183-.546,56.732-.546,56.732l163.319-.211.178-119.77Z" transform="translate(-268.004 -912.841)" fill="#f56364"/>
          <path id="Trazado_914955" data-name="Trazado 914955" d="M357.048,1370.244l-2.121,21.473,168.241.252.032-21.476Z" transform="translate(-255.698 -912.196)" fill="#eb494a"/>
          <path id="Trazado_914956" data-name="Trazado 914956" d="M375.672,1489.5a.616.616,0,0,1,0-1.232l162.6-.191-1.447-118.539L375.3,1369.3a.616.616,0,0,1,0-1.232h0l162.132.242a.616.616,0,0,1,.615.609l1.462,119.768a.616.616,0,0,1-.615.623l-163.226.191Z" transform="translate(-269.933 -910.625)"/>
          <path id="Trazado_914957" data-name="Trazado 914957" d="M924.912,1354.063c-6.789-.01-12.336,28.649-12.388,64.012s5.409,64.038,12.2,64.049,12.336-28.649,12.388-64.012-5.408-64.039-12.2-64.049" transform="translate(-657.402 -900.538)"/>
          <path id="Trazado_914958" data-name="Trazado 914958" d="M724.588,1411.6a269.8,269.8,0,0,0,3.033,42.819c2.184,13.106,5.131,20.865,9.009,23.72a3.862,3.862,0,0,0,4.561-6.233c-.132-.1-3.269-2.569-5.967-18.761a261.962,261.962,0,0,1-2.928-41.533c.023-15.519,1.131-30.41,3.12-41.93,2.791-16.163,5.936-18.327,5.967-18.347a3.863,3.863,0,0,0-3.6-6.834c-5.691,3-8.362,14.783-9.876,23.385-2.115,12.012-3.292,27.537-3.316,43.714" transform="translate(-522.009 -893.329)" fill="#f56364"/>
          <path id="Trazado_914959" data-name="Trazado 914959" d="M524.859,1413.064a269.8,269.8,0,0,0,3.033,42.819c2.184,13.106,5.131,20.865,9.009,23.72a3.862,3.862,0,0,0,4.561-6.233c-.132-.1-3.269-2.57-5.967-18.761a261.953,261.953,0,0,1-2.927-41.533c.023-15.519,1.131-30.41,3.12-41.93,2.791-16.163,5.936-18.327,5.967-18.347a3.863,3.863,0,0,0-3.6-6.834c-5.691,3-8.362,14.783-9.876,23.385-2.115,12.012-3.292,27.537-3.316,43.714" transform="translate(-378.12 -894.383)" fill="#f56364"/>
          <path id="Trazado_914960" data-name="Trazado 914960" d="M737.313,1477.913a4.429,4.429,0,0,1-2.636-.869c-4.014-2.956-7.041-10.844-9.252-24.115a270.462,270.462,0,0,1-3.042-42.921c.024-16.213,1.205-31.775,3.326-43.821,1.537-8.73,4.265-20.7,10.2-23.823a4.473,4.473,0,0,1,6.046,1.879,4.487,4.487,0,0,1-1.818,6.018c-.253.224-3.132,3.071-5.7,17.934-1.983,11.489-3.088,26.343-3.111,41.826a261.362,261.362,0,0,0,2.919,41.431c2.633,15.8,5.7,18.345,5.729,18.37a4.494,4.494,0,0,1,.955,6.261,4.442,4.442,0,0,1-2.928,1.779,4.533,4.533,0,0,1-.686.052m.674-134.835a3.226,3.226,0,0,0-1.507.375c-5.452,2.874-8.065,14.473-9.557,22.947-2.109,11.978-3.283,27.465-3.307,43.609a269.159,269.159,0,0,0,3.024,42.717c2.156,12.94,5.024,20.57,8.767,23.325a3.231,3.231,0,0,0,4.526-.7,3.261,3.261,0,0,0-.7-4.544c-.352-.259-3.517-3-6.21-19.157a262.557,262.557,0,0,1-2.935-41.635c.023-15.55,1.134-30.479,3.129-42.033,2.837-16.432,6.106-18.675,6.244-18.762a3.268,3.268,0,0,0,1.395-4.409,3.215,3.215,0,0,0-1.905-1.587,3.251,3.251,0,0,0-.969-.148M723,1410.009h0Z" transform="translate(-520.421 -891.737)"/>
          <path id="Trazado_914961" data-name="Trazado 914961" d="M537.586,1479.378a4.43,4.43,0,0,1-2.636-.87c-4.014-2.955-7.041-10.843-9.252-24.115a270.471,270.471,0,0,1-3.041-42.921c.024-16.212,1.2-31.774,3.326-43.82,1.536-8.73,4.266-20.7,10.2-23.823a4.473,4.473,0,0,1,6.046,1.878,4.489,4.489,0,0,1-1.818,6.019c-.252.223-3.13,3.066-5.7,17.934-1.983,11.488-3.088,26.342-3.111,41.826a261.311,261.311,0,0,0,2.919,41.431c2.632,15.794,5.7,18.344,5.728,18.368a4.494,4.494,0,0,1,.956,6.261,4.441,4.441,0,0,1-2.929,1.779,4.532,4.532,0,0,1-.685.052m-13.7-67.9a269.247,269.247,0,0,0,3.024,42.717c2.156,12.939,5.024,20.569,8.767,23.324a3.231,3.231,0,0,0,4.526-.7,3.261,3.261,0,0,0-.695-4.544c-.351-.257-3.514-2.982-6.21-19.156a262.561,262.561,0,0,1-2.936-41.636c.023-15.55,1.134-30.478,3.129-42.033,2.849-16.5,6.113-18.682,6.251-18.767a3.265,3.265,0,0,0,1.388-4.405,3.241,3.241,0,0,0-4.381-1.36c-5.451,2.873-8.065,14.472-9.557,22.948-2.109,11.978-3.283,27.464-3.307,43.608" transform="translate(-376.533 -892.792)"/>
          <path id="Trazado_914962" data-name="Trazado 914962" d="M325.462,1412.487a269.792,269.792,0,0,0,3.033,42.819c2.184,13.106,5.131,20.865,9.01,23.72a3.862,3.862,0,0,0,4.561-6.233c-.132-.1-3.269-2.57-5.967-18.762a261.962,261.962,0,0,1-2.927-41.533c.023-15.519,1.131-30.41,3.12-41.929,2.791-16.163,5.936-18.328,5.967-18.347a3.863,3.863,0,0,0-3.6-6.834c-5.691,3-8.362,14.783-9.876,23.385-2.115,12.012-3.292,27.537-3.316,43.714" transform="translate(-234.47 -893.968)"/>
          <path id="Trazado_914963" data-name="Trazado 914963" d="M599.759,1565.374l-14.28,8.24.025-16.523Z" transform="translate(-421.792 -1046.804)"/>
          <path id="Trazado_914964" data-name="Trazado 914964" d="M636.557,1544.14l.025-16.523,14.256,8.283Z" transform="translate(-458.589 -1025.57)"/>
          <path id="Trazado_914965" data-name="Trazado 914965" d="M636.469,1603.241l.025-16.523L650.749,1595Z" transform="translate(-458.526 -1068.147)"/>
          <path id="Trazado_914966" data-name="Trazado 914966" d="M599.759,1565.374l-14.28,8.24.025-16.523Z" transform="translate(-421.792 -1046.804)"/>
          <path id="Trazado_914967" data-name="Trazado 914967" d="M636.557,1544.14l.025-16.523,14.256,8.283Z" transform="translate(-458.589 -1025.57)"/>
          <path id="Trazado_914968" data-name="Trazado 914968" d="M636.469,1603.241l.025-16.523L650.749,1595Z" transform="translate(-458.526 -1068.147)"/>
          <path id="Trazado_914969" data-name="Trazado 914969" d="M968.844,1465.976h0c-2.75,0-2.814-10.911-2.812-12.153s.1-12.145,2.847-12.145h0c.722,0,1.757.562,2.409,5.4a51.289,51.289,0,0,1,.4,6.753c0,1.244-.1,12.146-2.847,12.146m.03-23.032c-.605.552-1.6,4.433-1.612,10.881s.979,10.343,1.582,10.887c.605-.543,1.605-4.426,1.615-10.883a50.015,50.015,0,0,0-.392-6.587c-.4-2.972-.95-4.054-1.193-4.3" transform="translate(-695.95 -963.657)" fill="#fff"/>
          <path id="Trazado_914970" data-name="Trazado 914970" d="M952.125,1518.663h0l-7.008-.011a.616.616,0,0,1,0-1.232h0l7.008.011a.616.616,0,0,1,0,1.231" transform="translate(-680.439 -1018.225)" fill="#fff"/>
          <path id="Trazado_914971" data-name="Trazado 914971" d="M952.23,1448.8h0l-7.009-.01a.616.616,0,0,1,0-1.232h0l7.009.01a.616.616,0,0,1,0,1.232" transform="translate(-680.514 -967.896)" fill="#fff"/>
          <path id="Trazado_914972" data-name="Trazado 914972" d="M1686.346,339.6Z" transform="translate(-1193.559 -169.697)"/>
          <g id="Grupo_1102367" data-name="Grupo 1102367" transform="translate(6.049 0)">
            <path id="Trazado_914884" data-name="Trazado 914884" d="M443,188.4l-41.777-72.736a45.395,45.395,0,1,1,83.553,0Z" transform="translate(-396.534 46.306)" fill="#8c7bff"/>
            <path id="Trazado_914973" data-name="Trazado 914973" d="M448.837,205.847,401.7,123.773c-14.36-33.783,10.432-71.26,47.139-71.26s61.5,37.478,47.139,71.26Z" transform="translate(-249.878 -51.313)" fill="#8c7bff"/>
            <path id="Trazado_914976" data-name="Trazado 914976" d="M441.92,185.163l-40.78-71a44.312,44.312,0,1,1,81.561,0Z" transform="translate(-107.162 -11.652)" fill="#8c7bff"/>
            <path id="Trazado_914885" data-name="Trazado 914885" d="M441.9,188.324a1.061,1.061,0,0,1-.92-.533L399.2,115.054a1.075,1.075,0,0,1-.056-.113,46.456,46.456,0,1,1,85.508,0,1.075,1.075,0,0,1-.056.113l-41.777,72.737a1.061,1.061,0,0,1-.921.533m-40.824-74.272L441.9,185.131l40.825-71.079a44.333,44.333,0,1,0-81.649,0" transform="translate(-395.429 47.446)"/>
            <path id="Trazado_914974" data-name="Trazado 914974" d="M447.864,206.04a1.2,1.2,0,0,1-1.038-.6l-47.14-82.074a1.221,1.221,0,0,1-.064-.128,52.42,52.42,0,1,1,96.484,0,1.215,1.215,0,0,1-.064.128L448.9,205.439a1.2,1.2,0,0,1-1.039.6M401.8,122.234l46.065,80.2,46.065-80.2a50.024,50.024,0,1,0-92.13,0" transform="translate(-248.904 -50.31)"/>
            <path id="Trazado_914977" data-name="Trazado 914977" d="M440.791,185.033a1.036,1.036,0,0,1-.9-.52l-40.781-71a1.054,1.054,0,0,1-.055-.111,45.348,45.348,0,1,1,83.469,0,1.054,1.054,0,0,1-.055.111l-40.781,71a1.036,1.036,0,0,1-.9.52m-39.851-72.5,39.851,69.384,39.851-69.384a43.276,43.276,0,1,0-79.7,0" transform="translate(-106.033 -10.487)"/>
            <path id="Trazado_914886" data-name="Trazado 914886" d="M501.859,122.841A34.356,34.356,0,1,1,467.5,88.485a34.356,34.356,0,0,1,34.356,34.356" transform="translate(-421.033 21.608)" fill="#fff"/>
            <path id="Trazado_914975" data-name="Trazado 914975" d="M510.68,127.251a38.766,38.766,0,1,1-38.766-38.766,38.766,38.766,0,0,1,38.766,38.766" transform="translate(-272.954 -74.565)" fill="#fff"/>
            <path id="Trazado_914978" data-name="Trazado 914978" d="M500.221,122.022a33.536,33.536,0,1,1-33.537-33.537,33.537,33.537,0,0,1,33.537,33.537" transform="translate(-131.926 -36.62)" fill="#fff"/>
            <g id="Grupo_1102368" data-name="Grupo 1102368" transform="translate(382.426 142.073)">
              <path id="Trazado_914980" data-name="Trazado 914980" d="M448.837,205.847,401.7,123.773c-14.36-33.783,10.432-71.26,47.139-71.26s61.5,37.478,47.139,71.26Z" transform="translate(-396.402 -51.313)" fill="#8c7bff"/>
              <path id="Trazado_914979" data-name="Trazado 914979" d="M447.864,206.04a1.2,1.2,0,0,1-1.038-.6l-47.14-82.074a1.221,1.221,0,0,1-.064-.128,52.42,52.42,0,1,1,96.484,0,1.215,1.215,0,0,1-.064.128L448.9,205.439a1.2,1.2,0,0,1-1.039.6M401.8,122.234l46.065,80.2,46.065-80.2a50.024,50.024,0,1,0-92.13,0" transform="translate(-395.429 -50.31)"/>
              <path id="Trazado_914981" data-name="Trazado 914981" d="M510.68,127.251a38.766,38.766,0,1,1-38.766-38.766,38.766,38.766,0,0,1,38.766,38.766" transform="translate(-419.478 -74.565)" fill="#fff"/>
            </g>
          </g>
        </g>
        <g id="Artboard271" transform="translate(521.868 3359.802)">
          <path id="Trazado_914982" data-name="Trazado 914982" d="M37.484,64.318a.859.859,0,0,1-1.257,1.143l-2.2-1.805a.858.858,0,0,1,.243-1.467l2.662-1a.859.859,0,0,1,.884,1.435q.892.073,1.8.073A21.911,21.911,0,0,0,60.859,35.455a.858.858,0,0,1,1.665-.418,23.628,23.628,0,0,1-22.9,29.377Q38.541,64.414,37.484,64.318Zm4.393-45.3A21.911,21.911,0,0,0,17.729,40.476a.858.858,0,1,1-1.717-.025,23.628,23.628,0,0,1,26.344-23.1A.859.859,0,0,1,43.623,16.2l2.127,1.888a.858.858,0,0,1-.3,1.457l-2.7.9a.859.859,0,0,1-.876-1.424ZM24.588,41.785c2.929,1.336,5.84,2.618,9.037,2.574a.537.537,0,0,1,.549.536v9.133a11.619,11.619,0,0,1-9.586,11.4A11.619,11.619,0,0,1,15,54.028s0-7.076,0-9.133a.534.534,0,0,1,.546-.534c3.2.041,6.11-1.241,9.039-2.576Zm-4,12.654,2.2,2.195a.859.859,0,0,0,1.183.028l5.342-4.844a.858.858,0,1,0-1.153-1.272l-4.737,4.295-1.62-1.618a.858.858,0,0,0-1.213,1.215Zm37.56-38.792a8.878,8.878,0,0,1,2.607,1.08l1.694-.753,2,2L63.7,19.664a8.862,8.862,0,0,1,1.08,2.61l1.729.665v2.823l-1.729.665a8.957,8.957,0,0,1-1.08,2.607l.751,1.695-2,2-1.694-.751a8.849,8.849,0,0,1-2.607,1.08l-.665,1.729H54.664L54,33.055a8.939,8.939,0,0,1-2.61-1.08l-1.695.751-2-2,.754-1.695a8.931,8.931,0,0,1-1.083-2.607l-1.729-.665V22.939l1.729-.665a8.947,8.947,0,0,1,1.083-2.61L47.7,17.969l2-2,1.695.753A8.876,8.876,0,0,1,54,15.646l.668-1.731h2.823Zm-2.078,3.778A4.926,4.926,0,1,0,61,24.349,4.923,4.923,0,0,0,56.074,19.425ZM52.849,34.847V49.016H35.891V44.9a2.254,2.254,0,0,0-2.3-2.253q-.446.006-.884-.026V23.941H43.923v1.821a1.717,1.717,0,0,0,1.1,1.6l.933.359a10.652,10.652,0,0,0,.579,1.4l-.406.912a1.717,1.717,0,0,0,.355,1.912l2,2a1.717,1.717,0,0,0,1.909.356l.915-.405a10.646,10.646,0,0,0,1.4.58Zm-14.7,10.292H48.98a.858.858,0,1,0,0-1.717H38.151a.858.858,0,1,0,0,1.717Zm-2.975-7.906h13.8a.858.858,0,1,0,0-1.717h-13.8a.858.858,0,1,0,0,1.717Zm0,3.953h13.8a.858.858,0,1,0,0-1.717h-13.8a.858.858,0,1,0,0,1.717Zm0-7.906h8.268a.858.858,0,1,0,0-1.717H35.176a.858.858,0,1,0,0,1.717ZM28.66,41.662V26.274a2.341,2.341,0,0,1,2.333-2.333V42.364a17.391,17.391,0,0,1-2.333-.7Zm7.231,9.071H52.849V55.4H35.819a13.193,13.193,0,0,0,.071-1.369Z" transform="translate(-15 -13.915)" fill="#12263f" fill-rule="evenodd"/>
        </g>
        <g id="Artboard51" transform="translate(678.933 3267.31)">
          <path id="Trazado_914983" data-name="Trazado 914983" d="M31.987,18.648,38.135,12.5v6.148Zm14.475,6.731a.863.863,0,1,1,0-1.727h9.006a.863.863,0,0,1,0,1.727Zm0-2.757a.863.863,0,1,1,0-1.727h9.006a.863.863,0,0,1,0,1.727Zm0,13.925a.863.863,0,1,1,0-1.727h9.006a.863.863,0,0,1,0,1.727Zm0,2.757a.863.863,0,1,1,0-1.727h9.006a.863.863,0,0,1,0,1.727Zm0,11.167a.863.863,0,1,1,0-1.727h9.006a.863.863,0,0,1,0,1.727Zm0,2.757a.863.863,0,1,1,0-1.727h9.006a.863.863,0,0,1,0,1.727ZM64.37,61.691H31.987V20.375h6.148a1.727,1.727,0,0,0,1.727-1.727V12.5h30.08V43.9l-6.073,2.6V36.98a.863.863,0,0,0-.863-.863H59.421v-3.4H42.51v3.4H39.792V24.037H42.51v3.448H59.421v-8.7H42.51v3.522H38.928a.863.863,0,0,0-.863.863V36.98a.863.863,0,0,0,.863.863H42.51V41.41H59.421V37.843h2.722V49.981H59.421V46.638H42.51v8.7H59.421V51.708h2.932v3.5a11.466,11.466,0,0,0,2.017,6.485ZM72.1,44.851l8.023,3.435v6.92A9.847,9.847,0,0,1,72.1,64.841a9.847,9.847,0,0,1-8.02-9.635v-6.92ZM67.805,55.679l2.149,2.145a.863.863,0,0,0,1.19.029l5.222-4.735a.863.863,0,0,0-1.16-1.279l-4.613,4.183-1.568-1.565a.863.863,0,1,0-1.22,1.222Z" transform="translate(-31.987 -12.5)" fill="#12263f" fill-rule="evenodd"/>
        </g>
        <g id="Artboard141" transform="translate(812.691 3301.075)">
          <path id="Trazado_914984" data-name="Trazado 914984" d="M52.488,48.445a9.73,9.73,0,1,1,1.653-1.82L57.186,49.6l.118-.122a.89.89,0,0,1,1.252-.019l5.349,5.191a.887.887,0,0,1,.017,1.252l-1.931,1.989a.889.889,0,0,1-1.252.019l-5.346-5.191a.885.885,0,0,1-.019-1.252l.1-.1ZM46.161,33.573a7.468,7.468,0,1,0,7.468,7.468A7.468,7.468,0,0,0,46.161,33.573ZM27.289,9.191a8.674,8.674,0,0,1,2.547,1.055l1.655-.736,1.95,1.95-.733,1.655a8.659,8.659,0,0,1,1.055,2.549l1.688.65v2.758l-1.688.65a8.748,8.748,0,0,1-1.055,2.547l.733,1.655-1.95,1.95-1.655-.733A8.64,8.64,0,0,1,27.289,26.2l-.65,1.688H23.882l-.65-1.688a8.731,8.731,0,0,1-2.549-1.055l-1.655.733-1.95-1.95.736-1.655a8.721,8.721,0,0,1-1.058-2.547l-1.689-.65V16.315l1.689-.65a8.737,8.737,0,0,1,1.058-2.549l-.736-1.655,1.95-1.95,1.655.736a8.674,8.674,0,0,1,2.547-1.055L23.882,7.5h2.758Zm-2.03,3.691a4.811,4.811,0,1,0,4.813,4.81A4.808,4.808,0,0,0,25.259,12.882Zm9.527,28.29H32.347V36.121H27.3V31.284h5.052V27.269a1.637,1.637,0,0,0,.3-.238l.8-.8h3.736v5.052h3.123a11.37,11.37,0,0,0-5.522,9.756Q34.785,41.106,34.786,41.172Zm3.576,8.15a16,16,0,0,1-3.091.865l-.506.088-.506-.088A16.2,16.2,0,0,1,20.891,34.294V27.107A10.355,10.355,0,0,0,22,27.546l.357.926a1.637,1.637,0,0,0,1.528,1.049h2.758a1.637,1.637,0,0,0,1.528-1.049l.357-.926a10.288,10.288,0,0,0,1.4-.578l.791.35v2.328H27.3a1.637,1.637,0,0,0-1.637,1.637v4.837A1.637,1.637,0,0,0,27.3,37.758H30.71v3.414a1.637,1.637,0,0,0,1.637,1.637h2.575a11.351,11.351,0,0,0,3.44,6.513ZM43.288,30.03a1.631,1.631,0,0,0-1.053-.383H38.821V26.232a1.637,1.637,0,0,0-1.637-1.637h-2.25a1.637,1.637,0,0,0,0-1.334l-.4-.911a10.384,10.384,0,0,0,.578-1.393l.927-.357a1.637,1.637,0,0,0,1.049-1.528v-.948L48.64,23.075v6.859a11.473,11.473,0,0,0-5.351.1Z" transform="translate(-15.067 -7.5)" fill="#12263f" fill-rule="evenodd"/>
        </g>
        <g id="Grupo_1102373" data-name="Grupo 1102373" transform="translate(916.216 3410.412)">
          <path id="Trazado_914985" data-name="Trazado 914985" d="M188.493,117.591h-11.16v-3.753a5.229,5.229,0,0,1,5.223-5.222h.715a5.228,5.228,0,0,1,5.223,5.223v3.752Zm-9.336-2.949a.674.674,0,1,0,.484.2A.681.681,0,0,0,179.157,114.642Zm3.542-4.84a4.242,4.242,0,0,0-4.17,3.6.7.7,0,0,0-.007.1.674.674,0,0,0,1.341.1,2.885,2.885,0,0,1,2.837-2.448.674.674,0,1,0,0-1.348Z" transform="translate(-165.707 -99.362)" fill-rule="evenodd"/>
          <path id="Trazado_914986" data-name="Trazado 914986" d="M153.634,211.937a1.039,1.039,0,0,0-1.038,1.038v1.459h16.1v-1.459a1.039,1.039,0,0,0-1.038-1.038Z" transform="translate(-143.441 -192.36)" fill-rule="evenodd"/>
          <path id="Trazado_914987" data-name="Trazado 914987" d="M138.627,54.034a.687.687,0,0,0-.687-.687h-2.259v39.81a2.037,2.037,0,0,1-2.035,2.035h-29.7v1.7a.687.687,0,0,0,.687.687h33.305a.687.687,0,0,0,.687-.687Z" transform="translate(-99.655 -49.615)" fill-rule="evenodd"/>
          <path id="Trazado_914988" data-name="Trazado 914988" d="M68.54,30.23h2.768a.687.687,0,0,0,.687-.687v-3.5Z" transform="translate(-67.784 -25.04)" fill-rule="evenodd"/>
          <path id="Trazado_914989" data-name="Trazado 914989" d="M94.963,60.227a.687.687,0,0,0,.687-.687V16.687A.687.687,0,0,0,94.963,16H66.53v4.5A2.037,2.037,0,0,1,64.5,22.538H60.971v37a.687.687,0,0,0,.687.686Zm-23.714-26V30.476a6.578,6.578,0,0,1,6.57-6.571h.715a6.578,6.578,0,0,1,6.571,6.571v3.753a2.387,2.387,0,0,1,2.472,2.387v2.133a.674.674,0,0,1-.674.674H69.451a.674.674,0,0,1-.674-.674V36.615a2.389,2.389,0,0,1,2.386-2.386Zm16.809-2.26a.674.674,0,0,1,0-1.348H89.1a.674.674,0,0,1-.008,1.348Zm-1.035-4.947a.674.674,0,0,1-.674-1.168l.891-.514a.674.674,0,0,1,.674,1.168Zm-3.37-3.767a.674.674,0,0,1-1.168-.675L83,21.69a.674.674,0,0,1,1.168.674Zm-4.8-1.576a.674.674,0,0,1-1.348,0V20.65a.674.674,0,0,1,1.348,0v1.029Zm-6.115,1.709-.514-.892a.674.674,0,1,1,1.168-.674l.515.891A.674.674,0,0,1,72.737,23.388Zm-3.273,3.863-.891-.514a.674.674,0,0,1,.674-1.168l.891.514A.674.674,0,0,1,69.464,27.251Zm-.9,4.982H67.525a.674.674,0,0,1,.008-1.348h1.029a.674.674,0,0,1,0,1.348ZM70.152,48.8h-4.92a.674.674,0,0,1,0-1.348h4.921a.674.674,0,0,1,0,1.349Zm2.278,0a.674.674,0,0,1,0-1.348H91.389a.674.674,0,0,1,0,1.348Zm11.743-4.225H65.223a.674.674,0,1,1,.008-1.348H84.173a.674.674,0,0,1,0,1.349ZM91.389,55.9a.674.674,0,0,1,0,1.348H84.165a.674.674,0,0,1,.008-1.348ZM81.9,57.248H65.231a.674.674,0,0,1,0-1.348H81.9a.674.674,0,0,1,0,1.349Zm9.493-4.226H65.231a.674.674,0,0,1-.008-1.348H91.389a.674.674,0,0,1,0,1.348Z" transform="translate(-60.971 -16)" fill-rule="evenodd"/>
        </g>
      </g>
    </g>
  </g>
</svg>
